<svg width="24" height="24" viewBox="0 0 24 24" fill="none" xmlns="http://www.w3.org/2000/svg">
<path d="M20.2301 4.84261V5.23018L17.4455 13.1L17.4445 13.1009L16.9183 14.5896H16.9174L16.9036 14.6301L16.595 15.5035L16.5408 15.5237L15.8539 15.7854L15.7051 15.7542L15.1586 15.6421L14.4276 15.0397L14.3229 14.8964L13.7994 14.1791L13.4127 13.6483L13.2245 13.4077L12.442 12.4029L12.2748 12.188L11.5906 11.896L11.0102 11.6471L10.8109 11.5855L10.641 11.5323L10.01 11.3357L9.75381 11.2558L8.89694 10.5459L8.6453 10.0637L8.15762 9.12513L8.14476 9.10034L7.90506 8.6843L11.0221 1H11.3408L20.2301 4.84261Z" fill="#7F5544"/>
<path d="M11.5043 1.12219L11.9203 2.12417L11.1002 4.14558L12.6844 4.7903L12.9903 5.65636L10.0183 4.50192L11.5043 1.12219Z" fill="#683C33"/>
<path d="M10.0991 4.57904L10.5152 5.58194L9.69504 7.60243L11.35 8.20491L11.6467 9.04708L8.61316 7.95877L10.0991 4.57904Z" fill="#683C33"/>
<path d="M8.97409 8.25175L9.19083 8.77341L9.08705 9.03056L8.66458 10.0702L8.17691 9.13159L8.68111 7.98358L8.77479 7.77051L8.8951 8.05981L8.97409 8.25175Z" fill="#683C33"/>
<path d="M17.5474 3.57617L18.1517 4.64336L17.3922 6.68773L18.8276 7.22316L19.2327 8.1085L16.3213 7.07713L17.5474 3.57617Z" fill="#683C33"/>
<path d="M16.359 7.05786L16.8494 7.94229L16.1321 9.96737L17.5676 10.5028L18.0167 11.3624L15.0613 10.3568L16.359 7.05786Z" fill="#683C33"/>
<path d="M15.1338 10.4835L15.6279 11.2486L14.9207 13.2507L16.4324 13.8137L16.9523 14.6457L13.927 13.6676L15.1338 10.4835Z" fill="#683C33"/>
<path d="M14.0951 13.8182L14.4891 14.429L14.4717 14.4758L14.3229 14.8964L13.7994 14.1792L13.9858 13.6869L13.995 13.6639L14.0161 13.697L14.0951 13.8182Z" fill="#683C33"/>
<path d="M14.411 2.37769L14.8923 3.23272L14.0721 5.25321L15.8805 5.98977L16.3213 6.90451L12.9903 5.60955L14.411 2.37769Z" fill="#683C33"/>
<path d="M13.1638 5.87866L13.6442 6.7337L12.824 8.75419L14.6324 9.49075L15.155 10.3687L11.7422 9.11053L13.1638 5.87866Z" fill="#683C33"/>
<path d="M11.857 9.32266L12.3217 10.1483L12.2767 10.2594L11.6099 11.9025L11.0286 11.6536L10.8302 11.592L11.8184 9.3447L11.8322 9.31348L11.8404 9.29419L11.857 9.32266Z" fill="#683C33"/>
<path d="M13.972 13.6612L13.8325 13.6171L13.7893 13.6033L13.207 13.4205L12.3841 12.3102L13.2245 12.6151L13.7379 12.7437L13.9068 13.4058L13.972 13.6612Z" fill="#683C33"/>
<path d="M11.5667 1.27368L11.9203 2.12413L13.5422 2.73578L12.6844 4.79026L13.0408 5.79224L14.4092 2.32434L11.5667 1.27368Z" fill="#A5786A"/>
<path d="M10.0578 4.67273L10.5152 5.58195L12.0765 6.22116L11.35 8.20492L11.6907 9.172L12.9251 5.86115L10.0578 4.67273Z" fill="#A5786A"/>
<path d="M11.5263 9.2151L10.6603 11.5387L10.0293 11.3421L10.6428 9.66788L9.08705 9.0305L9.08154 9.02775L8.62509 8.11945L8.97409 8.2517L11.5263 9.2151Z" fill="#A5786A"/>
<path d="M17.5823 3.64319L18.1517 4.64333L19.6322 5.2155L18.8277 7.22313L19.2327 8.32246L20.2622 4.91794L17.5823 3.64319Z" fill="#A5786A"/>
<path d="M16.2828 6.95581L16.8494 7.94218L18.3216 8.48771L17.5676 10.5027L18.0571 11.4753L19.1454 8.20392L16.2828 6.95581Z" fill="#A5786A"/>
<path d="M16.7897 14.7734L16.5408 15.5237L15.8539 15.7855L15.7051 15.7542L15.9659 15.0581L14.4937 14.5126L14.4717 14.4758L14.0951 13.8182L14.0272 13.7007L13.9592 13.5822L13.9271 13.5253L13.973 13.5455L15.189 14.0763H15.1899L16.7897 14.7734Z" fill="#A5786A"/>
<path d="M15.031 10.3228L15.628 11.2485L17.1011 11.794L16.4325 13.8136L16.9698 14.6742L17.9249 11.5093L15.031 10.3228Z" fill="#A5786A"/>
<path d="M14.4469 2.44183L14.8923 3.23258L16.641 3.97098L15.8805 5.98963L16.3214 6.90437L17.5254 3.58525L14.4469 2.44183Z" fill="#A5786A"/>
<path d="M13.1409 5.91071L13.6442 6.7336L15.335 7.43985L14.5745 9.45851L15.0576 10.2594L16.2203 7.05504L13.1409 5.91071Z" fill="#A5786A"/>
<path d="M11.7964 9.30054L12.2767 10.2594L13.9895 10.8306L13.3025 12.6334L14.0088 13.5344L14.9897 10.4329L11.7964 9.30054Z" fill="#A5786A"/>
<path d="M13.6166 13.5877L13.804 13.652L13.7351 13.8228L13.6166 13.5877Z" fill="#A5786A"/>
<path d="M11.08 1.00647L11.3767 1.12219L8.21 9.01038L7.92438 8.6375L11.08 1.00647Z" fill="#683C33"/>
<path d="M7.92438 8.69073L10.9469 1.21583C11.0157 1.09643 11.1517 0.955916 11.2701 1.02388L11.7789 1.23695L11.508 1.22868C11.4579 1.2413 11.4114 1.26548 11.3724 1.29929C11.3333 1.3331 11.3027 1.37561 11.283 1.42338L8.16408 9.10677" stroke="#641926" stroke-width="0.3" stroke-miterlimit="10"/>
<path d="M11.7422 1.22498L19.8058 4.56338C19.976 4.63412 20.1125 4.76753 20.1872 4.93604C20.2619 5.10455 20.269 5.29531 20.2071 5.46893L16.6134 15.5089" stroke="#641926" stroke-width="0.3" stroke-miterlimit="10"/>
<path d="M14.4469 2.22974L10.8302 11.4368L10.7742 11.5791" stroke="#641926" stroke-width="0.3" stroke-miterlimit="10"/>
<path d="M17.5823 3.64319L13.7746 14.0956" stroke="#641926" stroke-width="0.3" stroke-miterlimit="10"/>
<path d="M19.2501 8.14239L16.3498 7.02469L13.061 5.75729L10.0018 4.57898" stroke="#641926" stroke-width="0.3" stroke-miterlimit="10"/>
<path d="M8.61316 7.99915L11.7293 9.14623L15.1228 10.3953L18.0571 11.4753" stroke="#641926" stroke-width="0.3" stroke-miterlimit="10"/>
<path d="M16.8816 14.6457L13.9289 13.5592L13.2612 13.313" stroke="#641926" stroke-width="0.3" stroke-miterlimit="10"/>
<path d="M15.6784 17.9336L13.8563 22.5578L13.5964 22.6864L13.1841 22.8912L12.3786 23.0418L4.55839 19.7309L4 19.1441L4.09735 18.0824L5.68344 14.2233L5.81936 13.8936L6.97839 14.1865L8.48182 15.5908L10.2819 16.365L12.1784 16.5174L13.3356 16.5863L14.9768 17.2843L15.6784 17.9336Z" fill="#7CA4DD"/>
<path d="M13.5964 22.6863L13.1841 22.8911L12.3786 23.0417L4.55839 19.7355L4 19.1486L4.09735 18.087L5.68344 14.2296L5.73854 14.102L6.28224 14.1883L4.71176 18.2908C4.64888 18.4543 4.65205 18.6358 4.72062 18.7969C4.78918 18.958 4.91776 19.0861 5.07913 19.1541L13.5964 22.6863Z" fill="#5D83B2"/>
<path d="M5.52179 14.5824C5.52179 14.5824 6.33917 14.2995 6.645 14.5824C6.92879 14.845 9.37726 17.2411 12.4649 17.0859C12.99 17.058 13.5146 17.149 13.9996 17.3523L15.5609 18.0108L14.0657 16.8977L13.0013 16.4825L10.8283 16.4917L9.14214 15.9095L7.47983 14.6558L6.50724 13.8936L5.85793 13.9799L5.52179 14.5824Z" fill="#5D83B2"/>
<path d="M5.72573 13.8936L4.0974 18.0824C3.96204 18.4307 3.96866 18.8181 4.11582 19.1615C4.26298 19.505 4.53895 19.777 4.88447 19.9192L12.0738 22.8765C12.2597 22.9529 12.459 22.9915 12.66 22.99C12.8611 22.9885 13.0598 22.947 13.2446 22.8678C13.4294 22.7886 13.5965 22.6734 13.7362 22.5289C13.876 22.3843 13.9855 22.2134 14.0584 22.026L15.6574 17.918" stroke="#641926" stroke-width="0.3" stroke-miterlimit="10"/>
<path d="M6.47877 11.187L6.8342 10.1841L7.81873 8.6853L8.41661 9.7378L8.9153 10.5524L9.7731 11.2623L11.5888 11.8465L12.2941 12.1945L13.1657 13.3131L14.6259 15.24L15.6784 15.7919L16.7447 15.4659L17.136 15.7019L17.2801 16.1354L17.147 17.2008L17.1635 17.9033L16.6749 18.3543L16.0706 18.2193L14.3311 16.9666L12.4631 16.4569L10.4766 16.4403L8.94837 15.7919L6.47877 13.9799L5.10484 13.9331L4.8385 13.6722L5.6366 12.6188L6.48612 11.6508L6.47877 11.187Z" fill="white"/>
<path d="M8.16406 9.29047C7.65717 9.98392 7.26749 10.7558 7.01054 11.5755C7.04912 12.11 5.02587 13.7493 4.99005 13.8191C5.00296 13.6035 5.02841 13.3889 5.06628 13.1762L6.48613 11.6508L6.57797 10.5983L7.37331 9.10679L7.90966 8.68433L8.16406 9.29047Z" fill="#D8D8D8"/>
<path d="M17.0698 15.6054C17.0153 15.5319 16.9342 15.4824 16.8438 15.4677C16.7535 15.4529 16.6609 15.474 16.5858 15.5264C16.1808 15.8084 15.2348 16.1987 14.2126 14.7421C12.8543 12.8061 12.7689 12.008 10.528 11.5323C8.28709 11.0566 8.19066 8.54932 7.92432 8.69075C7.65798 8.83219 6.33273 10.6148 6.4861 11.4304C6.62937 12.1963 5.09288 12.6472 4.92481 13.7714C4.92107 13.7955 4.92347 13.8201 4.93178 13.843C4.94008 13.866 4.95404 13.8864 4.97234 13.9025C4.99065 13.9187 5.01272 13.9299 5.03651 13.9352C5.06031 13.9405 5.08506 13.9398 5.10849 13.933C5.71487 13.8277 6.33901 13.9164 6.89203 14.1865C7.66166 14.7752 9.51225 16.8306 12.1104 16.5248C14.7086 16.2189 15.8639 18.6775 16.6786 18.3542C16.8601 18.3061 17.0153 18.1881 17.1103 18.0261C17.2052 17.864 17.2323 17.671 17.1855 17.4891C17.1456 17.2951 17.1382 17.0959 17.1635 16.8995C17.191 16.6745 17.2296 16.4008 17.2728 16.2189C17.2824 16.1082 17.2694 15.9968 17.2345 15.8913C17.1996 15.7858 17.1436 15.6885 17.0698 15.6054Z" stroke="#641926" stroke-width="0.3" stroke-miterlimit="10"/>
</svg>
