<svg width="24" height="24" viewBox="0 0 24 24" fill="none" xmlns="http://www.w3.org/2000/svg">
<path d="M8.14452 17.169L4.30344 23.267L4.61442 23.6167L8.69391 17.4027L8.14452 17.169Z" fill="#D88D4A"/>
<path d="M8.34146 17.349C8.34146 17.4103 4.51829 23.5205 4.42688 23.4065L6.8252 19.344L8.14451 17.169L8.34146 17.349Z" fill="#BF7436"/>
<path d="M8.16996 17.1285L4.36657 23.2304C4.34892 23.2589 4.33711 23.2906 4.33182 23.3238C4.32653 23.3569 4.32786 23.3907 4.33575 23.4233C4.34364 23.456 4.35792 23.4867 4.37777 23.5137C4.39762 23.5408 4.42265 23.5636 4.45139 23.5809C4.50734 23.6145 4.57411 23.6251 4.6377 23.6105C4.70129 23.5959 4.75677 23.5573 4.79252 23.5027L8.71559 17.5045" stroke="#641926" stroke-width="0.3" stroke-miterlimit="10"/>
<path d="M8.41496 16.1721C8.07419 14.7776 8.01016 13.3298 8.22649 11.9107C8.68883 10.5517 9.22682 9.21963 9.83793 7.92073L12.0591 4.64978L13.6611 2.77259L15.6316 1.30438L17.096 1L18.388 1.34962L19.2361 2.3457C19.2361 2.3457 19.5009 3.42847 19.4887 3.57077C19.4764 3.71307 19.4284 4.82694 19.4171 4.90233C19.4058 4.97772 18.4832 7.80482 18.4832 7.80482L16.2856 11.5545L15.0068 13.1848L13.5377 14.7397L11.8489 16.0995L10.3657 16.811L9.36958 17.0202L8.91253 17.5479L8.09833 16.9731L8.30565 16.435L8.41496 16.1721Z" fill="#EF9D30"/>
<path d="M17.8386 1.20734C18.263 1.72698 18.5633 2.33664 18.7164 2.98986C18.8696 3.64308 18.8717 4.32264 18.7225 4.9768C18.1722 7.13858 12.4577 16.4671 9.70789 16.8072L10.6427 16.7818L12.0817 15.961L13.5254 14.7359L15.5138 12.6571L17.9168 8.91588L19.1419 6.03225L19.5792 4.06741L19.2267 2.3476L18.2476 1.31759L17.8386 1.20734Z" fill="#CE8329"/>
<path d="M13.6498 4.97491C13.6498 4.97491 12.5359 6.38846 15.6448 6.99346L14.8909 6.51568L13.892 5.85603L13.7431 5.36223L13.6498 4.97491Z" fill="#CE8329"/>
<path d="M12.4247 11.1144C12.4247 11.1144 14.9135 12.2358 15.1661 10.3549L14.4423 11.0202L13.2578 11.0522L12.4247 11.1144Z" fill="#CE8329"/>
<path d="M10.0085 15.5633C10.0085 15.5633 8.06912 14.9696 9.62026 13.3091L9.35168 14.2044L9.58162 15.0874L10.1376 15.5049L10.0085 15.5633Z" fill="#CE8329"/>
<path d="M16.2687 2.68781C16.2687 2.68781 17.3806 3.15899 15.9982 3.95152L16.7992 3.79791L17.1187 3.34746C17.1187 3.34746 17.1083 2.82068 17.1055 2.80937C17.1027 2.79806 16.5627 2.49274 16.5627 2.49274L16.0547 2.63503L16.2687 2.68781Z" fill="#CE8329"/>
<path d="M9.8841 9.8639C9.99599 9.8639 10.0867 9.77319 10.0867 9.66129C10.0867 9.54939 9.99599 9.45868 9.8841 9.45868C9.7722 9.45868 9.68149 9.54939 9.68149 9.66129C9.68149 9.77319 9.7722 9.8639 9.8841 9.8639Z" fill="#CE8329"/>
<path d="M14.1851 3.75263C14.297 3.75263 14.3877 3.66192 14.3877 3.55002C14.3877 3.43812 14.297 3.34741 14.1851 3.34741C14.0732 3.34741 13.9825 3.43812 13.9825 3.55002C13.9825 3.66192 14.0732 3.75263 14.1851 3.75263Z" fill="#CE8329"/>
<path d="M12.6122 6.13501C12.7241 6.13501 12.8149 6.0443 12.8149 5.93241C12.8149 5.82051 12.7241 5.7298 12.6122 5.7298C12.5003 5.7298 12.4096 5.82051 12.4096 5.93241C12.4096 6.0443 12.5003 6.13501 12.6122 6.13501Z" fill="#CE8329"/>
<path d="M9.80399 12.592C9.91589 12.592 10.0066 12.5013 10.0066 12.3894C10.0066 12.2775 9.91589 12.1868 9.80399 12.1868C9.69209 12.1868 9.60138 12.2775 9.60138 12.3894C9.60138 12.5013 9.69209 12.592 9.80399 12.592Z" fill="#CE8329"/>
<path d="M11.2138 7.1273C11.2929 7.1273 11.357 7.06317 11.357 6.98406C11.357 6.90495 11.2929 6.84082 11.2138 6.84082C11.1347 6.84082 11.0705 6.90495 11.0705 6.98406C11.0705 7.06317 11.1347 7.1273 11.2138 7.1273Z" fill="#CE8329"/>
<path d="M9.23668 11.2964C9.31579 11.2964 9.37992 11.2323 9.37992 11.1532C9.37992 11.0741 9.31579 11.0099 9.23668 11.0099C9.15757 11.0099 9.09344 11.0741 9.09344 11.1532C9.09344 11.2323 9.15757 11.2964 9.23668 11.2964Z" fill="#CE8329"/>
<path d="M12.7828 4.77323C12.8619 4.77323 12.926 4.7091 12.926 4.62999C12.926 4.55089 12.8619 4.48676 12.7828 4.48676C12.7037 4.48676 12.6396 4.55089 12.6396 4.62999C12.6396 4.7091 12.7037 4.77323 12.7828 4.77323Z" fill="#CE8329"/>
<path d="M11.0979 8.63036C11.2498 8.63036 11.373 8.50716 11.373 8.35519C11.373 8.20321 11.2498 8.08002 11.0979 8.08002C10.9459 8.08002 10.8227 8.20321 10.8227 8.35519C10.8227 8.50716 10.9459 8.63036 11.0979 8.63036Z" fill="#CE8329"/>
<path d="M8.81829 13.5844C8.97026 13.5844 9.09346 13.4612 9.09346 13.3092C9.09346 13.1573 8.97026 13.0341 8.81829 13.0341C8.66632 13.0341 8.54312 13.1573 8.54312 13.3092C8.54312 13.4612 8.66632 13.5844 8.81829 13.5844Z" fill="#CE8329"/>
<path d="M8.31885 15.8027C8.31885 15.8027 6.05718 11.3217 13.3501 3.09675C14.1587 2.18548 15.4987 1.07443 16.7002 1.00658C17.9253 0.936847 19.2446 1.40709 19.4604 3.62636C19.8788 7.87548 13.3351 16.6762 9.81062 16.9137C9.66893 16.9232 9.52964 16.955 9.39786 17.0079C9.33633 17.0324 9.28305 17.0739 9.24426 17.1276L8.97851 17.4933C8.96373 17.5135 8.94471 17.5304 8.92276 17.5425C8.90081 17.5547 8.87646 17.562 8.85143 17.5638C8.82639 17.5656 8.80126 17.5619 8.7778 17.5529C8.75434 17.544 8.73311 17.5301 8.71559 17.5121C8.58462 17.3682 8.42381 17.2547 8.24441 17.1794C8.20096 17.1658 8.16242 17.1399 8.13347 17.1047C8.10453 17.0696 8.08642 17.0268 8.08138 16.9816C8.07445 16.9144 8.08309 16.8466 8.10663 16.7834C8.13016 16.7201 8.16796 16.6631 8.21708 16.6169L8.28399 16.5547C8.33352 16.5088 8.37013 16.4506 8.39015 16.3861C8.41016 16.3216 8.41287 16.253 8.39801 16.1871L8.31885 15.8027Z" stroke="#641926" stroke-width="0.3" stroke-miterlimit="10"/>
<path d="M10.8208 15.0968C10.8208 15.0968 10.2554 15.4672 10.2008 15.4304C10.1461 15.3937 9.47043 14.7811 9.47043 14.7811L9.48268 13.8548L9.87282 13.3195L11.2147 13.2922C11.4652 13.3176 11.7173 13.323 11.9686 13.3082C12.0485 13.1153 12.1174 12.918 12.175 12.7173L10.9179 11.9427L10.5042 11.2303C10.542 11.0308 10.6077 10.8376 10.6993 10.6564C10.7794 10.5933 11.3241 10.1202 11.3693 10.1108C11.8883 10.1059 12.407 10.1346 12.9223 10.1965C13.203 10.2383 13.487 10.2528 13.7704 10.2399L13.8204 9.93171L12.0864 8.72737L11.947 7.67569L12.83 6.94442C12.83 6.94442 14.759 7.48533 14.7986 7.52397C15.0974 7.60749 15.4029 7.66488 15.7117 7.69548C15.772 7.68229 15.8917 7.12535 15.8917 7.12535L14.5941 6.15283L13.8864 5.61003L13.8194 4.68462L14.661 4.05607L16.6578 3.94016L17.2676 3.32762L16.8981 2.44839L16.0594 2.55959L15.6062 2.71602L15.4648 2.33908L16.6305 1.61157L17.6473 2.05825L18.2976 2.92711L18.159 3.92696L17.5079 4.64128L16.099 4.94849L15.4054 5.07665L15.3216 5.57987L15.7928 6.17262L16.9453 6.67019L17.1677 7.51832L16.851 8.33535L15.5817 8.86495L13.353 8.13556L13.2286 8.39566L13.7591 9.06756L14.9041 9.67822L15.0323 10.2945L14.6836 10.8053L13.8402 11.1992L12.4549 11.0164L11.9441 11.0437L11.7264 11.4329C11.7264 11.4329 12.2382 11.8598 12.2919 11.8805C12.3456 11.9013 12.4313 11.9455 12.4313 11.9455L12.9091 12.364L13.3313 12.8879L13.1824 13.5297L12.5227 14.0574L10.9264 14.2157L10.3176 14.0753L10.1207 14.3354L10.3091 14.6266L10.818 14.7397L10.8943 14.9592L10.8208 15.0968Z" fill="#C92F29"/>
<path d="M16.4807 7.20739C16.3921 7.59847 16.1687 8.22138 15.6429 8.2374C15.63 8.23782 15.6178 8.24284 15.6083 8.25156C15.5988 8.26028 15.5928 8.2721 15.5913 8.28489C15.5898 8.29768 15.593 8.31057 15.6002 8.32123C15.6074 8.33188 15.6182 8.33959 15.6307 8.34294C15.8335 8.39341 16.0478 8.36863 16.2338 8.27321C16.4089 8.16369 16.5473 8.00435 16.6313 7.81562C16.7152 7.6269 16.7409 7.4174 16.705 7.21399C16.6992 7.18897 16.6854 7.16655 16.6655 7.15025C16.6457 7.13396 16.621 7.12471 16.5954 7.12395C16.5697 7.1232 16.5445 7.13098 16.5238 7.14608C16.503 7.16118 16.4879 7.18275 16.4807 7.20739Z" fill="#EA6565"/>
<path d="M12.9364 7.73506C12.7282 7.8293 12.4087 8.01777 12.4728 8.27786C12.4803 8.30802 12.4323 8.32404 12.4153 8.29765C12.3872 8.2526 12.3687 8.20224 12.3609 8.1497C12.3531 8.09717 12.3562 8.0436 12.3701 7.99233C12.4142 7.88683 12.4877 7.79617 12.5817 7.73105C12.6757 7.66593 12.7864 7.62906 12.9006 7.6248C12.9741 7.61821 13.0024 7.70585 12.9364 7.73506Z" fill="#EA6565"/>
<path d="M9.93972 14.8527C10.0716 14.9696 10.3063 15.1354 10.4693 15.0054C10.4882 14.9903 10.5155 15.0186 10.5014 15.0393C10.4788 15.0734 10.4494 15.1025 10.415 15.1248C10.3806 15.147 10.342 15.1618 10.3016 15.1684C10.2132 15.1712 10.1259 15.1486 10.0499 15.1033C9.97393 15.0581 9.91249 14.9921 9.87281 14.913C9.84454 14.8603 9.89731 14.8131 9.93972 14.8527Z" fill="#EA6565"/>
<path d="M17.5606 3.20233C17.5936 2.97617 17.6068 2.60582 17.3524 2.51912C17.3231 2.5097 17.3354 2.46069 17.3665 2.46069C17.4197 2.46139 17.4723 2.47295 17.5209 2.49466C17.5695 2.51638 17.6132 2.54779 17.6492 2.58697C17.7142 2.68113 17.751 2.79185 17.7553 2.90617C17.7597 3.02049 17.7314 3.13368 17.6737 3.23249C17.6717 3.23992 17.6683 3.24688 17.6636 3.25298C17.659 3.25908 17.6531 3.2642 17.6465 3.26806C17.6398 3.27191 17.6325 3.27441 17.6249 3.27542C17.6173 3.27643 17.6095 3.27593 17.6021 3.27395C17.5947 3.27197 17.5877 3.26855 17.5816 3.26388C17.5755 3.25921 17.5704 3.25338 17.5665 3.24673C17.5627 3.24008 17.5602 3.23274 17.5592 3.22512C17.5581 3.2175 17.5586 3.20976 17.5606 3.20233Z" fill="#EA6565"/>
<path d="M11.7227 10.7318C11.4456 10.9118 11.0291 11.2577 11.1714 11.6487C11.1742 11.6586 11.1734 11.6691 11.1693 11.6784C11.1653 11.6878 11.158 11.6955 11.149 11.7001C11.1399 11.7048 11.1294 11.7062 11.1194 11.704C11.1094 11.7019 11.1005 11.6963 11.0941 11.6883C10.9948 11.5558 10.9502 11.3901 10.9697 11.2256C11.0056 11.0607 11.0894 10.9101 11.2107 10.7928C11.3319 10.6754 11.4851 10.5965 11.6511 10.566C11.6712 10.5636 11.6916 10.5677 11.7092 10.5779C11.7268 10.588 11.7407 10.6035 11.7487 10.6222C11.7568 10.6408 11.7586 10.6616 11.7539 10.6813C11.7492 10.7011 11.7383 10.7188 11.7227 10.7318Z" fill="#EA6565"/>
<path d="M13.1731 7.67131C13.2358 7.65833 13.2813 7.6222 13.2748 7.5906C13.2683 7.559 13.2121 7.54391 13.1495 7.55688C13.0868 7.56986 13.0413 7.606 13.0478 7.6376C13.0543 7.66919 13.1105 7.68429 13.1731 7.67131Z" fill="#EA6565"/>
<path d="M15.1238 6.02911C15.1348 6.0044 15.1022 5.96577 15.0509 5.94282C14.9996 5.91987 14.949 5.92129 14.938 5.94599C14.9269 5.9707 14.9596 6.00933 15.0109 6.03228C15.0622 6.05523 15.1127 6.05381 15.1238 6.02911Z" fill="#EA6565"/>
<path d="M16.2115 4.4453C16.4067 4.40489 16.5572 4.33453 16.5476 4.28815C16.538 4.24178 16.372 4.23694 16.1768 4.27735C15.9816 4.31776 15.8311 4.38812 15.8407 4.4345C15.8503 4.48088 16.0163 4.48571 16.2115 4.4453Z" fill="#EA6565"/>
<path d="M11.9865 13.7821C12.1764 13.7292 12.3495 13.6284 12.4891 13.4892C12.6287 13.3501 12.7302 13.1774 12.7838 12.9877C12.7864 12.9753 12.793 12.9641 12.8026 12.9557C12.8122 12.9474 12.8243 12.9425 12.837 12.9416C12.8497 12.9407 12.8623 12.9441 12.8729 12.951C12.8835 12.958 12.8916 12.9682 12.8959 12.9802C12.9732 13.3081 12.8629 13.898 11.995 13.8688C11.9893 13.8694 11.9836 13.8688 11.9781 13.8671C11.9726 13.8655 11.9675 13.8628 11.9631 13.8591C11.9587 13.8555 11.955 13.851 11.9523 13.846C11.9496 13.8409 11.948 13.8354 11.9474 13.8297C11.9469 13.824 11.9474 13.8183 11.9491 13.8128C11.9508 13.8073 11.9535 13.8022 11.9571 13.7978C11.9607 13.7934 11.9652 13.7897 11.9703 13.787C11.9753 13.7844 11.9808 13.7827 11.9865 13.7821Z" fill="#EA6565"/>
<path d="M14.416 5.44509C14.416 5.30038 14.4577 5.15874 14.5361 5.03709C14.6145 4.91544 14.7262 4.81892 14.8579 4.75905C14.9079 4.73172 14.8824 4.68648 14.8259 4.7025C14.4998 4.79674 14.0013 5.07945 14.333 5.4743C14.3538 5.49975 14.4216 5.47524 14.416 5.44509Z" fill="#EA6565"/>
<path d="M10.7369 13.7502C10.8004 13.7502 10.8519 13.7215 10.8519 13.6862C10.8519 13.6508 10.8004 13.6221 10.7369 13.6221C10.6735 13.6221 10.622 13.6508 10.622 13.6862C10.622 13.7215 10.6735 13.7502 10.7369 13.7502Z" fill="#EA6565"/>
<path d="M12.5802 10.3548C12.5802 10.3548 14.1577 11.121 14.1144 10.1522L13.6762 10.3972L12.5152 10.1607L12.5802 10.3548Z" fill="#912323"/>
<path d="M17.9498 2.69621C18.0349 3.13629 17.9446 3.5922 17.6981 3.96655C17.4516 4.34091 17.0684 4.60402 16.6305 4.69968H17.5446L18.0346 4.08243L18.2561 3.22205L17.9602 2.64532L17.9498 2.69621Z" fill="#912323"/>
<path d="M9.4742 14.554C9.50854 14.2528 9.64352 13.972 9.8573 13.757C10.0711 13.5421 10.3511 13.4055 10.6522 13.3695L10.1037 13.2159L9.47043 13.7219L9.4742 14.554Z" fill="#912323"/>
<path d="M12.1354 8.57189C12.1354 8.57189 11.7585 7.48912 13.2559 7.12725L12.5143 7.11688L11.9489 7.67288V8.36929L12.1354 8.57189Z" fill="#912323"/>
<path d="M15.7786 2.69622C15.7345 2.71942 15.6842 2.72815 15.6349 2.72118C15.5855 2.71422 15.5396 2.6919 15.5037 2.6574C15.4677 2.6229 15.4435 2.57796 15.4345 2.52895C15.4255 2.47993 15.4321 2.42933 15.4535 2.3843L15.4582 2.37299C15.5875 2.18652 15.7583 2.0326 15.9571 1.92334C16.156 1.81407 16.3775 1.75245 16.6042 1.74332C16.8309 1.73418 17.0567 1.77778 17.2637 1.8707C17.4707 1.96361 17.6533 2.10329 17.7972 2.27875C17.9751 2.45051 18.1068 2.66435 18.1802 2.9005C18.2535 3.13665 18.2662 3.38748 18.217 3.62982C18.1678 3.87216 18.0583 4.09818 17.8986 4.28699C17.7389 4.4758 17.5342 4.6213 17.3034 4.71006C16.655 4.93057 14.9672 4.67801 15.3527 5.61567C15.707 6.47699 17.0395 6.06329 17.1064 7.28836C17.102 7.54687 17.0331 7.8002 16.9061 8.02539C16.7791 8.25057 16.5979 8.4405 16.3789 8.57797C16.1599 8.71544 15.9101 8.79609 15.6521 8.81264C15.3941 8.82918 15.136 8.78108 14.9013 8.6727C13.941 8.33156 13.3737 7.88111 13.2154 8.41072C13.0448 8.98368 14.8004 9.25885 15.0191 9.93264C15.2 10.4981 14.6289 11.4451 12.9562 11.0465C11.3269 10.6583 11.6803 11.6119 12.0704 11.7919C12.6537 12.0643 13.794 12.707 13.0326 13.7313C12.2513 14.7839 10.2111 13.7181 10.1433 14.325C10.0754 14.9319 10.5786 14.7481 10.7087 14.7217C10.7593 14.7251 10.8077 14.7444 10.8467 14.7769C10.8858 14.8093 10.9136 14.8532 10.9262 14.9024C10.9389 14.9516 10.9357 15.0035 10.9171 15.0508C10.8985 15.098 10.8655 15.1382 10.8227 15.1656C10.7357 15.2563 10.6287 15.3253 10.5101 15.3671C10.3915 15.4088 10.2648 15.4221 10.1402 15.4059C10.0156 15.3896 9.89651 15.3443 9.79261 15.2736C9.6887 15.2029 9.60287 15.1088 9.54204 14.9988C9.07085 14.2826 9.5034 13.1508 10.41 13.2319C11.3165 13.3129 12.0497 13.4477 12.1477 13.0604C12.2749 12.56 11.7839 12.7437 10.851 11.9097C10.1197 11.2567 10.8444 10.1541 11.7104 10.1004C12.6971 10.0391 13.9664 10.6658 13.9655 10.0674C13.9655 9.55287 12.1552 9.35309 11.9394 8.25806C11.7387 7.23842 12.8752 6.74462 13.8581 7.19601C14.841 7.64741 15.7767 7.94991 15.8889 7.33266C16.0208 6.60327 14.431 6.52505 13.9005 5.67315C13.3991 4.86649 14.2614 4.24924 14.824 4.10317C15.5063 3.92695 16.7719 4.17573 17.0923 3.51891C17.3703 2.94124 16.9142 2.09782 15.7786 2.69622Z" stroke="#641926" stroke-width="0.3" stroke-miterlimit="10"/>
</svg>
