<svg width="24" height="24" viewBox="0 0 24 24" fill="none" xmlns="http://www.w3.org/2000/svg">
<path d="M11.0202 23.1045V15.5043H11.753L11.7718 23.2498L11.4906 23.4672L11.1158 23.3538L11.0202 23.1045Z" fill="#D88D4A"/>
<path d="M11.4185 15.614V22.9125C11.4187 22.9779 11.4036 23.0424 11.3745 23.101C11.3454 23.1596 11.303 23.2105 11.2508 23.2499L11.1149 23.3539L11.396 23.4916L11.7709 23.2499V15.5044L11.4185 15.614Z" fill="#BC753B"/>
<path d="M11.0202 15.5793V23.1045C11.0202 23.204 11.0597 23.2993 11.13 23.3696C11.2003 23.4399 11.2956 23.4794 11.3951 23.4794C11.4945 23.4794 11.5898 23.4399 11.6601 23.3696C11.7304 23.2993 11.7699 23.204 11.7699 23.1045L11.7512 15.5043" stroke="#641926" stroke-width="0.3" stroke-miterlimit="10" stroke-linecap="round"/>
<path d="M5.28773 9.80076L5.15278 8.22262L5.62135 6.81691L7.08047 5.38308L7.5781 4.12263L8.50118 3.35886L9.06346 3.00275L9.57983 2.06561L10.1927 1.74979L10.6566 1.67295L11.6275 1.04413H12.365L13.2403 1.79384L14.2533 2.06186L14.7219 2.78159L14.825 3.10209L15.9749 4.05797L16.3197 4.90795L16.2532 5.94443L17.2512 6.85627L17.9222 8.11672L18 9.24691L17.3375 10.9712L17.016 12.0677L16.4069 13.0105L15.6206 13.3319C15.6206 13.3319 15.0518 14.2569 14.989 14.315C14.9262 14.3731 13.9984 14.8772 13.9797 14.8866C13.961 14.896 13.2403 14.9616 13.2403 14.9616L12.1495 15.313L11.1973 15.5351L10.1937 15.2633L9.04753 14.4527L7.95764 14.5961C7.95764 14.5961 6.43853 14.09 6.40011 14.0638C6.36169 14.0376 5.60917 13.2129 5.60917 13.2129L5.14716 11.6732L5.28773 9.80076Z" fill="#F95A97"/>
<path d="M11.7718 1.14819C11.7718 1.14819 13.2459 2.21184 13.4896 3.01216C13.5473 3.19357 13.6675 3.34863 13.8288 3.4498C14.4782 3.86496 15.9036 4.94923 15.495 6.26122C15.4708 6.33958 15.4713 6.42353 15.4967 6.50156C15.522 6.57958 15.5709 6.64785 15.6365 6.69699C16.1467 7.05354 16.5325 7.5608 16.7399 8.14766C16.9473 8.73451 16.9659 9.37155 16.793 9.96948C16.6823 10.5753 16.4315 11.1469 16.0607 11.6386C15.6899 12.1303 15.2093 12.5285 14.6572 12.8015C14.5723 12.8329 14.4987 12.889 14.4458 12.9624C14.3929 13.0358 14.3631 13.1234 14.3602 13.2139C14.3936 13.5929 14.2969 13.972 14.086 14.2887C13.8751 14.6054 13.5626 14.8407 13.2 14.956L14.213 14.9204L15.3648 14.0011L15.5803 13.3254L16.5175 12.9421L17.0882 11.6826L17.3824 10.7454L17.8304 9.76238L17.7114 7.79438L16.9354 6.52925L16.2129 5.94166V4.66246L15.3423 3.47042L14.7425 2.98311L14.3677 2.29993L13.7042 1.78826H13.2L12.3247 1.03854L11.7259 1.00012L11.7718 1.14819Z" fill="#CE3875"/>
<path d="M9.89093 10.708C9.92585 10.9052 10.0175 11.088 10.1546 11.234C10.2917 11.3799 10.4683 11.4828 10.663 11.5301C10.8576 11.5773 11.0618 11.5668 11.2505 11.4998C11.4393 11.4329 11.6044 11.3124 11.7258 11.1531L11.2076 11.2834L10.8084 11.3509L10.1824 11.0304L9.89093 10.708Z" fill="#CE3875"/>
<path d="M11.4878 11.094C11.6446 11.2319 11.838 11.3212 12.0447 11.351C12.2513 11.3809 12.4621 11.3499 12.6515 11.262C12.8408 11.1741 13.0005 11.033 13.111 10.8559C13.2216 10.6788 13.2782 10.4734 13.274 10.2646L12.9357 10.7079L12.6546 11.0219L11.9358 11.1671L11.4878 11.094Z" fill="#CE3875"/>
<path d="M8.14689 6.09344C7.95678 6.17949 7.79582 6.31902 7.68367 6.495C7.57151 6.67099 7.51301 6.87581 7.51529 7.08448C7.51758 7.29315 7.58056 7.49664 7.69654 7.67012C7.81252 7.8436 7.97649 7.97957 8.16845 8.06144L7.90324 7.57131L7.73268 7.18521L7.89574 6.47111L8.14689 6.09344Z" fill="#CE3875"/>
<path d="M14.9871 7.19083C15.0931 7.01025 15.144 6.80266 15.1336 6.59354C15.1233 6.38443 15.052 6.18289 14.9287 6.01369C14.8054 5.84449 14.6353 5.71499 14.4394 5.64108C14.2436 5.56718 14.0303 5.5521 13.826 5.59769L14.3264 5.84228L14.69 6.05783L14.9712 6.7335L14.9871 7.19083Z" fill="#CE3875"/>
<path d="M8.48057 7.57892C8.48057 7.57892 6.79371 8.60977 8.63894 9.34074L8.23691 9.0596L8.06635 8.6735L8.22941 7.95846L8.48057 7.57892Z" fill="#CE3875"/>
<path d="M9.0072 3.1405C9.17067 2.81846 9.39743 2.53271 9.67391 2.30036C9.95039 2.068 10.2709 1.89381 10.6163 1.78821H10.0221L9.30709 2.29989L9.02032 2.99993L9.0072 3.1405Z" fill="#FF83B6"/>
<path d="M9.19092 3.26794C8.22274 3.77893 7.49067 4.64573 7.14889 5.68576L7.12921 4.77205L7.82551 3.68216L8.5949 3.26794H9.19092Z" fill="#FF83B6"/>
<path d="M7.02422 5.47113C7.02422 5.47113 4.54642 8.53463 5.75252 10.899L5.10683 9.64046L5 8.59649L5.37486 7.32385L6.13769 6.10088L6.93613 5.44489L7.02422 5.47113Z" fill="#FF83B6"/>
<path d="M5.29145 10.2009C5.29145 10.2009 5.19024 14.7929 9.0878 14.5033L8.23219 14.7076L6.97643 14.3674L5.97087 13.8782L5.2952 12.8342L5.07684 11.5803L5.10683 10.2683L5.29145 10.2009Z" fill="#FF83B6"/>
<path opacity="0.56" d="M14.9552 9.95931C15.3648 9.38297 15.5438 8.80663 15.6965 8.91534C15.8021 9.15516 15.8419 9.41883 15.8115 9.67912C15.7812 9.93941 15.682 10.1869 15.5241 10.396C15.3842 10.61 15.1871 10.7803 14.9551 10.8877C14.7231 10.9951 14.4657 11.0351 14.2121 11.0033C14.0603 10.8946 14.5448 10.5366 14.9552 9.95931Z" fill="#FC92C3"/>
<path opacity="0.56" d="M8.18253 11.7912C8.61362 12.1661 9.06344 12.361 8.96317 12.4753C8.76103 12.5407 8.54512 12.5509 8.33771 12.5049C8.13031 12.459 7.93893 12.3585 7.78331 12.2139C7.6228 12.0832 7.5021 11.9101 7.43485 11.7144C7.36761 11.5186 7.35652 11.3079 7.40283 11.1062C7.5031 10.9928 7.75145 11.4126 8.18253 11.7912Z" fill="#FC92C3"/>
<path opacity="0.56" d="M10.9143 5.50313C10.3314 5.76459 9.92278 6.11789 9.85905 5.9717C9.79533 5.82551 10.1093 5.20606 10.6922 4.94085C10.8931 4.83884 11.1179 4.79325 11.3427 4.80893C11.5674 4.82461 11.7838 4.90097 11.9686 5.02988C12.0332 5.17326 11.5 5.24261 10.9143 5.50313Z" fill="#FC92C3"/>
<path d="M9.14027 14.4854L8.37369 14.5257L8.6389 14.2774L9.00719 14.4058L9.14027 14.4854Z" fill="#F95A97"/>
<path d="M9.76816 14.9635C10.2961 15.1844 10.867 15.2834 11.4385 15.2531C12.01 15.2227 12.5672 15.0638 13.0688 14.7882C12.8131 15.0076 12.5415 15.2078 12.2563 15.387C12.2132 15.3561 10.8327 15.4639 10.8327 15.4639L10.129 15.2493L9.76816 14.9635Z" fill="#CE3875"/>
<path d="M10.3201 2.29992C10.3201 2.29992 11.7258 -0.624896 13.453 2.29992" stroke="#641926" stroke-width="0.3" stroke-miterlimit="10" stroke-linecap="round"/>
<path d="M9.0072 3.14042C9.02689 2.73253 9.20714 2.34899 9.5086 2.07351C9.81006 1.79803 10.2083 1.65299 10.6163 1.67005" stroke="#641926" stroke-width="0.3" stroke-miterlimit="10" stroke-linecap="round"/>
<path d="M9.36051 3.14044C8.78188 3.15628 8.23056 3.39 7.81685 3.79485C7.40314 4.1997 7.15754 4.74583 7.12918 5.32398C7.11137 5.48517 7.06358 5.65104 7.04202 5.83191" stroke="#641926" stroke-width="0.3" stroke-miterlimit="10" stroke-linecap="round"/>
<path d="M7.12918 5.3241C7.12918 5.3241 3.64864 7.41392 5.75252 10.8991" stroke="#641926" stroke-width="0.3" stroke-miterlimit="10" stroke-linecap="round"/>
<path d="M5.30551 9.97217C5.19399 9.84472 3.98508 15.1508 9.19089 14.5407" stroke="#641926" stroke-width="0.3" stroke-miterlimit="10" stroke-linecap="round"/>
<path d="M9.0072 14.3074C9.22339 14.6158 9.49957 14.8774 9.81922 15.0765C10.1389 15.2757 10.4954 15.4084 10.8675 15.4666C11.2396 15.5247 11.6196 15.5073 11.9848 15.4152C12.35 15.3231 12.6928 15.1582 12.9929 14.9306C13.2004 14.7514 13.379 14.5412 13.5223 14.3074" stroke="#641926" stroke-width="0.3" stroke-miterlimit="10" stroke-linecap="round"/>
<path d="M12.9929 14.9316C13.5326 15.0102 14.083 14.9026 14.5534 14.6264C15.0237 14.3503 15.3859 13.9221 15.5803 13.4125" stroke="#641926" stroke-width="0.3" stroke-miterlimit="10" stroke-linecap="round"/>
<path d="M14.4745 13.4182C14.4745 13.4182 17.0647 14.1248 17.2072 10.7464" stroke="#641926" stroke-width="0.3" stroke-miterlimit="10" stroke-linecap="round"/>
<path d="M16.2091 5.93982C16.621 6.20183 16.9754 6.54467 17.251 6.9476C17.5265 7.35054 17.7175 7.80518 17.8123 8.28404C17.9071 8.76289 17.9037 9.25599 17.8024 9.73352C17.7012 10.211 17.5041 10.6631 17.2231 11.0622" stroke="#641926" stroke-width="0.3" stroke-miterlimit="10" stroke-linecap="round"/>
<path d="M15.8502 6.69218C16.059 6.39068 16.1951 6.04488 16.2478 5.68193C16.3004 5.31898 16.2683 4.94876 16.1537 4.60034C16.0392 4.25192 15.8455 3.93478 15.5878 3.67384C15.3301 3.41289 15.0154 3.21523 14.6685 3.09638C14.5195 3.03265 14.377 2.93238 14.213 2.85272" stroke="#641926" stroke-width="0.3" stroke-miterlimit="10" stroke-linecap="round"/>
<path d="M14.6685 3.09648C14.6685 3.09648 14.8887 1.83509 13.2 1.78448" stroke="#641926" stroke-width="0.3" stroke-miterlimit="10" stroke-linecap="round"/>
<path d="M8.6389 5.83203C8.45028 5.90097 8.28204 6.01626 8.14968 6.16729C8.01732 6.31832 7.9251 6.50023 7.8815 6.69626C7.83791 6.89229 7.84435 7.09614 7.90023 7.28903C7.95611 7.48192 8.05963 7.65765 8.20125 7.80002" stroke="#641926" stroke-width="0.3" stroke-miterlimit="10" stroke-linecap="round"/>
<path d="M8.31373 7.57892C8.31373 7.57892 7.39252 8.95745 8.87601 9.34074" stroke="#641926" stroke-width="0.3" stroke-miterlimit="10" stroke-linecap="round"/>
<path d="M12.9929 4.11987C12.9929 4.11987 14.6666 4.21359 14.3049 5.68583" stroke="#641926" stroke-width="0.3" stroke-miterlimit="10" stroke-linecap="round"/>
<path d="M13.7041 5.68582C13.9155 5.65449 14.1314 5.68272 14.3276 5.76734C14.5239 5.85197 14.6926 5.98963 14.8149 6.16487C14.9371 6.34011 15.0081 6.54598 15.0198 6.75934C15.0316 6.9727 14.9835 7.1851 14.8812 7.37268" stroke="#641926" stroke-width="0.3" stroke-miterlimit="10" stroke-linecap="round"/>
<path d="M9.94061 10.5692C9.9963 10.7439 10.0946 10.902 10.2266 11.0292C10.3587 11.1565 10.5203 11.2488 10.697 11.298C10.8736 11.3472 11.0597 11.3517 11.2386 11.311C11.4174 11.2703 11.5832 11.1857 11.7212 11.0649" stroke="#641926" stroke-width="0.3" stroke-miterlimit="10" stroke-linecap="round"/>
<path d="M11.3126 10.7463C11.3604 10.8184 12.4278 11.7443 13.2 10.2009" stroke="#641926" stroke-width="0.3" stroke-miterlimit="10" stroke-linecap="round"/>
</svg>
