<svg width="24" height="24" viewBox="0 0 24 24" fill="none" xmlns="http://www.w3.org/2000/svg">
<path d="M23.1257 10.5322L22.5725 11.9151L21.7355 11.8109L20.1452 10.6806L19.5386 10.346L18.4692 10.2658L17.5334 10.8281L16.2354 11.1563L15.7873 11.1683L14.9512 12.4673L13.8855 12.9052L12.5948 12.7208L11.2239 14.7066L11.0036 15.4653L10.0135 16.3135L9.2326 16.2434L8.803 16.1402L9.77837 18.4292L11.0036 19.6434L11.4525 20.3699L11.2451 21.1489L11.164 21.206L10.6108 21.5932L8.54855 21.4208L5.21034 20.038L3.02082 18.4385L1.79376 15.4054L1.68221 13.132C1.29292 12.6765 1.07901 12.0971 1.07901 11.4979C1.07901 10.8988 1.29292 10.3193 1.68221 9.86384C2.6205 8.68566 3.74088 7.66487 5.00107 6.83999L5.65193 5.42303L7.71238 3.91756L11.5484 2.25076L13.5923 2L14.576 2.38259L14.7751 2.78915L15.8307 2.28763L16.8687 2.62597L20.6246 4.88279L20.9011 5.88675L22.5246 8.49573L23.1257 10.5322Z" fill="#D3884A"/>
<path opacity="0.75" d="M16.8687 2.62597C16.8687 2.62597 15.2462 2.53839 15.0249 3.16621C15.2572 2.85645 10.0282 1.21177 5.38827 6.9958C5.17807 7.20415 2.07679 10.0814 1.68221 10.9305C1.42961 11.4762 1.6776 12.9753 2.09246 13.0868C2.02573 14.8121 2.44072 16.5218 3.29093 18.0245C3.54069 18.3921 3.86559 18.7026 4.24418 18.9354C5.47769 19.7006 8.94589 21.6762 11.1658 21.206L10.6127 21.5932L8.54855 21.4208L5.21034 20.038L3.02082 18.4385L1.79376 15.4054L1.68221 13.132C1.29292 12.6765 1.07901 12.0971 1.07901 11.4979C1.07901 10.8988 1.29292 10.3193 1.68221 9.86384C2.6205 8.68566 3.74088 7.66487 5.00107 6.83999L5.65193 5.42303L7.71238 3.91756L11.5484 2.25076L13.5923 2L14.576 2.38259L14.7751 2.78915L15.8307 2.28763L16.8687 2.62597Z" fill="#F4BA92"/>
<path opacity="0.36" d="M3.44211 15.2441L3.62649 16.6482C3.95335 17.4259 4.49147 18.0965 5.17989 18.5842L7.83498 19.9947C7.95263 20.0666 8.08348 20.1142 8.21982 20.1348C8.35616 20.1554 8.49525 20.1486 8.6289 20.1147C8.76255 20.0807 8.88807 20.0204 8.99807 19.9373C9.10808 19.8541 9.20035 19.7498 9.26946 19.6305C9.3032 19.5715 9.3146 19.5024 9.30156 19.4357C9.28853 19.369 9.25194 19.3092 9.19847 19.2673L8.1475 18.4459C7.92353 18.2706 7.73857 18.0505 7.60444 17.7997C7.47031 17.5489 7.38995 17.2729 7.36849 16.9893L7.32516 16.414C7.29792 16.0538 7.15891 15.7112 6.92753 15.4339C6.69614 15.1565 6.38394 14.9584 6.0345 14.867L4.3677 14.4319C4.25014 14.4013 4.12688 14.4 4.00868 14.428C3.89049 14.456 3.78095 14.5126 3.68965 14.5927C3.59834 14.6728 3.52804 14.7741 3.48489 14.8876C3.44174 15.0012 3.42705 15.1236 3.44211 15.2441Z" fill="#F4BA92"/>
<path opacity="0.36" d="M4.25338 10.7933L5.6178 9.17716C5.68066 9.102 5.75787 9.04011 5.84491 8.99512C5.93196 8.95013 6.02709 8.92294 6.12476 8.91513C6.22244 8.90732 6.32069 8.91905 6.41377 8.94963C6.50686 8.98022 6.59292 9.02905 6.66693 9.09327L10.4679 12.3568C10.6062 12.4743 10.6963 12.6387 10.7209 12.8185C10.7456 12.9983 10.7031 13.1808 10.6016 13.3313L10.3038 13.7756C10.2083 13.9203 10.0647 14.0267 9.89851 14.0761C9.73226 14.1255 9.55393 14.1148 9.39484 14.0457L4.52719 11.9521C4.4203 11.907 4.32556 11.8373 4.25066 11.7487C4.17576 11.6601 4.12283 11.5551 4.09615 11.4422C4.06947 11.3293 4.06981 11.2117 4.09713 11.0989C4.12445 10.9861 4.17798 10.8814 4.25338 10.7933Z" fill="#F4BA92"/>
<path opacity="0.36" d="M8.33377 6.16331C9.03902 5.50692 10.6127 5.20453 11.9292 4.34348C13.1065 3.57645 13.1194 4.6053 13.4605 5.60741C14.3012 8.08272 14.4958 11.692 13.3406 11.3232C12.1421 10.9452 8.26462 7.23088 8.26462 7.23088C8.14099 7.07634 8.07954 6.88119 8.09233 6.6837C8.10512 6.4862 8.19123 6.30061 8.33377 6.16331Z" fill="#F4BA92"/>
<path opacity="0.36" d="M16.1192 5.15122C16.1927 4.95537 16.3402 4.7962 16.5298 4.70793C16.7195 4.61966 16.9362 4.60934 17.1333 4.6792C17.9889 4.97974 19.3524 5.53012 19.4593 6.02334C19.616 6.74519 17.7999 9.63351 17.5132 9.6962C17.2264 9.75889 16.5083 9.91561 16.3202 9.60401C15.7365 8.18849 15.6654 6.61357 16.1192 5.15122Z" fill="#F4BA92"/>
<path opacity="0.36" d="M20.1553 8.90229C20.2789 8.78603 20.3907 8.65788 20.4891 8.5197C20.531 8.46127 20.5866 8.41396 20.651 8.38186C20.7154 8.34976 20.7866 8.33384 20.8585 8.33547C20.9304 8.33711 21.0009 8.35625 21.0637 8.39124C21.1266 8.42623 21.1799 8.47602 21.2192 8.53629C21.6746 9.22864 22.2554 10.2556 21.8691 10.488C21.8371 10.5056 21.8017 10.5161 21.7653 10.5188C21.7288 10.5215 21.6922 10.5163 21.658 10.5035C21.6237 10.4907 21.5927 10.4707 21.5669 10.4448C21.5411 10.4188 21.5213 10.3877 21.5087 10.3534C21.3955 10.0933 21.2231 9.86322 21.0053 9.68155C20.7874 9.49989 20.5302 9.37163 20.254 9.307C20.2135 9.29512 20.1768 9.2728 20.1477 9.24228C20.1185 9.21175 20.0979 9.1741 20.0879 9.13309C20.0779 9.09209 20.0789 9.04918 20.0907 9.00867C20.1026 8.96816 20.1248 8.93147 20.1553 8.90229Z" fill="#F4BA92"/>
<path d="M3.46149 13.0242C3.46149 13.0242 7.73635 14.5914 8.11618 16.1586C8.496 17.7259 9.59122 19.4544 10.2854 19.2009C10.9796 18.9474 10.0033 18.9502 10.0033 18.9502L8.81037 16.5707L8.33928 15.2801L6.56646 13.7691L4.10405 12.8582L3.46149 13.0242Z" fill="#AA602E"/>
<path d="M8.496 15.5668C8.496 15.5668 9.92403 16.226 10.4661 15.2211C11.0082 14.2162 11.6452 12.4821 12.0481 12.3632L12.5939 12.7172L11.5604 14.0724L11.1244 15.0515L11.0036 15.4682L10.3241 16.0499L9.82631 16.2997L9.2326 16.2463L8.496 15.5668Z" fill="#AA602E"/>
<path d="M10.219 10.4502C10.219 10.4502 12.5109 12.4203 13.1691 12.3613C13.8274 12.3023 14.9272 12.1004 15.1475 11.3537C15.3679 10.6069 14.3621 7.33969 14.6451 6.77456C14.9903 5.69144 15.1077 4.5486 14.9899 3.41791C14.7705 3.23353 15.3042 3.79497 15.3042 3.79497V4.79892L15.1411 6.77641L15.5237 9.22498L15.8067 10.6696L15.3817 11.7962L14.7769 12.5789L13.5517 12.8785C13.491 12.8923 13.428 12.8923 13.3673 12.8785L12.5985 12.7125L12.1043 12.5512L10.219 10.4502Z" fill="#AA602E"/>
<path d="M15.9348 10.7009C16.8369 10.5949 17.6895 10.2317 18.3908 9.65455C19.3262 8.42171 20.12 7.08763 20.7573 5.67745C20.7416 5.31976 20.8219 6.16422 20.8219 6.16422L20.4531 7.35716L19.4482 9.08389L18.8204 9.97813L18.1751 10.5055L17.0135 10.9922L15.9348 11.2799V10.7009Z" fill="#AA602E"/>
<path d="M18.9052 9.79108C19.8903 9.90622 20.8088 10.3468 21.5151 11.043C21.6261 11.1407 21.7589 11.2103 21.9023 11.2458C22.2121 11.3196 22.697 11.338 22.697 10.7425C22.697 9.86391 20.808 6.00943 20.808 6.00943L21.7299 6.93133L22.697 8.883L23.0916 10.1976L23.0556 11.1656L22.5882 11.7981L21.6921 12L20.9989 11.4228L20.018 10.4936L18.9052 10.2354L18.6158 10.0953L18.9052 9.79108Z" fill="#AA602E"/>
<path d="M1.87672 13.1238C1.8334 13.1355 1.7946 13.16 1.76534 13.194C1.73608 13.228 1.71772 13.27 1.71263 13.3146C1.62044 14.1443 1.56512 18.0071 4.32069 19.5541C7.39801 21.2799 10.0881 22.1446 11.0036 21.3979C11.919 20.6511 11.2801 19.7385 10.4117 19.1494C9.88254 18.7926 9.30542 17.7914 8.77256 16.0453C8.70204 15.8149 8.5878 15.6001 8.43607 15.4129C7.69021 14.4271 6.66958 13.6839 5.50249 13.2766C4.3354 12.8693 3.07395 12.8162 1.87672 13.1238Z" stroke="#641926" stroke-width="0.4" stroke-miterlimit="10"/>
<path d="M1.87672 13.1238C1.98735 13.4004 0.336218 12.7044 1.30698 10.4503C2.16527 8.45807 5.10615 6.77744 5.10615 6.77744C5.30563 7.21728 5.59624 7.60975 5.95876 7.92888C6.32127 8.24801 6.74742 8.48651 7.20901 8.62862C8.74398 9.06744 11.1649 11.5169 11.1649 11.5169C11.1649 11.5169 12.3892 12.7726 12.5773 12.7099C12.7653 12.6472 11.2285 14.1222 11.1336 15.0644C11.0386 16.0066 9.4142 16.9442 8.65732 15.7531" stroke="#641926" stroke-width="0.4" stroke-miterlimit="10"/>
<path d="M5.10614 6.77635C5.10614 6.77635 4.92176 5.64609 6.75727 4.48449C8.59278 3.32289 13.6135 0.68625 14.7778 2.78911C15.9422 4.89197 14.9346 6.08584 15.1862 7.43551C15.5084 8.62715 15.7186 9.84628 15.8141 11.077C15.6878 11.5481 15.1549 13.4002 12.58 12.7097" stroke="#641926" stroke-width="0.4" stroke-miterlimit="10"/>
<path d="M14.7751 2.78924C14.7751 2.78924 15.7301 1.67466 17.7251 3.13495C19.616 4.51781 21.0108 4.59433 20.8015 6.05462C20.4054 7.81674 19.447 9.40225 18.0709 10.5719C17.3167 11.0117 15.779 11.3196 15.8104 11.0744" stroke="#641926" stroke-width="0.4" stroke-miterlimit="10"/>
<path d="M20.8209 5.88672C20.8209 5.88672 23.1257 8.62846 23.1257 10.6345C23.1257 11.7473 22.331 12.2184 21.3989 11.7012C20.4927 11.1987 19.9386 9.85736 18.3926 10.3238" stroke="#641926" stroke-width="0.4" stroke-miterlimit="10"/>
</svg>
