<svg width="24" height="24" viewBox="0 0 24 24" fill="none" xmlns="http://www.w3.org/2000/svg">
<path d="M5.36831 14.3159C5.15739 14.02 5.05847 13.6588 5.08918 13.2967C5.1199 12.9347 5.27826 12.5953 5.53601 12.3391L7.03503 13.4109L8.66052 13.6573L9.89159 13.2929L11.1667 14.3159H13.0742L14.3268 13.736L15.8989 13.9178L17.6855 13.528C17.6855 13.528 18.2242 13.1533 18.243 13.1383C18.2617 13.1233 18.5597 12.7579 18.5597 12.7579L18.8997 13.736L18.5016 14.8603H17.2368L16.6559 15.3334L15.6965 15.2678L14.932 15.5751L14.1076 15.2247L13.3581 15.6454L12.2563 15.3559L11.6651 15.6295L10.909 15.206L10.1052 15.6454L9.33789 15.0186L8.64647 15.3559L7.93537 14.5324L7.07906 14.8247L6.12437 14.0892L5.36831 14.3159Z" fill="#D3884A"/>
<path d="M5.53601 12.3362C5.62061 12.6817 5.80126 12.9962 6.05707 13.2434C6.31288 13.4906 6.63341 13.6604 6.98162 13.7331C7.77553 14.0329 8.6451 14.0681 9.46062 13.8333C9.75949 13.704 10.3666 14.4592 11.2651 14.6269C12.1891 14.7722 13.1349 14.6806 14.0139 14.3608C14.1768 14.2346 14.372 14.1566 14.577 14.1359C14.7821 14.1152 14.9889 14.1526 15.1738 14.2437C15.585 14.4076 18.1352 14.2905 18.5063 13.0744L16.8386 13.8792H15.0585L14.2359 13.7855L12.9243 14.3608L11.2042 14.1996L9.7876 13.2899L8.55372 13.7331L6.73054 13.2899L5.53601 12.3362Z" fill="#BA703E"/>
<path d="M5.36831 14.3159L5.94262 14.0217C6.06912 13.9566 6.21136 13.9283 6.35314 13.94C6.49492 13.9518 6.63056 14.0031 6.7446 14.0882L6.99381 14.2756C7.03041 14.3027 7.07308 14.3206 7.11813 14.3276C7.16317 14.3347 7.20925 14.3306 7.25239 14.3159L7.4913 14.2343C7.62018 14.1905 7.75844 14.182 7.89172 14.2097C8.025 14.2374 8.14845 14.3002 8.24924 14.3917L8.70363 14.8068C8.73674 14.8366 8.7785 14.855 8.82283 14.8594C8.86716 14.8638 8.91172 14.8539 8.95003 14.8311C9.10524 14.7384 9.28842 14.7041 9.46666 14.7343C9.64491 14.7646 9.80654 14.8573 9.92251 14.996L9.94781 15.026C9.98699 15.0725 10.0409 15.1041 10.1006 15.1155C10.1603 15.1269 10.2221 15.1175 10.2757 15.0888L10.4219 15.0101C10.5411 14.9457 10.6755 14.9145 10.8109 14.9196C10.9463 14.9247 11.0779 14.966 11.192 15.0391L11.399 15.1712C11.4441 15.2003 11.496 15.2171 11.5495 15.2201C11.6031 15.223 11.6565 15.212 11.7045 15.1881L12.0474 15.0204C12.1426 14.9741 12.2464 14.9481 12.3522 14.9441C12.458 14.94 12.5635 14.958 12.662 14.997L13.0461 15.1487C13.1369 15.1847 13.235 15.1978 13.332 15.187C13.429 15.1762 13.5219 15.1419 13.6026 15.0869L13.7225 15.0045C13.824 14.9352 13.9408 14.8915 14.0628 14.8772C14.1848 14.8628 14.3085 14.8782 14.4233 14.922L14.9854 15.1366C15.0437 15.1587 15.1068 15.1649 15.1682 15.1545C15.2296 15.1441 15.2872 15.1176 15.3349 15.0775L15.4501 14.9838C15.5544 14.8962 15.6802 14.8382 15.8146 14.816C15.9489 14.7937 16.0868 14.808 16.2137 14.8574L16.4095 14.9333C16.4645 14.9544 16.5248 14.9577 16.5818 14.9428C16.6387 14.9278 16.6896 14.8953 16.7271 14.8499L16.8011 14.7609C16.8967 14.644 17.025 14.5584 17.1695 14.515C17.3141 14.4716 17.4684 14.4724 17.6125 14.5173L17.7764 14.5679C17.829 14.5838 17.8846 14.5875 17.9389 14.5786C17.9931 14.5696 18.0446 14.5483 18.0893 14.5163L18.6786 14.0919L18.51 14.5379L17.9919 14.9595L17.1796 14.8845L16.67 15.397L15.8558 15.1722L15.0801 15.649L14.2481 15.219L13.3309 15.7146L12.499 15.2565L11.6651 15.6312L10.7657 15.1703L10.0865 15.5722L9.44096 15.0579L8.7767 15.3389L7.93351 14.5341L7.15777 14.8621L6.27147 14.0872L5.36644 14.3618" fill="#E29860"/>
<path d="M18.5063 12.8422C18.5063 12.8422 19.2502 13.8596 18.5269 14.6297" stroke="#641926" stroke-width="0.3" stroke-miterlimit="10"/>
<path d="M5.13971 14.0002L5.36831 14.3159C4.5401 13.5346 5.58941 12.2707 5.58941 12.2707" stroke="#641926" stroke-width="0.3" stroke-miterlimit="10"/>
<path d="M5.06197 14.1662L7.34609 21.5479L8.39728 22.4305L10.7001 23.3589L12.7285 23.5257L14.8234 22.646L15.7368 22.0454L18.4978 14.6656L18.288 14.6496L17.783 14.9494L17.1712 14.8276L16.5903 15.3017L15.8746 15.1359L15.0145 15.6137L14.042 15.1921L13.1801 15.6137L12.2835 15.2483L11.5171 15.6137L10.8435 15.1734L10.0396 15.6137L9.47844 15.0431L8.71207 15.3045L7.86981 14.5007L7.0135 14.792L6.17218 14.1662L5.30275 14.4257L5.06197 14.1662Z" fill="#F95A97"/>
<path d="M7.10062 14.7498L7.75644 17.8931C7.97567 18.9405 8.20333 19.9861 8.35792 21.0476L8.32606 21.0541C8.02158 20.0235 7.7911 18.9808 7.55126 17.938L6.82611 14.8098L7.10062 14.7498Z" fill="#CE3875"/>
<path d="M8.77483 15.1873L9.10836 18.2238C9.22079 19.2356 9.34258 20.2465 9.38943 21.2658H9.35663C9.15801 20.2652 9.03341 19.2543 8.89943 18.2453L8.49564 15.222L8.77483 15.1873Z" fill="#CE3875"/>
<path d="M10.2579 15.5453L10.5109 18.5892C10.5961 19.6039 10.6908 20.6176 10.7104 21.6379H10.6776C10.5053 20.6316 10.4078 19.6189 10.3029 18.6061L9.98061 15.5687L10.2579 15.5453Z" fill="#CE3875"/>
<path d="M11.7401 15.6961L11.7925 18.7504C11.8113 19.7678 11.8394 20.7853 11.7925 21.8055H11.7598C11.653 20.79 11.622 19.7725 11.5827 18.755L11.459 15.7092L11.7401 15.6961Z" fill="#CE3875"/>
<path d="M13.4883 15.7167L13.2672 18.7634C13.1941 19.779 13.1304 20.7946 12.9917 21.8064H12.959C12.9449 20.7852 13.0049 19.7687 13.0573 18.7522L13.2082 15.7017L13.4883 15.7167Z" fill="#CE3875"/>
<path d="M15.1991 15.697L14.7437 18.7165C14.592 19.7237 14.4486 20.7308 14.2313 21.7286H14.1985C14.2641 20.7102 14.4046 19.7021 14.5358 18.6922L14.9246 15.6623L15.1991 15.697Z" fill="#CE3875"/>
<path d="M16.7477 15.4366L16.0722 18.4149C15.8483 19.409 15.6328 20.404 15.3443 21.383L15.3124 21.3755C15.4511 20.3646 15.6628 19.3687 15.8661 18.3709L16.4732 15.3776L16.7477 15.4366Z" fill="#CE3875"/>
<path d="M5.53601 14.2654C5.53601 14.2654 7.47349 20.7524 7.96348 21.3792C8.77609 22.0763 9.73498 22.5819 10.7693 22.8585C11.8036 23.1352 12.8868 23.1759 13.9389 22.9775L13.2663 23.3645L11.8609 23.4844L10.1745 23.2567L7.76674 22.0388L7.29829 21.383L5.06944 14.2654H5.53601Z" fill="#FF83B6"/>
<path d="M5.02354 14.0949L5.18656 14.2635C5.23949 14.32 5.30824 14.3591 5.38381 14.3759C5.45937 14.3926 5.53822 14.3861 5.61003 14.3572L5.8911 14.242C6.02135 14.1879 6.16638 14.1808 6.30127 14.222C6.43616 14.2632 6.5525 14.3501 6.6303 14.4678L6.7802 14.6608C6.84771 14.7473 6.94398 14.8068 7.05158 14.8284C7.15917 14.8501 7.27096 14.8325 7.36669 14.7788L7.6337 14.6299C7.72601 14.5776 7.83432 14.5611 7.93799 14.5836C8.04166 14.606 8.13344 14.6659 8.19583 14.7517L8.4413 15.0871C8.50293 15.172 8.59128 15.2337 8.69219 15.2624C8.79309 15.2911 8.90072 15.2851 8.99781 15.2454L9.2161 15.1236C9.30829 15.0765 9.41515 15.067 9.51421 15.097C9.61327 15.1271 9.69683 15.1944 9.74732 15.2847L9.81758 15.4103C9.83993 15.4503 9.87044 15.4852 9.90715 15.5127C9.94385 15.5401 9.98591 15.5596 10.0306 15.5697C10.0753 15.5799 10.1217 15.5805 10.1666 15.5716C10.2116 15.5627 10.2542 15.5445 10.2916 15.518L10.5652 15.3241C10.6482 15.2651 10.7497 15.2382 10.851 15.2483C10.9523 15.2585 11.0465 15.305 11.1161 15.3794L11.2313 15.5012C11.3103 15.5855 11.4185 15.6365 11.5338 15.6437C11.6491 15.6508 11.7628 15.6136 11.8516 15.5396L12.1101 15.4037C12.2203 15.3453 12.3446 15.3192 12.4689 15.3283C12.5932 15.3374 12.7124 15.3814 12.8128 15.4553L13.0433 15.5855C13.1305 15.6342 13.2299 15.6567 13.3296 15.6504C13.4293 15.6441 13.525 15.6092 13.6054 15.5499L13.7862 15.4159C13.9099 15.3237 14.0598 15.2735 14.2141 15.2726C14.3683 15.2718 14.5188 15.3204 14.6435 15.4112L14.7634 15.4993C14.8585 15.5685 14.9741 15.6038 15.0916 15.5995C15.2091 15.5953 15.3219 15.5517 15.4117 15.4759L15.5345 15.3719C15.6485 15.2753 15.7897 15.2165 15.9386 15.2038C16.0875 15.191 16.2367 15.2249 16.3655 15.3007C16.4412 15.3445 16.5301 15.3597 16.616 15.3435C16.702 15.3274 16.7793 15.2809 16.8339 15.2126L16.9791 15.0252C17.0488 14.9375 17.1465 14.8764 17.2558 14.8522C17.3652 14.828 17.4795 14.8421 17.5797 14.8922L17.6087 14.9062C17.6886 14.9478 17.7786 14.966 17.8684 14.9589C17.9582 14.9518 18.0442 14.9196 18.1165 14.866L18.4388 14.6308C18.4525 14.6198 18.4695 14.6138 18.4871 14.6138C18.5046 14.6137 18.5217 14.6196 18.5355 14.6304C18.5492 14.6413 18.559 14.6565 18.563 14.6736C18.5671 14.6906 18.5652 14.7086 18.5578 14.7245L15.8558 21.9385C15.8106 22.0595 15.73 22.164 15.6244 22.2383C14.4536 23.1014 13.0215 23.5352 11.5686 23.467C10.1157 23.3987 8.7306 22.8325 7.64588 21.8635C7.48746 21.7304 7.37016 21.5549 7.30767 21.3576L5.00012 14.1108C4.99976 14.1079 5.00021 14.105 5.00142 14.1023C5.00263 14.0996 5.00455 14.0974 5.00697 14.0957C5.00939 14.0941 5.01222 14.0931 5.01514 14.093C5.01806 14.0928 5.02097 14.0935 5.02354 14.0949Z" stroke="#641926" stroke-width="0.3" stroke-miterlimit="10"/>
<path d="M6.43355 12.9921C6.43355 12.9921 5.14908 12.0009 5.52477 11.332C5.90046 10.663 6.23493 9.47787 6.66871 9.43196C7.10249 9.38606 7.69179 10.5047 8.39539 10.7548C9.06674 10.9632 9.74885 11.1353 10.4387 11.2701L12.8287 10.6387L14.666 10.6836L16.5135 10.0803L17.263 9.17151L18.5316 10.2527L19 11.4772L18.6786 12.7317L17.6593 13.6386L16.061 13.9196L14.4889 13.7379L12.9533 14.3656H11.4834L10.0499 13.2929L8.70644 13.736L7.19337 13.4109L6.43355 12.9921Z" fill="#FF87AB"/>
<path d="M8.82728 10.9431C8.82728 10.9431 8.62772 11.2242 10.0865 11.4687C11.5452 11.7132 12.1617 10.9141 12.8653 11.0124C13.5389 11.1061 16.0713 11.1539 16.9126 9.80573L15.868 10.3145L14.8318 10.6564L13.5389 10.6967L12.3078 10.6564L9.89627 11.0246L8.82728 10.9431Z" fill="#FF9FBF"/>
<path d="M6.90668 9.46755C6.90668 9.46755 5.2053 11.3882 6.31176 12.2707C6.64557 12.5883 7.05403 12.8167 7.49942 12.9348C7.94482 13.0528 8.41278 13.0568 8.86009 12.9462C9.14884 12.8079 9.47466 12.7669 9.78868 12.8294C10.1027 12.8919 10.388 13.0545 10.6018 13.2929C11.2501 13.9187 13.0086 13.7032 13.2887 13.5824C13.4992 13.4155 13.7469 13.302 14.0107 13.2516C14.2745 13.2012 14.5465 13.2153 14.8037 13.2929C15.5701 13.5636 17.8673 12.9762 18.2608 12.1283C18.6786 11.228 18.4407 10.5159 17.5385 9.39354L18.51 10.2442C18.6645 10.5041 18.7976 10.7761 18.9082 11.0574C18.9176 11.1886 18.9082 12.3485 18.9082 12.3485L18.065 13.2929L16.9126 13.8053L15.0613 13.8822L14.3315 13.736L12.9262 14.3637H11.5471L10.598 13.9187L9.78667 13.2929L8.66241 13.6573L7.52128 13.6198L6.09815 12.8422L5.36832 11.9615V10.8523L6.38296 9.6924L6.90106 9.29797L6.90668 9.46755Z" fill="#DD668E"/>
<path opacity="0.72" d="M16.149 11.4397C16.8639 10.9591 17.3155 10.3801 17.4429 10.5694C17.4603 10.8882 17.3922 11.2059 17.2456 11.4895C17.099 11.7732 16.8792 12.0125 16.6091 12.1827C16.3578 12.3659 16.0602 12.4751 15.75 12.4978C15.4398 12.5205 15.1295 12.4558 14.8543 12.311C14.724 12.1209 15.4314 11.9213 16.149 11.4397Z" fill="#FFABCD"/>
<path d="M6.9198 9.3486C6.77364 9.28021 4.68532 10.7474 5.59785 12.1986C5.95163 12.762 6.47694 13.1968 7.09644 13.4392C7.71594 13.6816 8.39689 13.7186 9.03903 13.5449C10.0415 13.1121 10.1792 13.5749 10.6851 13.9937C11.0896 14.2005 11.5318 14.323 11.985 14.3536C12.4383 14.3842 12.893 14.3223 13.3215 14.1717C13.5198 14.0111 13.7485 13.8925 13.9939 13.8229C14.2394 13.7533 14.4964 13.7343 14.7493 13.767C15.052 13.8654 15.368 13.9172 15.6862 13.9206C16.5294 13.9206 18.0041 13.7979 18.6505 12.609C19.4544 11.1306 18.1699 9.58657 17.0981 9.16779" stroke="#641926" stroke-width="0.3" stroke-miterlimit="10"/>
<path d="M9.15635 11.0715C9.15635 11.0715 7.18889 10.3398 7.29007 10.0325L6.79727 8.82862L7.06616 7.89173L7.74821 7.25934L9.0814 6.60352C9.0814 6.60352 9.74565 7.88236 10.2853 8.04726C10.8249 8.21215 11.344 8.39765 11.344 8.39765L13.1241 8.65061L14.9753 8.06131L15.5928 7.10756L15.8045 6.9689L16.7414 7.90579L17.1761 8.76491L16.9241 9.52285L15.9975 10.322L13.9635 10.7567L12.4589 10.5694L10.4286 11.1315L9.15635 11.0715Z" fill="#FFF1D9"/>
<path d="M9.05985 6.86335C9.05985 6.86335 6.88347 7.84521 7.44466 8.99571C7.68937 9.43241 8.02971 9.8081 8.4402 10.0946C8.85068 10.3812 9.32068 10.5711 9.81498 10.6502C10.3275 10.6849 11.849 10.1228 12.6978 10.193C13.5466 10.2633 15.5244 10.3963 16.2579 9.56908C16.9915 8.74181 15.648 6.93924 15.648 6.93924L16.5943 7.52105L17.1798 8.63407L16.9128 9.80705L14.6409 10.7364L12.5666 10.58L10.4333 11.2292L8.0171 10.6502L6.85536 9.41637L6.79727 8.19842L7.82316 7.05167L8.99802 6.60852L9.05985 6.86335Z" fill="#F9DCB9"/>
<path d="M9.89627 7.77836C10 7.99997 10.6481 8.45659 11.1189 8.64306C11.5896 8.82953 12.0982 8.90054 12.602 8.85015C14.6407 8.87826 15.392 8.12688 15.482 7.5507C15.5719 6.97451 15.1072 7.82239 15.1072 7.82239L14.2472 8.27116L12.4615 8.56722L11.0393 8.318C11.0393 8.318 10.8129 8.24732 10.5 7.99997C10.4212 7.93767 9.89627 7.77836 9.89627 7.77836Z" fill="#FFF5E6"/>
<path d="M9.09242 6.66718C9.09242 6.66718 6.15903 7.39139 6.91978 9.34854C7.68053 11.3057 10.2326 11.2776 11.1358 10.9872C11.9105 10.6216 12.7884 10.5374 13.6185 10.7492C14.1806 10.811 16.6906 10.4213 17.055 9.34386C17.486 8.0725 15.7274 6.90796 15.7274 6.90796" stroke="#641926" stroke-width="0.3" stroke-miterlimit="10"/>
<path d="M15.6956 6.66716L15.3377 7.64058L13.7993 8.45567H11.6595L11.2154 8.33762L10.5727 8.16711C10.2911 8.02102 10 7.89596 9.75669 7.67899C9.58149 7.52277 9.42294 7.34883 9.28356 7.15996C9.25545 7.11405 9.24515 7.07564 9.26389 7.04753C9.26389 7.04753 9.24421 7.0213 9.21423 6.97539C9.19737 6.94916 9.17675 6.91543 9.15333 6.87702C9.12616 6.83111 9.09525 6.77677 9.05964 6.71681C8.87762 6.42182 8.80346 6.07286 8.84978 5.72933V5.71528C9.08895 5.18052 9.40144 4.68168 9.77824 4.23313C9.8485 4.13944 9.89254 4.08978 9.89254 4.08978L10.7863 3.14447L11.0009 2.80906L11.3756 2.22632L11.4337 2.40526L11.4787 2.54767L11.4946 2.59358L11.6717 3.14447V4.39708L12.573 4.41582L13.6448 5.11474L14.3765 4.51138L15.4408 5.67499L15.6956 6.66716Z" fill="#FF87AB"/>
<path d="M10.0181 4.47859C9.53101 5.05146 9.21997 5.75293 9.12242 6.49852C9.16083 6.69901 9.18894 6.84048 9.20955 6.93979L9.15521 6.87702C9.09244 6.80207 9.04653 6.74023 9.06152 6.73836C9.07651 6.73649 9.06152 6.72993 9.06152 6.71681C9.06152 6.60251 8.93223 6.04506 8.85541 5.71528C9.09284 5.18085 9.40342 4.68202 9.77824 4.23313C9.84851 4.13944 9.89254 4.08978 9.89254 4.08978L10.7863 3.14447L11.0009 2.80906L11.3756 2.22632L11.4337 2.40526L11.4787 2.54767C11.1705 2.92149 10.5474 3.69442 10.0181 4.47859Z" fill="#F9A0C4"/>
<path d="M10.8154 4.81966C11.3235 4.65613 11.8728 4.67603 12.3678 4.87587C13.0882 5.22252 14.1732 5.97016 14.5938 5.79308L13.0948 4.7063L12.1373 4.40649L10.8154 4.81966Z" fill="#F9A0C4"/>
<path d="M14.1554 4.5835L14.1788 4.67718C14.1788 4.67718 15.6197 5.96915 14.8927 6.75801C14.1657 7.54686 11.1089 8.1412 10.6089 8.1412L10.4348 8.07831L10.783 8.20409L11.4796 8.45564L13.0452 8.63365L15 7.99997L15.5523 7.10184L15.6965 6.18276L14.7437 4.91047L14.1554 4.5835Z" fill="#DD668E"/>
<path d="M14.2847 4.39243C14.6618 4.58323 14.994 4.85221 15.2591 5.18144C15.5242 5.51067 15.7162 5.8926 15.8221 6.3018C15.8634 6.73213 15.7618 7.16406 15.533 7.53086C15.3042 7.89765 14.961 8.17889 14.5564 8.3311C13.7873 8.62219 12.9567 8.71278 12.1429 8.59436C11.3312 8.54013 10.5505 8.26151 9.88786 7.78958C9.88483 7.78644 9.88313 7.78224 9.88313 7.77787C9.88313 7.7735 9.88483 7.7693 9.88786 7.76616C9.89163 7.76327 9.89624 7.76171 9.90098 7.76171C9.90572 7.76171 9.91033 7.76327 9.91409 7.76616C10.5907 8.18687 11.3663 8.4218 12.1626 8.44727C12.9421 8.53284 13.7307 8.42038 14.4552 8.1203C14.8012 7.97726 15.0926 7.72743 15.2867 7.40724C15.4809 7.08704 15.5677 6.7132 15.5345 6.34022C15.4259 5.97677 15.2463 5.63849 15.006 5.34499C14.7658 5.05148 14.4696 4.80859 14.1348 4.6304C14.1033 4.61039 14.0812 4.57872 14.0731 4.54235C14.065 4.50599 14.0717 4.4679 14.0917 4.43647C14.112 4.40572 14.1434 4.38398 14.1793 4.37578C14.2153 4.36758 14.253 4.37355 14.2847 4.39243Z" fill="#641926"/>
<path d="M11.7635 3.36182C11.6135 3.00187 11.4965 2.62901 11.414 2.24786C10.9621 3.02944 10.3731 3.7232 9.67517 4.2959C9.30127 4.55203 9.03083 4.93299 8.91237 5.37045C8.7939 5.80792 8.83515 6.27327 9.02872 6.68308C9.1023 6.83517 9.19692 6.97615 9.30979 7.10187" stroke="#641926" stroke-width="0.3" stroke-miterlimit="10" stroke-linecap="round"/>
<path opacity="0.72" d="M10.8388 6.38335C10.2598 6.18192 9.81758 6.24656 9.76699 6.3899C9.7164 6.53325 10.153 6.88364 10.7339 7.08976C11.3147 7.29587 11.815 7.26777 11.8647 7.12442C11.9143 6.98108 11.4187 6.58478 10.8388 6.38335Z" fill="#FFABCD"/>
<path d="M11.2027 5.30793C11.1569 5.27778 11.0953 5.29048 11.0652 5.33629C11.035 5.38211 11.0477 5.44369 11.0935 5.47385L11.6962 5.87044C11.742 5.90059 11.8036 5.88789 11.8337 5.84208C11.8639 5.79626 11.8512 5.73468 11.8053 5.70453L11.2027 5.30793Z" fill="white"/>
<path d="M9.51646 9.04732C9.47065 9.01716 9.40906 9.02986 9.37891 9.07568C9.34875 9.12149 9.36145 9.18307 9.40727 9.21323L10.0099 9.60983C10.0557 9.63998 10.1173 9.62729 10.1474 9.58147C10.1776 9.53566 10.1649 9.47407 10.1191 9.44392L9.51646 9.04732Z" fill="white"/>
<path d="M12.9819 6.58336C12.9329 6.608 12.9131 6.66769 12.9378 6.71669C12.9624 6.7657 13.0221 6.78545 13.0711 6.76081L13.7156 6.43674C13.7646 6.4121 13.7844 6.3524 13.7597 6.3034C13.7351 6.2544 13.6754 6.23465 13.6264 6.25928L12.9819 6.58336Z" fill="#FFF200"/>
<path d="M10.5368 7.30799C10.5014 7.26607 10.4388 7.26076 10.3968 7.29613C10.3549 7.3315 10.3496 7.39415 10.385 7.43607L10.8502 7.98743C10.8856 8.02935 10.9482 8.03466 10.9901 7.99929C11.0321 7.96392 11.0374 7.90127 11.002 7.85935L10.5368 7.30799Z" fill="#00A651"/>
<path d="M17.5813 12.0942C17.5539 12.1417 17.5702 12.2025 17.6177 12.2299C17.6652 12.2573 17.7259 12.241 17.7533 12.1935L18.114 11.5688C18.1415 11.5213 18.1252 11.4605 18.0777 11.4331C18.0302 11.4057 17.9695 11.422 17.942 11.4695L17.5813 12.0942Z" fill="#DA1C5C"/>
<path d="M7.51302 8.52524C7.45922 8.53591 7.42425 8.58816 7.43492 8.64197C7.44558 8.69577 7.49784 8.73074 7.55164 8.72007L8.25927 8.57981C8.31308 8.56915 8.34804 8.51689 8.33738 8.46309C8.32672 8.40929 8.27446 8.37432 8.22066 8.38499L7.51302 8.52524Z" fill="#662D91"/>
<path d="M6.42649 11.4364C6.37749 11.461 6.35774 11.5207 6.38238 11.5697C6.40701 11.6187 6.46671 11.6385 6.51571 11.6138L7.16023 11.2898C7.20923 11.2651 7.22898 11.2054 7.20435 11.1564C7.17971 11.1074 7.12001 11.0877 7.07101 11.1123L6.42649 11.4364Z" fill="#FBB040"/>
<path d="M11.3376 9.79466C11.2886 9.8193 11.2689 9.879 11.2935 9.928C11.3181 9.977 11.3778 9.99675 11.4268 9.97211L12.0713 9.64805C12.1204 9.62341 12.1401 9.56372 12.1155 9.51472C12.0908 9.46571 12.0311 9.44596 11.9821 9.4706L11.3376 9.79466Z" fill="#FFF200"/>
<path d="M13.5336 12.3905C13.5723 12.4293 13.6352 12.4293 13.674 12.3905C13.7128 12.3518 13.7128 12.2889 13.674 12.2501L13.1639 11.74C13.1251 11.7012 13.0622 11.7012 13.0235 11.74C12.9847 11.7788 12.9847 11.8416 13.0235 11.8804L13.5336 12.3905Z" fill="#27AAE1"/>
<path d="M15.9808 9.1771C16.0196 9.21588 16.0825 9.21588 16.1213 9.17709C16.1601 9.13831 16.1601 9.07543 16.1213 9.03665L15.6112 8.52654C15.5724 8.48776 15.5095 8.48776 15.4707 8.52654C15.4319 8.56532 15.4319 8.6282 15.4707 8.66699L15.9808 9.1771Z" fill="#27AAE1"/>
<path d="M9.17201 11.6771C9.12298 11.6525 9.0633 11.6723 9.03872 11.7213C9.01414 11.7704 9.03396 11.83 9.083 11.8546L9.7279 12.1779C9.77693 12.2025 9.8366 12.1827 9.86118 12.1336C9.88576 12.0846 9.86594 12.0249 9.81691 12.0004L9.17201 11.6771Z" fill="#ED1C24"/>
<path d="M11.4374 12.915C11.3884 12.9397 11.3687 12.9994 11.3933 13.0484C11.418 13.0974 11.4777 13.1171 11.5267 13.0925L12.1712 12.7684C12.2202 12.7438 12.2399 12.6841 12.2153 12.6351C12.1906 12.5861 12.1309 12.5663 12.0819 12.5909L11.4374 12.915Z" fill="#92278F"/>
<path d="M13.3133 9.52972C13.2612 9.5469 13.2329 9.60305 13.2501 9.65513C13.2673 9.70722 13.3234 9.73553 13.3755 9.71836L14.0606 9.49247C14.1127 9.4753 14.141 9.41915 14.1239 9.36706C14.1067 9.31497 14.0505 9.28667 13.9984 9.30384L13.3133 9.52972Z" fill="#BE1E2D"/>
<path d="M14.6669 11.4197C14.6139 11.434 14.5826 11.4885 14.5968 11.5414C14.6111 11.5944 14.6656 11.6258 14.7185 11.6115L15.4151 11.424C15.4681 11.4098 15.4995 11.3553 15.4852 11.3023C15.471 11.2493 15.4165 11.218 15.3635 11.2322L14.6669 11.4197Z" fill="#2BB673"/>
<path d="M11.6726 4.35212C11.6726 4.35212 11.4431 3.77218 11.6033 3.56701C11.8166 3.38376 12.0613 3.24061 12.3256 3.14447L12.9337 3.29812L13.9549 3.32154L14.3568 3.74876L14.3015 4.35212L13.8331 4.87677L13.4396 4.94891L12.2975 4.36617L11.6314 4.55355L11.6726 4.35212Z" fill="#C92F29"/>
<path d="M12.9234 3.17264L13.7113 2.28822L14.4936 1.72983L15.9308 1.46282L17.115 1.27825L17.783 1L18.035 1.46282L17.8354 1.86193L17.649 1.95375L17.2283 1.65207L15.6965 1.82727L14.2406 2.32569L13.3637 3.25883L12.9337 3.29818L12.9674 3.20262L12.9234 3.17264Z" fill="#914527"/>
<path opacity="0.6" d="M13.4939 3.70943C13.2709 3.72442 13.1314 3.80967 13.1351 3.86495C13.1388 3.92023 13.3356 3.97457 13.5586 3.95864C13.7816 3.94271 13.9474 3.86495 13.9436 3.80967C13.9399 3.7544 13.7132 3.69444 13.4939 3.70943Z" fill="#EA6565"/>
<path d="M11.6314 4.31005C11.9897 4.14927 12.3934 4.12072 12.7708 4.22947C13.1481 4.33822 13.4747 4.57724 13.6925 4.90404L13.5848 5.07174L12.3996 4.41592L11.6361 4.50961L11.6314 4.31005Z" fill="#8C1F1F"/>
<path d="M11.652 4.10665C11.665 3.99951 11.7019 3.89666 11.7599 3.80569C11.818 3.71472 11.8957 3.63795 11.9874 3.58106C12.2667 3.44114 12.5797 3.3827 12.8906 3.41242C13.0826 3.46207 12.7969 3.22504 12.7969 3.22504L12.1795 3.14728L11.5574 3.44521L11.652 4.10665Z" fill="#EA6565"/>
<path d="M11.7363 4.548C11.7363 4.548 11.2098 3.55303 11.9574 3.24479C12.1109 3.16865 12.2815 3.13354 12.4526 3.1429C12.6237 3.15226 12.7894 3.20576 12.9337 3.2982C12.9904 3.33496 13.0547 3.35821 13.1218 3.36617C13.1889 3.37413 13.2569 3.36658 13.3206 3.3441C13.4869 3.28412 13.6651 3.26422 13.8406 3.28602C14.2762 3.3516 14.8786 4.28286 13.6448 4.99771" stroke="#641926" stroke-width="0.3" stroke-miterlimit="10"/>
<path d="M12.87 3.25882C13.387 2.424 14.2001 1.81505 15.1466 1.55369C16.5838 1.26607 16.8705 1.38599 17.1862 1.25295C17.5019 1.11991 17.724 0.887567 17.9291 1.18737C17.9723 1.24918 18.0007 1.32009 18.012 1.39462C18.0233 1.46915 18.0174 1.54529 17.9945 1.61713C17.9717 1.68898 17.9326 1.7546 17.8803 1.80891C17.8281 1.86323 17.764 1.90477 17.6931 1.93032C17.4476 1.95843 17.3961 1.70453 17.2518 1.69891C17.1703 1.69891 14.0167 1.5565 13.4105 3.30286" stroke="#641926" stroke-width="0.3" stroke-miterlimit="10"/>
<path d="M10.2851 4.96303C10.2851 4.96303 11.9471 4.02615 12.929 4.60514C13.9108 5.18414 14.0795 5.69942 14.6407 5.72941" stroke="#641926" stroke-width="0.3" stroke-miterlimit="10" stroke-linecap="round"/>
</svg>
