<svg width="24" height="24" viewBox="0 0 24 24" fill="none" xmlns="http://www.w3.org/2000/svg">
<path d="M21.8036 10.6031C21.6418 9.28353 21.2758 7.99719 20.7187 6.79016L20.713 6.77687C20.6636 6.67056 20.6114 6.5652 20.5592 6.46079C19.6698 4.65048 18.2532 3.15181 16.4957 2.16192C14.9552 1.3266 13.2156 0.928454 11.465 1.01055C11.2018 1.02005 10.9424 1.03745 10.6867 1.06276H10.662C10.514 1.077 10.3668 1.09503 10.2207 1.11496H10.214C7.86629 1.42047 5.69113 2.51179 4.04273 4.2112C2.39434 5.9106 1.36981 8.11801 1.13598 10.474C1.08409 10.8467 1.04771 11.2279 1.02683 11.6177C1.01291 11.8708 1.00563 12.129 1.005 12.3923C0.9993 19.1116 5.42062 23.7626 11.465 23.7825C17.4725 23.7987 21.9593 18.9948 21.9261 12.3923C21.9216 11.7939 21.8807 11.1964 21.8036 10.6031ZM9.02848 11.2086C9.02848 9.81712 10.4466 8.68854 12.194 8.68854C13.8826 8.68854 15.2628 9.74119 15.3548 11.0663C15.3548 11.1137 15.3548 11.1612 15.3548 11.2086C15.3548 12.6001 13.9377 13.7278 12.1893 13.7278C11.5005 13.7812 10.8142 13.5974 10.2444 13.2068C9.67457 12.8162 9.25555 12.2424 9.05696 11.5807C9.036 11.4578 9.02646 11.3333 9.02848 11.2086Z" fill="#CE955B"/>
<path d="M2.11055 15.5778L2.20547 16.0998C2.24352 16.3015 2.32989 16.491 2.45718 16.652C2.58447 16.813 2.74888 16.9408 2.93634 17.0244L3.08062 17.0879C3.19369 17.1382 3.29315 17.2147 3.37073 17.3111C3.44832 17.4076 3.5018 17.5211 3.52674 17.6423L3.82194 19.0661C3.88613 19.3189 4.01539 19.5506 4.19687 19.7381C4.41998 19.9791 4.71738 20.1385 5.04164 20.1908L7.75822 20.6417C8.04746 20.7154 8.30676 20.8769 8.50049 21.104L9.3671 22.1205C9.56416 22.3518 9.82282 22.5224 10.113 22.6124C10.4032 22.7025 10.713 22.7084 11.0063 22.6293L12.5991 22.1993C13.0294 22.0832 13.4079 21.8254 13.6736 21.4675L13.7998 21.3128C13.9044 21.1722 14.0429 21.0605 14.2025 20.9881C14.362 20.9157 14.5373 20.885 14.712 20.8989L15.8016 20.9863C16.1069 21.0105 16.4135 20.9599 16.6948 20.8386C16.976 20.7173 17.2233 20.5292 17.4153 20.2905L18.3967 19.068C18.5521 18.8724 18.7459 18.7109 18.9662 18.5934L19.9752 18.0561C20.4669 17.7932 21.3648 17.0823 21.3155 16.527L21.7274 15.0159C21.7027 14.7387 22.5817 10.4854 21.6705 12.0535H21.9552C22.1109 11.913 21.7711 13.8787 21.791 13.6671L21.8499 11.8456C21.8992 11.6956 22.0036 11.613 21.8499 11.8456L21.9448 11.8275C21.9451 11.8257 21.9448 11.8237 21.9439 11.8221C21.943 11.8204 21.9415 11.8191 21.9398 11.8183C21.938 11.8175 21.9361 11.8174 21.9342 11.8178C21.9324 11.8183 21.9308 11.8194 21.9296 11.8209L21.6202 12.2556C21.6156 12.2615 21.6105 12.2669 21.605 12.2718L20.9567 12.8109C20.9472 12.8191 20.9395 12.8291 20.9339 12.8403L20.6017 13.5199C20.5712 13.5815 20.5562 13.6496 20.558 13.7183L20.5808 14.714C20.5809 14.7254 20.579 14.7366 20.5751 14.7473L20.4726 15.0225C20.4656 15.0398 20.4538 15.0547 20.4384 15.0652L20.1062 15.2873C20.092 15.2966 20.0808 15.3098 20.0739 15.3253C20.067 15.3408 20.0647 15.3579 20.0673 15.3747L20.1727 16.0296C20.1755 16.0427 20.1755 16.0563 20.1727 16.0695L19.8566 17.0927C19.8528 17.1055 19.8459 17.1172 19.8366 17.1269L19.4921 17.4952C19.4803 17.5075 19.4651 17.516 19.4484 17.5198L18.0968 17.8663C18.08 17.8702 18.0647 17.8792 18.0531 17.8919L17.5861 18.4007L17.5776 18.4121L16.9236 19.4002C16.9174 19.4102 16.9089 19.4186 16.8989 19.4248L16.1035 19.9108C16.1035 19.9108 15.9972 19.9241 15.9858 19.927L15.3441 20.1282C15.3299 20.1325 15.3147 20.1325 15.3005 20.1282L14.2222 19.8007C14.2061 19.796 14.1889 19.796 14.1728 19.8007L13.4761 19.9906C13.462 19.9945 13.449 20.0017 13.4382 20.0114L13.011 20.4101H13.0063L12.0125 21.4685C12.0048 21.4763 11.9958 21.4827 11.9859 21.4874L11.0614 21.9326C11.0505 21.9382 11.0385 21.9411 11.0263 21.9411L10.1056 21.9801C10.0893 21.9803 10.0733 21.9764 10.0591 21.9687L9.43449 21.6194C9.42305 21.613 9.41319 21.6042 9.40564 21.5935C9.39808 21.5828 9.39302 21.5706 9.39083 21.5577L9.0738 19.7846C9.07193 19.7726 9.06749 19.7611 9.06078 19.7509C9.05406 19.7408 9.04523 19.7322 9.03488 19.7257L8.70836 19.5122C8.69801 19.5053 8.6863 19.5007 8.67401 19.4987C8.66172 19.4967 8.64916 19.4974 8.63717 19.5008L7.67185 19.7561H7.66425L6.62014 19.9355C6.61227 19.9365 6.60429 19.9365 6.59642 19.9355L5.58933 19.8358C5.58058 19.8345 5.57199 19.8323 5.5637 19.8292L4.66387 19.4495C4.64997 19.444 4.63783 19.4348 4.62875 19.423L4.213 18.9132C4.2036 18.9014 4.19739 18.8873 4.19497 18.8724L4.09435 18.2507C4.09061 18.2367 4.09061 18.222 4.09435 18.208L4.38481 17.3585C4.3881 17.3454 4.3881 17.3317 4.38481 17.3186L4.31931 16.8098C4.31747 16.7968 4.31277 16.7844 4.30555 16.7734C4.29833 16.7624 4.28877 16.7531 4.27755 16.7462L3.78017 16.4387C3.77259 16.4339 3.76425 16.4303 3.75549 16.4283L3.15086 16.2726C3.14241 16.2705 3.13438 16.267 3.12713 16.2622L2.53863 15.9053C2.52763 15.8982 2.51798 15.8892 2.51016 15.8787L2.26527 15.5113C2.25302 15.4971 2.23655 15.4872 2.21826 15.4829C2.19996 15.4787 2.1808 15.4804 2.16355 15.4878C2.1463 15.4953 2.13186 15.508 2.12233 15.5241C2.1128 15.5403 2.10867 15.5591 2.11055 15.5778Z" fill="#B57947"/>
<path opacity="0.81" d="M9.06335 11.5807C9.06335 11.5807 12.1852 7.95105 15.328 11.5807L15.1847 10.381L14.3446 9.30364L13.1999 8.79108L11.6736 8.68857L10.2631 9.23055L9.3595 10.0744L8.93901 11.2134L9.06335 11.5807Z" fill="#CC76B2"/>
<path d="M21.8036 10.6031C21.6418 9.28353 21.2758 7.99719 20.7187 6.79016L20.713 6.77687C19.8336 4.82933 18.3564 3.21277 16.4957 2.16192C14.9552 1.3266 13.2156 0.928454 11.4651 1.01055C11.2018 1.02005 10.9424 1.03745 10.6867 1.06276H10.662C10.514 1.077 10.3668 1.09503 10.2207 1.11496H10.214C7.86629 1.42047 5.69113 2.51179 4.04273 4.2112C2.39434 5.91061 1.36981 8.11801 1.13598 10.474C1.08409 10.8467 1.04771 11.2279 1.02683 11.6177C1.01291 11.8708 1.00563 12.129 1.005 12.3923C0.9993 19.1116 5.42062 23.7626 11.4651 23.7825C17.4725 23.7987 21.9593 18.9948 21.9261 12.3923C21.9216 11.7939 21.8807 11.1964 21.8036 10.6031ZM12.194 13.7278C11.5053 13.7812 10.819 13.5974 10.2491 13.2068C9.67932 12.8162 9.2603 12.2424 9.06171 11.5807C9.03851 11.458 9.02676 11.3335 9.02659 11.2086C9.02659 9.81712 10.4447 8.68854 12.1921 8.68854C13.8807 8.68854 15.2609 9.74119 15.3529 11.0663C15.3529 11.1137 15.3529 11.1612 15.3529 11.2086C15.3596 12.6001 13.9424 13.7278 12.194 13.7278Z" stroke="#641926" stroke-width="0.3" stroke-miterlimit="10"/>
<path d="M21.8034 10.66C21.6113 9.3474 21.2465 8.06596 20.7185 6.84901L20.7128 6.83667C20.6662 6.73226 20.6178 6.6307 20.5704 6.53008C19.7238 4.68404 18.2914 3.16918 16.4955 2.22077C14.6958 1.32567 12.6842 0.94404 10.6817 1.11781H10.6571C10.4036 1.14059 10.248 1.16527 10.2157 1.17097H10.209C7.88606 1.53652 5.74472 2.64686 4.10745 4.33481C2.47018 6.02275 1.4256 8.19693 1.131 10.53C1.06666 10.8971 1.02324 11.2675 1.00096 11.6396V11.669L1.02279 11.6747C1.22592 11.7269 2.81961 12.1768 2.54149 13.2769C2.23491 14.4549 1.39203 16.1112 3.83334 16.5668C3.83334 16.5668 4.76734 16.657 4.16461 18.0732C3.56187 19.4894 5.85226 20.3626 7.41842 19.8766C8.98458 19.3906 9.10038 19.2559 9.22188 21.2624C9.31016 22.6672 11.9679 22.1518 12.8763 20.5847C13.0429 20.2938 13.3147 20.0778 13.6356 19.981C14.0723 19.9427 14.5123 19.9682 14.9417 20.057C15.4836 20.0795 16.0199 19.9402 16.4823 19.6567C16.9446 19.3732 17.3121 18.9584 17.5377 18.4652C18.0199 17.441 19.0745 17.9232 19.5263 17.5018C19.784 17.2739 19.9697 16.9758 20.0606 16.644C20.1514 16.3122 20.1435 15.9611 20.0379 15.6337C19.7674 14.9408 20.6406 15.5388 20.5201 14.6105C20.3995 13.6822 20.8675 12.584 21.3933 12.453C21.9192 12.322 21.8034 10.66 21.8034 10.66ZM12.1938 13.7857C11.5049 13.8391 10.8185 13.6551 10.2487 13.2643C9.67883 12.8735 9.25988 12.2995 9.06147 11.6377C9.03818 11.515 9.02643 11.3904 9.02635 11.2656C9.02635 9.87407 10.4444 8.74644 12.1919 8.74644C13.8805 8.74644 15.2606 9.79814 15.3527 11.1242C15.3527 11.1707 15.3527 11.2191 15.3527 11.2656C15.3593 12.6571 13.9422 13.7857 12.1938 13.7857Z" fill="#E271A5"/>
<path d="M20.5704 6.4723L20.559 6.46186C19.0049 5.0701 17.2396 3.934 15.329 3.09604C15.2104 3.04668 15.0936 3.00112 14.9769 2.95651C13.6148 2.41125 12.1456 2.1862 10.6827 2.29872C10.5796 2.30821 10.4771 2.3196 10.3752 2.33289C3.86945 3.18336 1.02189 11.6197 1.02189 11.6197L1.00101 11.5856C1.02323 11.2135 1.06665 10.8431 1.13105 10.476C1.36488 8.12002 2.3894 5.91262 4.0378 4.21321C5.68619 2.5138 7.86135 1.42249 10.2091 1.11698H10.2157C10.248 1.11698 10.4056 1.08755 10.6571 1.06477H10.6818C10.9349 1.03883 11.1943 1.02143 11.4601 1.01257C13.2106 0.930468 14.9503 1.32862 16.4908 2.16393C18.2881 3.11145 19.7223 4.62599 20.5704 6.4723Z" fill="#EFACD1"/>
<path opacity="0.81" d="M2.1523 15.1601L2.78256 15.2465C3.07851 15.2862 3.36169 15.3922 3.611 15.5565C3.86031 15.7209 4.06933 15.9394 4.22248 16.1957L5.16217 17.7808C5.33206 18.0668 5.59171 18.2886 5.90071 18.4117C6.20972 18.5347 6.55074 18.5522 6.87071 18.4614L7.16686 18.3779C7.26031 18.3526 7.35548 18.3342 7.45162 18.3228C7.94634 18.2361 8.45495 18.2758 8.93021 18.4383C9.40547 18.6008 9.83197 18.8807 10.1701 19.2521L10.4197 19.4685C10.6497 19.6686 10.9318 19.7991 11.2332 19.8449C11.5345 19.8906 11.8427 19.8496 12.1216 19.7267C12.5038 19.5274 12.8982 19.3525 13.3024 19.2027L14.1766 18.9502C14.2839 18.9199 14.3911 18.8942 14.5003 18.8743L14.9436 18.7936C15.4164 18.707 15.8661 18.5228 16.2637 18.2526C16.6613 17.9825 16.9983 17.6323 17.2529 17.2246L17.3479 17.0699C17.5833 16.6921 17.926 16.3931 18.3322 16.2109L18.6596 16.0638C18.926 15.9438 19.1584 15.7596 19.336 15.5276C19.5136 15.2957 19.6308 15.0233 19.6772 14.7349L19.7484 14.284C19.8736 13.4978 20.1843 12.7527 20.6548 12.1104L21.6562 10.7436L21.8052 11.8446L21.2642 12.454L20.7972 12.9068L20.5124 13.612L20.4954 14.9276L20.0151 15.3168L20.0901 16.5972L19.5205 17.4515L18.0265 17.8672L17.3194 18.7765L16.3626 19.8643L15.6175 20.1206L14.5734 19.9251L13.6432 19.9383L12.9721 20.4053L12.1482 21.4162L10.6874 22.018L9.62336 21.9278L9.15636 20.9787L9.02157 19.7447L8.62956 19.4894L6.42365 19.964L4.97234 19.6232L4.23292 19.0395L4.05352 18.2232L4.38479 17.0481L3.99277 16.4909L2.85375 16.1976L2.24152 15.5379L2.1523 15.1601Z" fill="#B74E8A"/>
<path opacity="0.81" d="M8.71974 10.1646L9.01114 7.63687C9.01327 7.5443 9.03571 7.45334 9.07688 7.3704C9.11804 7.28746 9.17692 7.21457 9.24936 7.1569C9.32179 7.09922 9.40601 7.05816 9.49606 7.03662C9.58611 7.01508 9.6798 7.01358 9.77049 7.03224L9.82934 7.04458C9.92329 7.06414 10.0204 7.06253 10.1137 7.03987C10.2069 7.01721 10.294 6.97408 10.3685 6.91359L10.8155 6.5529C11.0217 6.38563 11.2778 6.29192 11.5433 6.28659C11.8087 6.28126 12.0684 6.36462 12.2811 6.52347L12.4842 6.67534C12.5584 6.73054 12.6452 6.76631 12.7367 6.77941C12.8282 6.79251 12.9215 6.78251 13.0082 6.75033L13.7125 6.48835C13.8493 6.4377 13.9993 6.43449 14.1382 6.47924C14.2771 6.524 14.3969 6.61412 14.4785 6.73514L15.0299 7.55809C15.1136 7.6831 15.2226 7.78916 15.3498 7.86942L15.8311 8.17126C15.9659 8.25611 16.0687 8.38336 16.1234 8.53301C16.178 8.68267 16.1814 8.84624 16.1329 8.99801L15.5349 10.492C15.5007 10.5983 15.5416 10.38 15.5055 10.2737C15.4993 10.2526 15.4993 10.2302 15.5055 10.2092L15.6953 9.43463C15.6958 9.42673 15.6958 9.41881 15.6953 9.4109L15.7153 8.83475C15.7164 8.8043 15.7055 8.77463 15.6849 8.75217L15.3261 8.36015L15.3185 8.35256L14.6541 7.75077L14.6436 7.73938L14.2744 7.25055C14.2631 7.23562 14.2485 7.22358 14.2317 7.21543L13.7998 7.0142C13.7842 7.00672 13.7672 7.00283 13.75 7.00283C13.7327 7.00283 13.7157 7.00672 13.7001 7.0142L13.0025 7.35971C12.9816 7.37096 12.9575 7.37497 12.9341 7.3711L12.4235 7.29516C12.4034 7.29206 12.3845 7.28389 12.3684 7.27143L11.7382 6.76931C11.7252 6.75847 11.7098 6.75078 11.6934 6.74683C11.6769 6.74288 11.6597 6.74278 11.6432 6.74653L11.3158 6.80538C11.2999 6.80812 11.2847 6.8143 11.2715 6.82348C11.2582 6.83266 11.2471 6.84462 11.2389 6.85854L10.8345 7.51253L10.8269 7.52677L10.6846 7.85139C10.6768 7.87471 10.6617 7.89489 10.6415 7.90892C10.6213 7.92295 10.5971 7.93007 10.5726 7.92922L9.7629 7.86752C9.74443 7.86564 9.72578 7.86858 9.70879 7.87607L9.29874 8.04882C9.28206 8.05539 9.26722 8.0659 9.25548 8.07945C9.24375 8.09301 9.23547 8.1092 9.23135 8.12665V8.14279C9.19528 8.27188 8.71689 10.3022 8.71974 10.1646Z" fill="#B74E8A"/>
<path opacity="0.5" d="M7.67467 6.68673C9.15066 5.34932 10.7016 4.65547 10.3466 4.2644C9.99164 3.87333 7.73922 3.90371 6.26513 5.24206C4.79104 6.58042 4.65151 8.71894 5.00461 9.11001C5.35771 9.50107 6.19869 8.02414 7.67467 6.68673Z" fill="#F2A5CC"/>
<path d="M21.8034 10.6031C21.6116 9.28978 21.2468 8.00767 20.7184 6.79017L20.7127 6.77688C19.882 4.79776 18.3919 3.16715 16.4955 2.16192C14.6954 1.26809 12.6841 0.886838 10.6817 1.05992H10.657C10.4036 1.0827 10.2479 1.10738 10.2157 1.11212H10.209C7.88599 1.47752 5.74457 2.58782 4.10727 4.27579C2.46997 5.96377 1.42544 8.13803 1.13099 10.4711C1.06401 10.8477 1.02027 11.2281 1 11.6101L1.02183 11.6149C1.22496 11.668 2.81865 12.118 2.54053 13.2171C2.23964 14.3922 1.40151 16.0495 3.83618 16.5013C3.83618 16.5013 4.77018 16.5962 4.16744 18.0077C3.56471 19.4191 5.8551 20.2962 7.42126 19.8111C8.98742 19.3261 9.10322 19.1904 9.22472 21.1969C9.31299 22.6008 11.9707 22.0863 12.8791 20.5192C13.0454 20.2279 13.3172 20.0115 13.6384 19.9146C14.0738 19.8372 14.5213 19.8635 14.9445 19.9915C15.4953 20.074 16.0575 19.9589 16.5316 19.6667C17.0056 19.3745 17.361 18.924 17.5349 18.3949C18.017 17.3708 19.0716 17.853 19.5234 17.4315C19.781 17.2036 19.9667 16.9055 20.0575 16.5737C20.1484 16.242 20.1406 15.8909 20.035 15.5635C19.7645 14.8706 20.6378 15.4686 20.5172 14.5393C20.3967 13.6101 20.8646 12.5128 21.3905 12.3818C21.9163 12.2508 21.8034 10.6031 21.8034 10.6031ZM12.1938 13.7278C11.505 13.7812 10.8187 13.5974 10.2489 13.2068C9.67907 12.8162 9.26005 12.2424 9.06146 11.5807C9.03827 11.458 9.02651 11.3335 9.02634 11.2086C9.02634 9.81713 10.4444 8.68854 12.1919 8.68854C13.8805 8.68854 15.2606 9.74119 15.3527 11.0663C15.3527 11.1137 15.3527 11.1612 15.3527 11.2086C15.3593 12.6001 13.9422 13.7278 12.1938 13.7278Z" stroke="#641926" stroke-width="0.3" stroke-miterlimit="10"/>
<path d="M9.6281 8.01557C9.56157 8.01276 9.49565 8.02924 9.43826 8.06302C9.31451 8.17398 9.2392 8.32904 9.22849 8.49491C9.17154 8.80529 9.13357 9.01221 9.11364 9.14795C9.10154 9.31286 9.05804 9.47395 8.9855 9.62254C8.96367 9.66715 8.93519 9.7279 8.89058 9.81902C8.82698 10.1197 8.84467 10.432 8.94184 10.7236C9.22659 9.48966 10.5725 8.68474 12.1881 8.68474C12.8619 8.61529 13.5402 8.7657 14.1215 9.1135C14.7028 9.4613 15.156 9.98783 15.4134 10.6144C15.4164 10.5437 15.4081 10.4728 15.3887 10.4047C15.3282 10.1557 15.3667 9.89305 15.496 9.6719C15.7807 8.73885 15.514 8.60311 15.1998 8.4465C15.1044 8.40355 15.0143 8.34972 14.9312 8.28608C14.7057 8.08461 14.5225 7.84038 14.3921 7.56755C14.1927 7.19926 14.0921 7.01512 13.5919 7.16699C13.5041 7.19966 13.4246 7.25155 13.3594 7.31886C13.3032 7.37309 13.2392 7.41853 13.1695 7.45365C13.0022 7.53546 12.8129 7.56118 12.6298 7.52698C12.4467 7.49279 12.2795 7.4005 12.1529 7.26381C11.9783 7.05309 11.6935 6.73416 11.4581 6.78921C11.2227 6.84427 11.0433 7.24388 10.9086 7.7384C10.7633 8.27754 10.322 8.16649 10.0002 8.08581C9.87921 8.0484 9.75439 8.02483 9.6281 8.01557Z" fill="#B57947"/>
<path d="M15.6204 9.73268C15.5038 9.92394 15.4669 10.1533 15.5179 10.3715C15.5713 10.5557 15.5547 10.7531 15.4713 10.9258C15.4466 10.9841 15.4062 11.0343 15.3546 11.071C15.2597 9.74217 13.8824 8.69332 12.1938 8.69332C10.4463 8.69332 9.02825 9.8219 9.02825 11.2134C9.02825 11.3397 8.99028 10.7967 8.99218 11.0758C8.86404 10.7208 8.58973 10.1864 8.77197 9.77255C8.99313 9.27042 8.87543 9.68617 9.09564 8.47501C9.33674 7.14614 10.5365 8.60694 10.7805 7.70426C10.9779 6.96864 11.4601 6.21594 12.2593 7.18031C12.3662 7.29442 12.507 7.37107 12.6608 7.39894C12.8147 7.4268 12.9734 7.40439 13.1136 7.33503C13.2426 7.27618 13.3452 7.10438 13.5492 7.04173C14.5089 6.75033 14.3266 7.61124 15.0157 8.18645C15.346 8.45507 16.039 8.38863 15.6204 9.73268Z" stroke="#641926" stroke-width="0.3" stroke-miterlimit="10"/>
<path d="M3.75451 7.7489L2.72559 8.19312C2.71799 8.19312 2.7066 8.2121 2.70186 8.23963C2.69429 8.29059 2.70154 8.34265 2.72274 8.3896C2.73559 8.42165 2.75816 8.44887 2.78728 8.46743L3.90353 7.98714C3.91207 7.98714 3.92441 7.93968 3.89878 7.88178C3.87955 7.83399 3.8465 7.79301 3.80386 7.76408C3.78013 7.7489 3.7621 7.7451 3.75451 7.7489Z" fill="#7F3F98"/>
<path d="M2.80344 10.5186L3.10053 11.5997C3.10053 11.6045 3.11477 11.6178 3.14514 11.6273C3.2 11.6433 3.2583 11.6433 3.31315 11.6273C3.34998 11.6176 3.38305 11.5971 3.40807 11.5684L3.09199 10.3971C3.0747 10.3881 3.05574 10.3828 3.03631 10.3815C3.01687 10.3802 2.99737 10.3829 2.97904 10.3895C2.85754 10.4227 2.80344 10.5006 2.80818 10.5186H2.80344Z" fill="#27AAE1"/>
<path d="M6.73403 10.7474C6.69703 10.7511 6.66297 10.7692 6.63911 10.7977C6.60158 10.8359 6.57559 10.8839 6.56412 10.9363C6.55811 10.9531 6.55811 10.9716 6.56412 10.9885L7.37948 11.7583C7.39466 11.7715 7.48294 11.7649 7.56931 11.6766C7.59504 11.6507 7.61226 11.6176 7.61867 11.5817L6.73593 10.7483L6.73403 10.7474Z" fill="white"/>
<path d="M4.87742 14.1094H4.86698L3.89216 14.6684C3.87128 14.6808 3.85704 14.7634 3.91209 14.8649C3.92833 14.896 3.95389 14.9212 3.98518 14.9371L5.04258 14.3381C5.04258 14.3381 5.04827 14.3277 5.04922 14.3201C5.0504 14.2897 5.04247 14.2596 5.02644 14.2337C5.00193 14.188 4.96466 14.1504 4.91918 14.1255C4.90675 14.1169 4.89243 14.1113 4.87742 14.1094Z" fill="#F7941D"/>
<path d="M5.60831 17.4638L6.70462 17.9887C6.71506 17.9887 6.75303 17.9754 6.77866 17.9213C6.80167 17.8769 6.81061 17.8266 6.80429 17.777C6.80429 17.7505 6.79005 17.7343 6.7815 17.7305L5.77062 17.2464C5.74974 17.2369 5.6757 17.2664 5.62349 17.3679C5.60853 17.3975 5.60322 17.431 5.60831 17.4638Z" fill="#ED1C24"/>
<path d="M12.3551 18.8895H13.5729C13.5862 18.8895 13.61 18.8563 13.61 18.8031C13.61 18.7035 13.5577 18.6399 13.5302 18.6399H12.4092C12.3817 18.6399 12.3295 18.7035 12.3295 18.8031C12.3287 18.8339 12.3377 18.8641 12.3551 18.8895Z" fill="#FFF200"/>
<path d="M10.9114 14.358L11.312 15.5066C11.3167 15.5198 11.3556 15.5312 11.4069 15.5141C11.5018 15.48 11.5464 15.4097 11.5369 15.3841L11.1677 14.3248C11.1627 14.3174 11.1562 14.3111 11.1487 14.3062C11.1412 14.3013 11.1328 14.2979 11.124 14.2963C11.078 14.2851 11.0297 14.2881 10.9854 14.3049C10.9557 14.3142 10.9297 14.3328 10.9114 14.358Z" fill="#00AEEF"/>
<path d="M16.0351 15.1611L16.7052 16.0467C16.7335 16.0472 16.761 16.037 16.7821 16.0182C16.8647 15.9565 16.877 15.8853 16.8685 15.8749L16.2477 15.0529C16.2392 15.0434 16.168 15.0348 16.0864 15.0965C16.0639 15.1131 16.0462 15.1354 16.0351 15.1611Z" fill="#BE1E2D"/>
<path d="M17.8035 11.8285L16.7907 12.0183C16.7721 12.0415 16.7596 12.0688 16.7541 12.0979C16.7486 12.1271 16.7505 12.1571 16.7594 12.1854C16.7636 12.2138 16.7757 12.2405 16.7945 12.2623L17.8861 12.0572C17.8982 12.0304 17.9008 12.0003 17.8936 11.9718C17.8747 11.8731 17.8177 11.8285 17.8035 11.8285Z" fill="#92278F"/>
<path d="M20.9415 9.93583L20.3549 10.7825C20.3523 10.7885 20.351 10.795 20.351 10.8015C20.351 10.808 20.3523 10.8145 20.3549 10.8205C20.3706 10.8593 20.3977 10.8924 20.4327 10.9154C20.4526 10.93 20.4764 10.9386 20.501 10.9401L21.1351 10.026C21.1351 10.0203 21.1275 9.99278 21.0914 9.96715C21.0155 9.91495 20.9481 9.92444 20.9386 9.93678L20.9415 9.93583Z" fill="#2BB673"/>
<path d="M16.9226 8.20447L17.3241 9.15366C17.3528 9.1663 17.384 9.17212 17.4153 9.17063C17.4466 9.16915 17.4771 9.16041 17.5045 9.14511C17.5336 9.13415 17.559 9.11504 17.5776 9.09006L17.1457 8.07253C17.1139 8.06365 17.0799 8.06739 17.0508 8.08297C16.9568 8.11904 16.9207 8.18833 16.9226 8.20447Z" fill="#FBB040"/>
<path d="M18.1594 6.39723L19.2567 6.47316C19.2813 6.44437 19.2944 6.40755 19.2937 6.3697C19.299 6.33623 19.2971 6.30203 19.2883 6.26932C19.2795 6.23661 19.2638 6.20613 19.2424 6.17986L18.2202 6.10867C18.194 6.1326 18.1734 6.16204 18.1599 6.19486C18.1465 6.22769 18.1405 6.26308 18.1423 6.29851C18.1399 6.33231 18.1458 6.36619 18.1594 6.39723Z" fill="#662D91"/>
<path d="M12.1947 6.04225C12.2047 6.05369 12.2169 6.06297 12.2307 6.0695C12.2444 6.07603 12.2593 6.07967 12.2745 6.08021C12.3036 6.08836 12.3344 6.08906 12.3639 6.08226C12.3934 6.07546 12.4207 6.06138 12.4434 6.0413L12.5915 5.02282C12.5915 5.00763 12.5431 4.95258 12.4406 4.93834C12.4112 4.93297 12.381 4.93593 12.3532 4.94688L12.1947 6.04225Z" fill="#DA1C5C"/>
<path d="M19.2197 13.762L19.3212 14.977C19.3212 14.9969 19.3583 15.0121 19.3972 15.0083C19.4387 15.0062 19.4784 14.9905 19.5101 14.9637C19.5187 14.9561 19.5377 14.9361 19.5358 14.9172L19.4408 13.8C19.4385 13.7911 19.4343 13.7828 19.4286 13.7756C19.4229 13.7684 19.4157 13.7625 19.4076 13.7582C19.3715 13.7371 19.3296 13.7282 19.288 13.7326C19.2626 13.7344 19.2385 13.7447 19.2197 13.762Z" fill="white"/>
<path d="M14.8012 3.07697C14.8005 3.11684 14.8136 3.15571 14.8382 3.18708C14.8556 3.21901 14.8794 3.24697 14.9081 3.2692C14.9369 3.29142 14.97 3.30742 15.0052 3.31617L15.8519 2.74665C15.8569 2.71078 15.8544 2.67425 15.8444 2.63943C15.8344 2.6046 15.8173 2.57226 15.794 2.54448C15.7732 2.51152 15.7441 2.48466 15.7095 2.46664L14.8012 3.07697Z" fill="white"/>
<path d="M10.5782 2.79316C10.6151 2.80047 10.6533 2.79477 10.6864 2.77703C10.7899 2.73147 10.8326 2.66312 10.8336 2.64129L10.4188 1.70444C10.3861 1.69265 10.3513 1.68807 10.3168 1.69102C10.2822 1.69397 10.2487 1.70438 10.2185 1.72153C10.1849 1.73567 10.1555 1.75823 10.1331 1.78702L10.5782 2.79316Z" fill="#00A651"/>
<path d="M8.11889 6.73607C8.15069 6.74495 8.18469 6.74121 8.21381 6.72563C8.30873 6.68292 8.3429 6.61647 8.341 6.60034L7.9243 5.65874C7.89598 5.6464 7.86515 5.64092 7.83431 5.64273C7.80347 5.64455 7.77349 5.65361 7.74681 5.66918C7.71815 5.681 7.69322 5.70035 7.67467 5.72518L8.11889 6.73607Z" fill="#FFF200"/>
<path d="M2.97906 7.95102C2.95177 7.99405 2.93399 8.04242 2.9269 8.09288C2.91981 8.14334 2.92358 8.19473 2.93796 8.24362C2.95234 8.2925 2.97699 8.33775 3.01027 8.37634C3.04355 8.41493 3.08468 8.44597 3.13093 8.46738L2.8044 8.60501L2.60413 8.32025L2.66867 8.07346L2.97906 7.95102Z" fill="#632C7C"/>
<path d="M2.91353 11.3757C2.95415 11.4066 3.00089 11.4284 3.05064 11.4398C3.10039 11.4511 3.15198 11.4516 3.20196 11.4414C3.25194 11.4312 3.29915 11.4103 3.34043 11.3803C3.3817 11.3504 3.41609 11.3119 3.44128 11.2675L3.55138 11.6035L3.24764 11.7791L3.0075 11.6947L2.91353 11.3757Z" fill="#1E84A8"/>
<path d="M11.3775 14.4995C11.3325 14.4755 11.2829 14.4613 11.232 14.4579C11.1811 14.4546 11.1301 14.4621 11.0824 14.4801C11.0346 14.4981 10.9913 14.5261 10.9553 14.5621C10.9192 14.5982 10.8913 14.6416 10.8734 14.6894L10.7111 14.3742L10.9835 14.1531L11.2341 14.1986L11.3775 14.4995Z" fill="#1E84A8"/>
<path d="M6.06295 17.2189C6.01296 17.2291 5.96572 17.2499 5.92438 17.2798C5.88304 17.3097 5.84856 17.3481 5.82323 17.3923C5.79789 17.4366 5.7823 17.4858 5.77748 17.5366C5.77266 17.5874 5.77873 17.6386 5.79528 17.6869L5.47066 17.5464L5.53995 17.2019L5.76206 17.0785L6.06295 17.2189Z" fill="#F4424F"/>
<path d="M6.39612 18.0362C6.44455 18.0203 6.48903 17.9942 6.52659 17.9597C6.56416 17.9253 6.59395 17.8832 6.61398 17.8363C6.634 17.7894 6.64381 17.7388 6.64274 17.6878C6.64168 17.6369 6.62976 17.5867 6.60779 17.5407L6.94665 17.6432L6.91722 17.9925L6.71125 18.1415L6.39612 18.0362Z" fill="#C41A26"/>
<path d="M4.1788 14.3704C4.14979 14.4124 4.13007 14.4601 4.12095 14.5103C4.11183 14.5605 4.11353 14.612 4.12593 14.6615C4.13832 14.711 4.16114 14.7573 4.19284 14.7973C4.22455 14.8373 4.26442 14.87 4.30979 14.8934L3.97757 15.0168L3.78773 14.7206L3.86272 14.4767L4.1788 14.3704Z" fill="#D37F24"/>
<path d="M7.83508 6.46176C7.87582 6.49244 7.92262 6.51409 7.97238 6.52526C8.02214 6.53643 8.07371 6.53687 8.12365 6.52654C8.17359 6.51621 8.22075 6.49535 8.26199 6.46536C8.30324 6.43537 8.33761 6.39693 8.36283 6.3526L8.47294 6.68956L8.16825 6.86516L7.9281 6.78068L7.83508 6.46176Z" fill="#E0CC0E"/>
<path d="M12.7063 18.4851C12.666 18.5165 12.6329 18.556 12.6091 18.6012C12.5853 18.6463 12.5714 18.696 12.5684 18.7469C12.5653 18.7979 12.5732 18.8489 12.5914 18.8965C12.6096 18.9442 12.6378 18.9874 12.674 19.0233L12.32 19.0414L12.2298 18.7016L12.3741 18.4918L12.7063 18.4851Z" fill="#E0CC0E"/>
<path d="M12.6607 5.28763C12.6368 5.24252 12.6036 5.20303 12.5632 5.1718C12.5228 5.14058 12.4761 5.11834 12.4265 5.10657C12.3768 5.0948 12.3251 5.09377 12.275 5.10355C12.2249 5.11333 12.1775 5.1337 12.1358 5.16328L12.1786 4.81208L12.5279 4.78076L12.7101 4.95826L12.6607 5.28763Z" fill="#E24B85"/>
<path d="M3.2505 10.6164C3.20376 10.596 3.15322 10.5858 3.10223 10.5865C3.05125 10.5872 3.001 10.5988 2.95484 10.6204C2.90867 10.6421 2.86765 10.6733 2.8345 10.712C2.80136 10.7508 2.77686 10.7962 2.76262 10.8451L2.57753 10.5433L2.83191 10.3022L3.08535 10.3278L3.2505 10.6164Z" fill="#5CCCEA"/>
<path d="M11.087 15.1905C11.1281 15.2208 11.1751 15.242 11.225 15.2526C11.2749 15.2633 11.3265 15.2632 11.3764 15.2523C11.4262 15.2414 11.4732 15.2201 11.5141 15.1896C11.5551 15.1591 11.5891 15.1203 11.6138 15.0757L11.7267 15.4117L11.4249 15.5901L11.1838 15.5085L11.087 15.1905Z" fill="#5CCCEA"/>
<path d="M4.82235 14.6276C4.84012 14.5798 4.84746 14.5287 4.8439 14.4777C4.84034 14.4268 4.82595 14.3772 4.80169 14.3323C4.77743 14.2874 4.74386 14.2482 4.70323 14.2172C4.6626 14.1863 4.61584 14.1644 4.56607 14.153L4.85747 13.9509L5.1128 14.192L5.10046 14.4463L4.82235 14.6276Z" fill="#F7A74F"/>
<path d="M8.09706 5.87705C8.0504 5.8565 7.99989 5.84617 7.94891 5.84673C7.89793 5.84729 7.84766 5.85874 7.80146 5.88031C7.75526 5.90188 7.71421 5.93307 7.68105 5.9718C7.64789 6.01053 7.62338 6.05589 7.60918 6.10486L7.41934 5.80301L7.67372 5.56192L7.92716 5.5885L8.09706 5.87705Z" fill="#FFF469"/>
<path d="M13.2616 19.0442C13.2995 19.0101 13.3297 18.9682 13.3502 18.9215C13.3707 18.8747 13.3809 18.8241 13.3803 18.7731C13.3797 18.7221 13.3682 18.6718 13.3465 18.6256C13.3249 18.5793 13.2937 18.5383 13.2549 18.5051L13.6061 18.4614L13.721 18.7936L13.5919 19.0129L13.2616 19.0442Z" fill="#FFF469"/>
<path d="M10.7054 1.87437C10.6588 1.85382 10.6083 1.84348 10.5573 1.84404C10.5063 1.84461 10.456 1.85606 10.4098 1.87763C10.3636 1.8992 10.3226 1.93039 10.2894 1.96911C10.2563 2.00784 10.2318 2.05321 10.2175 2.10217L10.0277 1.80033L10.2878 1.55923L10.5403 1.58581L10.7054 1.87437Z" fill="#39BC74"/>
<path d="M10.3685 2.58622C10.4154 2.6062 10.4661 2.61593 10.5171 2.61476C10.5681 2.6136 10.6183 2.60156 10.6643 2.57947C10.7103 2.55737 10.7511 2.52571 10.7839 2.48661C10.8167 2.44751 10.8407 2.40186 10.8545 2.35272L11.0443 2.65172L10.7899 2.89851L10.5365 2.87478L10.3685 2.58622Z" fill="#087F3E"/>
<path d="M3.61214 8.25668C3.63943 8.21357 3.65722 8.16514 3.66432 8.11461C3.67141 8.06408 3.66765 8.01262 3.65327 7.96366C3.6389 7.9147 3.61425 7.86937 3.58097 7.83069C3.54768 7.79202 3.50654 7.76089 3.46027 7.73937L3.78679 7.60269L3.98612 7.88745L3.92157 8.13329L3.61214 8.25668Z" fill="#975BB2"/>
<path d="M16.8723 8.5775C16.8805 8.52723 16.8994 8.4793 16.9276 8.43691C16.9559 8.39452 16.9929 8.35865 17.0361 8.33169C17.0793 8.30473 17.1278 8.28731 17.1783 8.2806C17.2288 8.27388 17.2801 8.27802 17.3289 8.29274L17.1751 7.97382L16.8334 8.05734L16.7185 8.28515L16.8723 8.5775Z" fill="#FCC47A"/>
<path d="M17.5168 11.726C17.559 11.7547 17.5945 11.7922 17.6211 11.8358C17.6476 11.8794 17.6646 11.9282 17.6708 11.9788C17.677 12.0295 17.6723 12.0809 17.657 12.1296C17.6418 12.1783 17.6163 12.2232 17.5823 12.2613H17.9364L18.0056 11.9177L17.849 11.7165L17.5168 11.726Z" fill="#6D1D6D"/>
<path d="M17.1153 12.305C17.0729 12.2768 17.037 12.2398 17.01 12.1966C16.983 12.1534 16.9656 12.1049 16.9588 12.0544C16.9521 12.0039 16.9562 11.9525 16.9709 11.9038C16.9856 11.855 17.0106 11.8099 17.0441 11.7715L16.6901 11.7782L16.6246 12.1227L16.7841 12.3221L17.1153 12.305Z" fill="#AD4DAD"/>
<path d="M16.7878 15.5797C16.792 15.6305 16.7852 15.6817 16.768 15.7297C16.7507 15.7777 16.7235 15.8215 16.688 15.8581C16.6525 15.8948 16.6096 15.9235 16.5622 15.9422C16.5148 15.961 16.4639 15.9694 16.4129 15.967L16.6379 16.2394L16.9492 16.0771L17.0071 15.8293L16.7878 15.5797Z" fill="#9E192A"/>
<path d="M16.0531 15.5132C16.0524 15.4623 16.0625 15.4117 16.0829 15.365C16.1032 15.3183 16.1333 15.2765 16.1712 15.2423C16.209 15.2082 16.2537 15.1825 16.3023 15.167C16.3508 15.1515 16.4021 15.1466 16.4528 15.1526L16.2468 14.8678L15.925 15.0092L15.851 15.2522L16.0531 15.5132Z" fill="#CE4556"/>
<path d="M20.6928 10.0516C20.742 10.0382 20.7935 10.0354 20.8438 10.0435C20.8941 10.0515 20.9422 10.0702 20.9847 10.0984C21.0272 10.1265 21.0632 10.1634 21.0903 10.2066C21.1174 10.2497 21.1349 10.2982 21.1418 10.3487L21.3696 10.0772L21.1522 9.80103L20.8978 9.79059L20.6928 10.0516Z" fill="#45CE89"/>
<path d="M20.8342 10.7863C20.786 10.804 20.7345 10.8111 20.6832 10.8072C20.632 10.8033 20.5821 10.7884 20.5371 10.7636C20.4921 10.7387 20.453 10.7045 20.4224 10.6632C20.3917 10.6219 20.3703 10.5746 20.3596 10.5243L20.1546 10.809L20.3919 11.0672L20.6463 11.0587L20.8342 10.7863Z" fill="#1F8954"/>
<path d="M18.4233 6.55005C18.3868 6.51446 18.3582 6.4715 18.3396 6.42402C18.321 6.37655 18.3127 6.32565 18.3153 6.27473C18.3179 6.2238 18.3314 6.17401 18.3547 6.12868C18.3781 6.08336 18.4108 6.04353 18.4508 6.01186L18.1025 5.95206L17.9724 6.27858L18.0911 6.50448L18.4233 6.55005Z" fill="#8152AA"/>
<path d="M18.989 6.02231C19.0273 6.05589 19.058 6.09727 19.079 6.14368C19.1001 6.19009 19.1109 6.24045 19.1109 6.2914C19.1109 6.34235 19.1001 6.39272 19.079 6.43913C19.058 6.48553 19.0273 6.52691 18.989 6.5605L19.3411 6.59847L19.4493 6.26435L19.3174 6.04699L18.989 6.02231Z" fill="#4F2375"/>
<path d="M17.027 8.91351C17.0684 8.94345 17.1156 8.96422 17.1656 8.97444C17.2156 8.98466 17.2673 8.98409 17.317 8.97277C17.3668 8.96145 17.4136 8.93964 17.4543 8.90879C17.4949 8.87795 17.5285 8.83879 17.5529 8.79391L17.6696 9.12803L17.3687 9.31027L17.1219 9.23054L17.027 8.91351Z" fill="#DD9333"/>
<path d="M12.0837 5.79354C12.1202 5.82919 12.1639 5.85662 12.2119 5.87398C12.26 5.89134 12.3111 5.89823 12.362 5.89418C12.4129 5.89014 12.4623 5.87525 12.507 5.85053C12.5516 5.8258 12.5905 5.7918 12.6209 5.75082L12.6883 6.09823L12.3656 6.23491L12.1368 6.12575L12.0837 5.79354Z" fill="#BA1957"/>
<path d="M3.70137 7.62453L2.6715 8.0678C2.56329 8.11526 2.53007 8.28327 2.59841 8.44747C2.64967 8.56517 2.75693 8.63731 2.82432 8.60409L3.9567 8.11146C3.97992 8.09728 4.00009 8.07863 4.01607 8.05661C4.03204 8.03458 4.04349 8.00961 4.04975 7.98313C4.05602 7.95666 4.05698 7.9292 4.05257 7.90235C4.04817 7.8755 4.03849 7.84979 4.02409 7.82671C3.9548 7.66914 3.80958 7.57707 3.70137 7.62453Z" stroke="#641926" stroke-width="0.3" stroke-miterlimit="10"/>
<path d="M2.67341 10.5547L2.96956 11.6358C3.00088 11.7506 3.17174 11.8038 3.34923 11.7554C3.48117 11.7193 3.56945 11.6206 3.54951 11.5494L3.22299 10.3601C3.19547 10.2652 3.06922 10.2224 2.93824 10.2585C2.76074 10.3069 2.64209 10.4408 2.67341 10.5547Z" stroke="#641926" stroke-width="0.3" stroke-miterlimit="10"/>
<path d="M6.47964 11.0872L7.29499 11.857C7.38137 11.9377 7.55128 11.8987 7.67467 11.7697C7.76389 11.6747 7.78573 11.5466 7.73257 11.4963L6.83559 10.6496C6.78978 10.6189 6.73372 10.6074 6.67954 10.6177C6.62536 10.628 6.57741 10.6593 6.54609 10.7047C6.42269 10.8338 6.39611 11.0056 6.47964 11.0872Z" stroke="#641926" stroke-width="0.3" stroke-miterlimit="10"/>
<path d="M4.80147 13.9936L3.8257 14.546C3.72224 14.6039 3.70895 14.7757 3.79438 14.9257C3.85797 15.0377 3.97188 15.0937 4.03642 15.0576L5.109 14.4502C5.15053 14.4164 5.17738 14.3679 5.18393 14.3148C5.19048 14.2618 5.17621 14.2082 5.14412 14.1654C5.0587 14.0107 4.90398 13.9347 4.80147 13.9936Z" stroke="#641926" stroke-width="0.3" stroke-miterlimit="10"/>
<path d="M6.84033 17.6109L5.82659 17.124C5.72028 17.0728 5.57221 17.1563 5.49912 17.3139C5.44502 17.4268 5.4659 17.5502 5.53234 17.5825L6.64479 18.114C6.73971 18.1586 6.84507 18.0969 6.89918 17.983C6.93827 17.9251 6.95394 17.8545 6.94302 17.7854C6.9321 17.7163 6.8954 17.654 6.84033 17.6109Z" stroke="#641926" stroke-width="0.3" stroke-miterlimit="10"/>
<path d="M13.5302 18.5041H12.4092C12.2906 18.5041 12.1938 18.6389 12.1938 18.8031C12.1938 18.9246 12.2659 19.0243 12.339 19.0243H13.5729C13.6745 19.0243 13.7457 18.9246 13.7457 18.8031C13.7457 18.6389 13.6489 18.5041 13.5302 18.5041Z" stroke="#641926" stroke-width="0.3" stroke-miterlimit="10"/>
<path d="M11.665 15.3395L11.2958 14.2802C11.261 14.221 11.2048 14.1772 11.1388 14.158C11.0729 14.1388 11.002 14.1455 10.9408 14.1767C10.825 14.2166 10.751 14.3172 10.7785 14.3875L11.1838 15.5512C11.195 15.5751 11.2108 15.5966 11.2304 15.6144C11.25 15.6321 11.2729 15.6458 11.2978 15.6547C11.3227 15.6635 11.3491 15.6673 11.3755 15.6658C11.4019 15.6643 11.4277 15.6576 11.4515 15.6461C11.6081 15.5872 11.704 15.4515 11.665 15.3395Z" stroke="#641926" stroke-width="0.3" stroke-miterlimit="10"/>
<path d="M16.9777 15.7932L16.3569 14.9722C16.2914 14.8849 16.1338 14.8925 16.0057 14.9893C15.9108 15.0605 15.8747 15.1715 15.9155 15.2256L16.598 16.1293C16.6335 16.1646 16.6817 16.1845 16.7318 16.1845C16.782 16.1845 16.8301 16.1646 16.8657 16.1293C16.9928 16.0305 17.0432 15.8806 16.9777 15.7932Z" stroke="#641926" stroke-width="0.3" stroke-miterlimit="10"/>
<path d="M17.7778 11.6946L16.766 11.8845C16.6588 11.9044 16.5961 12.0506 16.6255 12.21C16.6474 12.3268 16.7309 12.4113 16.7973 12.3999L17.9107 12.1901C18.0057 12.173 18.0493 12.0648 18.0265 11.9471C17.9971 11.7886 17.8813 11.6747 17.7778 11.6946Z" stroke="#641926" stroke-width="0.3" stroke-miterlimit="10"/>
<path d="M20.8304 9.85893L20.2429 10.7047C20.2177 10.7628 20.2156 10.8284 20.2371 10.888C20.2586 10.9477 20.3021 10.9968 20.3587 11.0255C20.4536 11.09 20.5647 11.0891 20.6036 11.0331L21.249 10.1019C21.2602 10.0806 21.2671 10.0572 21.2693 10.0332C21.2714 10.0091 21.2688 9.9849 21.2616 9.96188C21.2544 9.93886 21.2426 9.91749 21.2271 9.89901C21.2116 9.88053 21.1926 9.86529 21.1712 9.85418C21.1244 9.81165 21.0631 9.78848 20.9999 9.78936C20.9366 9.79024 20.8761 9.81511 20.8304 9.85893Z" stroke="#641926" stroke-width="0.3" stroke-miterlimit="10"/>
<path d="M16.7973 8.25669L17.1998 9.20588C17.2425 9.30649 17.4029 9.33497 17.5567 9.26947C17.6715 9.22106 17.7389 9.12045 17.7123 9.05875L17.2691 8.01465C17.233 7.92827 17.1143 7.90739 17.0004 7.9558C16.8457 8.02414 16.7546 8.15702 16.7973 8.25669Z" stroke="#641926" stroke-width="0.3" stroke-miterlimit="10"/>
<path d="M19.2538 6.04127L18.2268 5.97008C18.1176 5.96249 18.0189 6.10202 18.0066 6.28142C17.998 6.41335 18.0559 6.52631 18.1233 6.53105L19.2538 6.60889C19.3487 6.61553 19.4199 6.51397 19.4294 6.37918C19.4418 6.20074 19.363 6.04792 19.2538 6.04127Z" stroke="#641926" stroke-width="0.3" stroke-miterlimit="10"/>
<path d="M12.5773 6.06122L12.7253 5.04179C12.7415 4.93454 12.6219 4.82728 12.4596 4.80355C12.34 4.78646 12.2327 4.83772 12.2223 4.90416L12.0599 6.02515C12.0467 6.12007 12.1349 6.19696 12.2545 6.21499C12.4168 6.23777 12.5659 6.16943 12.5773 6.06122Z" stroke="#641926" stroke-width="0.3" stroke-miterlimit="10"/>
<path d="M8.46157 6.54624L8.04392 5.6037C8.00026 5.50878 7.83985 5.47841 7.68798 5.5458C7.57503 5.59516 7.50953 5.69672 7.53706 5.75842L7.99552 6.79018C8.03348 6.87561 8.15213 6.89554 8.26509 6.84524C8.41696 6.78164 8.50523 6.64496 8.46157 6.54624Z" stroke="#641926" stroke-width="0.3" stroke-miterlimit="10"/>
<path d="M10.9589 2.58907L10.5412 1.64747C10.4976 1.54781 10.3277 1.52502 10.1616 1.59811C10.0401 1.65127 9.97171 1.75568 9.99544 1.81737L10.4539 2.85294C10.4919 2.93837 10.6172 2.95545 10.7387 2.90135C10.9048 2.82921 11.0025 2.68873 10.9589 2.58907Z" stroke="#641926" stroke-width="0.3" stroke-miterlimit="10"/>
<path d="M15.0783 3.43006L15.9326 2.852C16.0228 2.79126 16.0123 2.61661 15.9089 2.46379C15.832 2.35083 15.719 2.29578 15.6592 2.33375L14.7205 2.96875C14.6436 3.02096 14.6512 3.15005 14.7281 3.263C14.8297 3.41582 14.9882 3.49081 15.0783 3.43006Z" stroke="#641926" stroke-width="0.3" stroke-miterlimit="10"/>
<path d="M19.6715 14.9057L19.5765 13.7886C19.5607 13.7245 19.5208 13.669 19.4651 13.6337C19.4094 13.5983 19.3422 13.5858 19.2776 13.5987C19.1636 13.6082 19.0763 13.687 19.082 13.761L19.1855 14.9893C19.1896 15.0142 19.1987 15.038 19.2121 15.0594C19.2256 15.0808 19.2431 15.0993 19.2638 15.1138C19.2845 15.1283 19.3079 15.1385 19.3326 15.1439C19.3573 15.1492 19.3828 15.1496 19.4076 15.1449C19.5633 15.1307 19.6848 15.0234 19.6715 14.9057Z" stroke="#641926" stroke-width="0.3" stroke-miterlimit="10"/>
</svg>
