<svg width="24" height="24" viewBox="0 0 24 24" fill="none" xmlns="http://www.w3.org/2000/svg">
<path d="M5.69311 10.1333C5.69311 10.1333 3.94376 5.67895 6.24001 3.53278L7.47284 2.77503L8.48562 4.05666L8.20941 3.61932L8.36317 1.04502L9.68162 0.999908L10.7911 1.47131L10.699 2.05136L11.988 1.81842L12.1721 2.06977L12.5892 1.22456L13.9574 1.1242L14.3855 1.60942L15.3605 1.52932L16.1072 2.00348L17.4552 1.61218L18.2737 2.52552L17.6034 3.93973L19.1456 3.57145L20 4.57042C20 4.57042 16.8926 9.89119 17.5215 10.7631C17.5215 10.7631 13.9942 7.55719 9.72213 12.3532C8.90252 12.4531 8.07225 12.2925 7.34907 11.894C6.62589 11.4956 6.04651 10.8796 5.69311 10.1333Z" fill="#EAB14B"/>
<path d="M6.51254 4.06227C5.47743 5.65429 5.10294 7.58682 5.46846 9.45025C5.46846 9.45025 4.17118 5.36691 6.24001 3.53286L7.47284 2.77512C7.47284 2.77512 6.57423 4.05674 7.08062 4.57234L6.51254 4.06227Z" fill="#D69434"/>
<path d="M8.48652 1.14362C8.48652 1.14362 8.86769 9.36278 8.98831 9.74856C9.10892 10.1343 9.41367 11.4979 9.41367 11.4979L9.78196 12.1967L9.5794 12.4379H8.98831L8.46903 11.2797C8.46903 11.2797 7.36418 6.91462 8.48652 4.16906L8.2278 3.28058L8.3567 1.14362H8.48652Z" fill="#D69434"/>
<path d="M11.6943 2.17023C11.3844 2.41477 11.0528 2.63049 10.7036 2.81472C10.6843 2.74107 10.7036 2.17023 10.7036 2.17023L11.6943 1.82864V2.17023Z" fill="#D69434"/>
<path d="M11.6464 3.03841C11.4254 2.77049 10.8509 3.11023 10.6603 3.70869L11.1814 4.50418L10.4173 4.05672C10.4173 4.05672 8.60254 10.881 9.90995 12.135L9.68161 12.0485C9.68161 12.0485 8.49298 8.86558 9.37593 6.78938L10.0729 3.5402L11.0857 2.57898L11.6464 3.03841Z" fill="#D69434"/>
<path d="M13.7714 1.26237L12.8995 1.52938C12.5796 2.24611 12.3358 2.99445 12.1721 3.7621C12.2237 4.13038 11.8748 3.03842 11.8748 3.03842L12.5064 1.23107L13.7033 1.12427L13.7714 1.26237Z" fill="#D69434"/>
<path d="M14.9822 1.61223C14.7347 2.24686 14.5545 2.90571 14.4445 3.57794C14.5559 3.57794 13.9666 3.69856 13.9666 3.69856L14.6369 1.9041L14.4445 1.60947L14.9822 1.48978V1.61223Z" fill="#D69434"/>
<path d="M14.9821 3.64053L14.2281 4.05669L14.6746 4.7417L14.1047 4.4259L13.9012 4.22242C13.9012 4.22242 13.021 5.9598 12.9805 9.96488L12.7227 10.0818C12.6402 8.69278 12.7122 7.29888 12.9373 5.92573L13.3691 3.83756L14.8486 3.50519L14.9821 3.64053Z" fill="#D69434"/>
<path d="M16.3107 2.48044C16.3107 2.48044 15.4959 3.44902 15.5235 3.61935C15.6247 3.84536 15.757 4.0561 15.9166 4.24543H15.6607L15.1865 3.69301L15.6607 2.58816L16.1072 1.99799L16.3107 2.48044Z" fill="#D69434"/>
<path d="M18.0785 3.98485C16.9882 5.79067 16.3996 7.85469 16.3733 9.96393L16.273 10.0809L15.9627 9.93079C15.9627 9.93079 16.1247 5.7296 17.6531 3.83478H18.1742L18.0785 3.98485Z" fill="#D69434"/>
<path d="M8.46904 4.41851C8.46904 4.41851 7.37892 4.90188 7.36419 5.22229C7.34946 5.54269 7.11375 10.8386 8.68172 12.1985L8.73696 12.2445C8.73696 12.2445 7.77574 12.3753 7.82914 11.9748C7.58797 10.8586 7.26642 9.76132 6.867 8.69152L7.03457 4.83007L8.48653 4.05667L8.46904 4.41851Z" fill="#FFC476"/>
<path d="M10.5866 1.82852L9.89243 1.61215C9.67842 2.7883 9.57332 3.98168 9.57847 5.17713C9.57847 5.17713 9.10983 2.02463 9.59044 0.999878L10.7874 1.46852L10.5866 1.82852Z" fill="#FFC476"/>
<path d="M11.082 4.65051L11.5479 4.57225C11.5479 4.57225 10.153 8.99809 11.001 11.1277L11.302 10.8423C11.1403 10.1599 11.0762 9.45813 11.1115 8.75779C11.2625 8.29283 11.6188 5.77561 11.6188 5.77561L12.0635 4.16805V3.57788L11.082 4.65051Z" fill="#FFC476"/>
<path d="M14.5172 2.06977L14.0448 1.92706C14.0236 1.92182 14.0012 1.92432 13.9816 1.9341C13.962 1.94389 13.9466 1.96033 13.938 1.98047C13.6812 2.67468 11.7716 7.94758 12.2301 10.416H11.9926V8.03412L12.9787 3.57789L13.8377 1.12421L14.5172 2.06977Z" fill="#FFC476"/>
<path d="M16.1468 2.0974L15.6211 2.01822C15.5931 2.01368 15.5644 2.01864 15.5395 2.03233C15.5146 2.04601 15.4951 2.06762 15.4839 2.09372C15.2432 2.58253 15.0742 3.10348 14.9821 3.64051L14.9481 2.77505L15.1865 1.48605L16.1468 2.0974Z" fill="#FFC476"/>
<path d="M14.624 4.95898H15.425C15.425 4.95898 14.5439 8.01389 15.0245 9.70891L15.1414 8.41992L15.7288 5.41933L15.9295 4.56952L15.5226 4.42313L14.624 4.95898Z" fill="#FFC476"/>
<path d="M16.7416 2.95271L17.6356 3.03833C17.6356 3.03833 15.2988 6.41641 15.7472 9.78989L15.9645 9.85894L16.2812 7.17323L17.7544 3.6193L18.351 2.69859L18.2727 2.52826L16.7416 2.95271Z" fill="#FFC476"/>
<path d="M19.3592 3.96738L19.5728 4.57228C19.5728 4.57228 16.9396 8.01849 17.0685 10.4372L17.5288 10.6941C17.5288 10.6941 17.9164 8.57644 17.9827 8.42453C18.049 8.27261 20 4.57228 20 4.57228L19.3592 3.96738Z" fill="#FFC476"/>
<path d="M5.85057 10.5007L5.69312 10.1334C3.93181 5.56848 6.14703 3.54016 6.14703 3.54016L7.05485 4.74169C6.60302 7.2818 6.93707 9.89932 8.01239 12.2445" stroke="#641926" stroke-width="0.3" stroke-miterlimit="10"/>
<path d="M6.24002 3.45082L7.47285 2.77502L8.48655 4.05665L7.05393 4.74166" stroke="#641926" stroke-width="0.3" stroke-miterlimit="10"/>
<path d="M8.58139 4.06216C8.58139 4.06216 6.93884 8.6298 8.94967 12.366L8.98834 12.4581" stroke="#641926" stroke-width="0.3" stroke-miterlimit="10"/>
<path d="M8.20297 3.69854C8.2711 2.30275 8.36318 1.15555 8.36318 1.15555L9.59048 1.03125C9.27284 2.89845 9.26547 5.21495 9.5693 5.52615" stroke="#641926" stroke-width="0.3" stroke-miterlimit="10"/>
<path d="M9.68161 0.999908L10.7911 1.47131C10.6279 2.00758 10.5691 2.57017 10.618 3.12859" stroke="#641926" stroke-width="0.3" stroke-miterlimit="10"/>
<path d="M10.1328 3.60278L11.1741 2.57895L12.2302 3.48677L11.1115 4.57228L10.1328 3.60278Z" stroke="#641926" stroke-width="0.3" stroke-miterlimit="10"/>
<path d="M10.0702 3.6405C10.0702 3.6405 8.13668 9.60853 9.69636 12.0742L9.71846 12.1083L9.81606 12.2445" stroke="#641926" stroke-width="0.3" stroke-miterlimit="10"/>
<path d="M10.5434 11.496C9.54075 8.5884 11.1115 4.57227 11.1115 4.57227" stroke="#641926" stroke-width="0.3" stroke-miterlimit="10"/>
<path d="M11.2367 10.9205C10.5637 8.31492 12.3057 3.42688 12.3057 3.42688" stroke="#641926" stroke-width="0.3" stroke-miterlimit="10"/>
<path d="M10.7036 2.05133L11.7523 1.81839L11.7081 3.03833" stroke="#641926" stroke-width="0.3" stroke-miterlimit="10"/>
<path d="M12.1721 2.06977L11.8121 1.73831" stroke="#641926" stroke-width="0.3" stroke-miterlimit="10"/>
<path d="M11.849 3.159C11.9301 2.78856 12.0381 2.42453 12.1721 2.0698C12.3415 1.60393 12.5064 1.23104 12.5064 1.23104L13.8009 1.12424C13.8009 1.12424 11.5451 7.32245 11.9917 10.4234" stroke="#641926" stroke-width="0.3" stroke-miterlimit="10"/>
<path d="M13.9012 1.04507L14.5549 1.96578C14.5549 1.96578 14.2695 2.75759 13.9464 3.76208" stroke="#641926" stroke-width="0.3" stroke-miterlimit="10"/>
<path d="M13.5228 3.86973L14.9554 3.50421L15.8274 4.42124L14.5549 4.83003L13.5228 3.86973Z" stroke="#641926" stroke-width="0.3" stroke-miterlimit="10"/>
<path d="M12.696 10.0809C12.2467 8.21462 13.3672 3.83389 13.3672 3.83389" stroke="#641926" stroke-width="0.3" stroke-miterlimit="10"/>
<path d="M13.6563 9.7899C13.7823 8.10983 14.0835 6.44753 14.555 4.83005" stroke="#641926" stroke-width="0.3" stroke-miterlimit="10"/>
<path d="M15.089 9.74663C15.1694 7.95446 15.4627 6.17822 15.9627 4.45532" stroke="#641926" stroke-width="0.3" stroke-miterlimit="10"/>
<path d="M14.3855 1.60943L15.1865 1.52933C15.1865 1.52933 14.9103 2.80083 14.844 3.53279" stroke="#641926" stroke-width="0.3" stroke-miterlimit="10"/>
<path d="M15.2979 1.48975L16.3696 2.17015" stroke="#641926" stroke-width="0.3" stroke-miterlimit="10"/>
<path d="M16.1837 2.05136L16.8107 2.81279L18.2737 2.52553L17.3244 1.61218L16.1837 2.05136Z" stroke="#641926" stroke-width="0.3" stroke-miterlimit="10"/>
<path d="M15.1387 3.69667C15.4236 3.11043 15.7742 2.55846 16.1837 2.05136" stroke="#641926" stroke-width="0.3" stroke-miterlimit="10"/>
<path d="M15.8117 4.42589L15.8191 4.413C16.2794 3.62027 16.8098 2.81281 16.8098 2.81281" stroke="#641926" stroke-width="0.3" stroke-miterlimit="10"/>
<path d="M15.9728 9.96398C15.9615 7.84539 16.525 5.76341 17.6034 3.93978C17.8639 3.45437 18.1516 2.98406 18.4652 2.5311" stroke="#641926" stroke-width="0.3" stroke-miterlimit="10"/>
<path d="M17.6034 3.93972L18.9513 3.69666C18.9513 3.69666 16.3632 7.94757 16.5989 10.2337" stroke="#641926" stroke-width="0.3" stroke-miterlimit="10"/>
<path d="M19.1456 3.57791L20 4.57688C20 4.57688 17.3861 8.47056 17.5261 10.8414" stroke="#641926" stroke-width="0.3" stroke-miterlimit="10"/>
<path d="M5.52278 10.2374C5.52278 10.2374 7.57504 12.8614 9.5785 12.436C9.5785 12.436 13.3405 7.51485 17.6807 10.9905C17.6807 10.9905 19.7864 16.025 15.8872 21.6339C15.8872 21.6339 12.4023 23.3068 11.2072 23.0242C11.2072 23.0242 9.76448 23.0629 7.32645 20.8734C6.22124 19.362 5.4829 17.6142 5.16985 15.7682C4.8568 13.9222 4.97763 12.0286 5.52278 10.2374Z" fill="#C92F29"/>
<path opacity="0.65" d="M11.849 10.6941C13.1539 10.7579 14.4504 10.94 15.7224 11.2383C16.172 11.3629 16.5762 11.6145 16.8865 11.963C17.1968 12.3115 17.4 12.742 17.4717 13.2031C17.776 14.8546 17.6521 16.5565 17.1119 18.1465C16.5716 19.7365 15.633 21.1616 14.3855 22.2858L15.9876 21.6414L17.5224 18.8166C17.5224 18.8166 18.7902 14.8438 18.1319 13.598L17.9717 11.4961L17.5979 10.8414C17.5979 10.8414 14.2502 8.39789 11.849 10.6941Z" fill="#EA6565"/>
<path opacity="0.57" d="M5.52277 10.2374C5.52277 10.2374 7.88623 12.9507 9.57849 12.436C9.57849 12.436 8.16152 20.17 11.2109 23.0242C11.2109 23.0242 10.1282 23.3455 7.36327 21.0235C6.25797 19.4832 5.51783 17.7115 5.19894 15.8427C4.88006 13.9739 4.9908 12.057 5.52277 10.2374Z" fill="#8C1F1F"/>
<path d="M9.72212 12.355C10.443 11.4859 13.7861 7.88865 17.5527 10.8616C17.7037 10.9808 17.8117 11.146 17.8603 11.3321C18.1871 12.5925 19.0636 17.6113 16.0557 21.47C15.9944 21.5493 15.9204 21.6177 15.8365 21.6726C14.4786 22.5449 12.9113 23.0368 11.2984 23.0969C11.1962 23.0969 8.12561 19.7824 9.53521 12.7491C9.56399 12.6043 9.62821 12.4689 9.72212 12.355Z" stroke="#641926" stroke-width="0.3" stroke-miterlimit="10"/>
<path d="M11.2984 23.0969C9.65584 22.9459 7.86691 21.3862 7.48021 21.0327C7.43159 20.9879 7.38635 20.9396 7.34487 20.8881C3.55155 16.1658 5.5679 10.0891 5.5679 10.0891C5.65478 10.2312 5.74913 10.3686 5.85056 10.5007C6.40164 11.2654 7.14836 11.8677 8.01238 12.2445C8.32466 12.366 8.65389 12.4384 8.98833 12.459C9.21515 12.472 9.4427 12.4599 9.66689 12.4231" stroke="#641926" stroke-width="0.3" stroke-miterlimit="10"/>
<path d="M14.3855 17.2329C15.2698 17.2329 15.9866 16.5161 15.9866 15.6318C15.9866 14.7475 15.2698 14.0307 14.3855 14.0307C13.5013 14.0307 12.7844 14.7475 12.7844 15.6318C12.7844 16.5161 13.5013 17.2329 14.3855 17.2329Z" fill="#F79A2B"/>
</svg>
