<svg width="24" height="24" viewBox="0 0 24 24" fill="none" xmlns="http://www.w3.org/2000/svg">
<path d="M4.20001 7.50002V11.7C4.20001 12.9 5.10001 14.1 6.60001 15L6.90001 18C6.90001 18.3 7.08001 18.9 7.80001 18.9C8.52001 18.9 8.70001 18.3 8.70001 18C8.80001 17.5 9.00001 16.2 9.00001 15C10.8 14.4 11.1 13.2 11.4 11.7C11.64 10.5 11.4 7.80002 11.1 6.60002C11.035 6.34016 10.68 6.00002 10.2 6.00002C9.72002 6.00002 9.60001 6.60002 9.60001 6.90002C9.60001 7.20002 9.90001 9.00002 9.90001 9.60002C9.90001 10.2 9.90001 10.5 9.30001 10.5C8.58001 10.5 8.70002 9.90002 8.70001 9.60002V6.60002C8.70001 6.20002 8.52001 5.40002 7.80001 5.40002C7.08001 5.40002 6.90001 6.20002 6.90001 6.60002V9.60002C6.90002 9.90002 7.02001 10.5 6.30001 10.5C5.58001 10.5 5.70001 9.90002 5.70001 9.60002C5.70001 9.30002 6.00001 8.10002 6.00001 7.50002C6.00001 6.90002 5.82001 6.00002 5.10001 6.00002C4.38001 6.00002 4.20001 7.00002 4.20001 7.50002Z" fill="white"/>
<path d="M16.4998 5.39996C14.5798 5.39996 13.4998 8.59996 13.1998 10.2C12.8998 12 13.1998 12.6 13.4998 13.2C13.7398 13.68 14.7998 14.6 15.2998 15L15.5998 18C15.5998 18.3 15.7798 18.9 16.4998 18.9C17.2198 18.9 17.3998 18.3 17.3998 18L17.6998 15L19.4998 13.2C20.2198 12.48 19.9998 10.9 19.7998 10.2C19.4998 8.59996 18.4198 5.39996 16.4998 5.39996Z" fill="white"/>
</svg>
