<svg width="24" height="24" viewBox="0 0 24 24" fill="none" xmlns="http://www.w3.org/2000/svg">
<path d="M17.2531 12.1099L14.4098 19.3708L12.9705 23.047C12.9165 23.1026 12.8493 23.1436 12.7752 23.1664C12.7011 23.1892 12.6225 23.193 12.5465 23.1775C12.4705 23.1619 12.3997 23.1275 12.3406 23.0774C12.2814 23.0273 12.2358 22.9631 12.2079 22.8908L8.0372 12.2412C8.0372 12.2412 8.71106 12.2781 8.70089 12.2597C8.69073 12.2412 10.227 12.0923 10.227 12.0923L11.449 12.5296L12.5583 12.781L13.6102 12.5545L14.627 11.754L14.9431 11.8992L14.8109 13.001V13.8995L15.1576 14.1601L15.8222 13.9328L15.9442 13.2857L15.7917 12.4214L16.1984 12.0609L17.1727 12.1062L17.2531 12.1099Z" fill="#D3884A"/>
<path d="M17.0516 12.1099C17.0516 12.1099 16.582 12.3697 15.8665 12.7348" stroke="#BA703E" stroke-width="0.4" stroke-miterlimit="10" stroke-linecap="round"/>
<path d="M8.70087 13.9355C9.14173 13.9176 9.57374 13.8061 9.96817 13.6083C10.5175 13.3487 11.0433 13.0419 11.5396 12.6913" stroke="#BA703E" stroke-width="0.4" stroke-miterlimit="10" stroke-linecap="round"/>
<path d="M11.6487 21.4645C11.6487 21.4645 12.3068 22.595 13.1942 22.4868" stroke="#BA703E" stroke-width="0.4" stroke-miterlimit="10" stroke-linecap="round"/>
<path d="M13.6102 21.4645C12.8374 21.7233 10.9822 19.7683 10.9822 19.7683" stroke="#BA703E" stroke-width="0.4" stroke-miterlimit="10" stroke-linecap="round"/>
<path d="M10.0098 17.278C10.0098 17.278 13.1323 20.4597 14.2619 19.7683" stroke="#BA703E" stroke-width="0.4" stroke-miterlimit="10" stroke-linecap="round"/>
<path d="M14.9487 17.9546C13.3616 18.635 8.95511 14.5853 8.95511 14.5853" stroke="#BA703E" stroke-width="0.4" stroke-miterlimit="10" stroke-linecap="round"/>
<path d="M15.4894 16.3084C13.9439 16.7983 8.13702 12.2597 8.13702 12.2597" stroke="#BA703E" stroke-width="0.4" stroke-miterlimit="10" stroke-linecap="round"/>
<path d="M11.4841 12.6304C11.4841 12.6304 15.0392 15.2676 15.9516 14.9136" stroke="#BA703E" stroke-width="0.4" stroke-miterlimit="10" stroke-linecap="round"/>
<path d="M15.9756 13.5233C16.1902 13.5844 16.4173 13.5863 16.6329 13.5289" stroke="#BA703E" stroke-width="0.4" stroke-miterlimit="10" stroke-linecap="round"/>
<path d="M14.2573 12.0619C14.442 12.3118 14.6398 12.5519 14.8498 12.781" stroke="#BA703E" stroke-width="0.4" stroke-miterlimit="10" stroke-linecap="round"/>
<path d="M12.0526 22.4943C12.0526 22.4943 13.5483 21.6328 13.8311 20.8914" stroke="#BA703E" stroke-width="0.4" stroke-miterlimit="10" stroke-linecap="round"/>
<path d="M11.3594 20.7251C11.8641 20.8225 12.3856 20.785 12.8712 20.6164C13.3568 20.4477 13.7894 20.1539 14.1251 19.7646" stroke="#BA703E" stroke-width="0.4" stroke-miterlimit="10"/>
<path d="M11.022 19.8662C11.022 19.8662 13.9439 19.1785 14.8119 17.9981" stroke="#BA703E" stroke-width="0.4" stroke-miterlimit="10" stroke-linecap="round"/>
<path d="M10.3167 17.8382C10.3167 17.8382 14.2582 18.0313 15.4931 16.5339" stroke="#BA703E" stroke-width="0.4" stroke-miterlimit="10" stroke-linecap="round"/>
<path d="M16.1984 14.6667C16.1984 14.6667 10.6153 17.2845 9.64468 16.3444" stroke="#BA703E" stroke-width="0.4" stroke-miterlimit="10" stroke-linecap="round"/>
<path d="M14.7518 13.2848C14.321 13.4918 13.857 13.7063 13.3837 13.9115C12.7524 14.1888 12.1053 14.443 11.5045 14.6427C10.8539 14.896 10.1626 15.0285 9.46441 15.0337C9.33664 15.0251 9.21143 14.9938 9.09467 14.9413" stroke="#BA703E" stroke-width="0.4" stroke-miterlimit="10" stroke-linecap="round"/>
<path opacity="0.21" d="M13.9439 12.2597C13.9439 12.2597 15.0319 13.8663 14.8516 14.4782C14.7185 14.9275 12.9742 19.8894 12.4483 21.3851C12.4337 21.426 12.4084 21.4623 12.3748 21.4899C12.3413 21.5176 12.301 21.5357 12.258 21.5422C12.215 21.5488 12.1711 21.5435 12.1309 21.5271C12.0906 21.5107 12.0556 21.4836 12.0295 21.4488L11.3594 20.5541L12.2985 23.1848H12.9456L13.9347 20.628L17.1468 11.9908L16.1984 12.1849L15.8287 12.6092L16.0884 13.527L15.6493 14.3063L14.9894 14.1066L14.737 13.527L15.0282 12.305L14.8146 11.9621H14.26L13.9439 12.2597Z" fill="#0C0C0C"/>
<path opacity="0.34" d="M10.3167 14.2333C10.3527 15.6797 10.6616 17.1064 11.2272 18.4382C11.2634 18.5047 11.3168 18.5603 11.3819 18.5992C11.4469 18.638 11.5212 18.6587 11.5969 18.6591C11.6641 18.6592 11.7303 18.6431 11.79 18.6124C11.8497 18.5816 11.9012 18.5369 11.9401 18.4822C11.9791 18.4274 12.0043 18.3641 12.0137 18.2976C12.0232 18.2311 12.0165 18.1633 11.9944 18.0999C11.5286 16.866 11.2912 15.5577 11.2937 14.2388C11.2977 14.1812 11.2897 14.1233 11.2703 14.0689C11.251 14.0145 11.2206 13.9646 11.1812 13.9224C11.1418 13.8802 11.0941 13.8465 11.0411 13.8235C10.9881 13.8005 10.9309 13.7886 10.8731 13.7886H10.7363C10.6791 13.7888 10.6226 13.8006 10.5701 13.8233C10.5176 13.8461 10.4703 13.8792 10.431 13.9208C10.3918 13.9624 10.3614 14.0116 10.3417 14.0653C10.3221 14.119 10.3135 14.1761 10.3167 14.2333Z" fill="white"/>
<path d="M17.2531 11.902L17.1745 12.1063L14.4098 19.3709L13.0713 22.8835C13.0489 22.9434 13.0147 22.9981 12.9705 23.0443C12.9165 23.0999 12.8493 23.141 12.7752 23.1638C12.7011 23.1866 12.6225 23.1904 12.5465 23.1748C12.4705 23.1593 12.3997 23.1249 12.3406 23.0747C12.2814 23.0246 12.2358 22.9605 12.2079 22.8881L8.0372 12.2413" stroke="#641926" stroke-width="0.4" stroke-miterlimit="10" stroke-linecap="round"/>
<path d="M8.42267 12.3013L7.02596 11.7097L6.13025 10.4729L6.23008 9.24625L6.86235 8.29508L7.66932 7.70811L8.11301 6.48148L8.7767 5.66157L9.12981 5.4767L9.22779 4.68174L9.84157 3.75738L11.0996 2.93285L12.1312 2.29411L13.27 1L13.9069 1.90495L14.9413 2.96705L15.6669 4.02729L15.5652 5.02376C15.5652 5.02376 15.3998 5.5109 15.6383 5.42031C15.8767 5.32972 16.4942 5.86401 16.4942 5.86401L17.3261 6.2661L17.7273 6.8161V7.86803L18.4206 8.43281L18.9752 9.29894V10.3157L18.4631 11.0414L17.3289 11.9907H16.0515L15.9424 12.6146L16.0256 13.1693L15.7399 13.8163L15.5652 14.1861L15.2399 14.0465L14.8923 13.4068L15.03 12.3041L15.0245 11.9445L14.7278 11.7125L13.6888 12.4409L12.2098 12.6174L11.1717 12.3059L10.0856 11.9907L8.42267 12.3013Z" fill="#80ED97"/>
<path d="M7.59354 7.82733C7.59354 7.82733 5.7633 10.3453 7.1101 11.1051C8.45689 11.865 9.9331 11.3122 10.411 11.4092C10.9268 11.5155 13.442 12.17 14.5549 11.3445C15.6679 10.5191 16.4711 11.6699 17.1431 11.2789C17.8152 10.8879 19.2063 9.95429 18.2524 8.56405L18.3448 8.55203L18.7885 9.23976L18.9928 9.81379L18.77 10.7585L17.6774 11.7568L16.5331 12.2597C16.3396 12.2439 16.1451 12.2439 15.9516 12.2597C15.9461 12.292 15.9516 12.9613 15.9516 12.9613V13.7932L15.5514 14.1814L14.9506 14.0723L14.8535 13.2506L14.8184 11.9629L14.4486 11.9066L13.7156 12.6349L12.4797 12.696L11.3455 12.6349L10.3167 12.0923L8.89042 12.3697L7.40404 12.0655L6.47968 11.425L6.00363 10.2658L6.28094 8.93842L7.59354 7.82733Z" fill="#5FCE72"/>
<path d="M7.64157 7.89117C7.64157 7.89117 7.70813 9.59385 9.87853 9.64747C12.0693 9.7057 11.7106 9.47554 12.6452 9.77595C13.5797 10.0764 16.851 10.7641 17.5563 8.15832L16.3047 9.25646C16.3047 9.25646 14.7009 9.71864 14.6519 9.71864C14.603 9.71864 12.6729 9.28604 12.6729 9.28604L11.1283 9.31654L9.54299 9.02537L7.8588 8.33672L7.64157 7.89117Z" fill="#AEFFB9"/>
<path d="M8.30433 6.41406C8.30433 6.41406 8.13702 7.89305 9.08172 8.22212C10.0699 8.56876 17.1172 9.49312 17.5563 7.31809L17.3502 8.34321L16.4591 9.17514L15.1132 9.65581L13.1249 9.38774L11.9519 9.17884L10.52 9.28514L8.77668 8.8248L7.73862 8.08993V7.28574L8.30433 6.41406Z" fill="#5FCE72"/>
<path d="M8.96155 5.85382C8.96155 5.85382 10.5173 9.45884 14.6871 6.57667L13.6777 6.96768L11.9093 7.17936L10.2076 6.92701L9.44222 6.39735L8.96155 5.85382Z" fill="#AEFFB9"/>
<path d="M9.27402 4.60491C9.69774 4.20459 10.1895 3.88311 10.7262 3.65559C11.6266 3.1878 12.4509 2.5863 13.1711 1.87156C13.1809 1.85906 13.1934 1.84887 13.2076 1.84171C13.2218 1.83456 13.2374 1.83062 13.2532 1.83018C13.2691 1.82974 13.2849 1.83281 13.2995 1.83916C13.3141 1.84551 13.327 1.855 13.3375 1.86694C13.9524 2.62422 14.638 3.32125 15.385 3.94861C15.385 3.94861 14.2286 2.53156 14.2286 2.5103C14.2286 2.48904 13.1942 1.26703 13.1942 1.26703L12.7237 1.79854L10.6827 3.23777L9.44503 4.14735L9.27402 4.60491Z" fill="#AEFFB9"/>
<path d="M9.4598 4.14752L9.84341 4.94248C10.0186 5.30606 10.321 5.59283 10.6933 5.74852C11.0657 5.90421 11.4822 5.91802 11.8641 5.78734C13.2127 5.32516 15.14 4.72433 15.6641 4.85466L15.4284 5.47398L15.5477 5.50634C15.5477 5.50634 14.7962 6.67566 14.3025 6.76347C14.016 6.81223 13.7347 6.88774 13.4623 6.98902L12.1534 7.08145L10.3906 6.88826L9.35812 6.15247L9.13535 5.03399L9.4598 4.14752Z" fill="#5FCE72"/>
<path d="M14.8516 13.0028C14.8516 13.0028 14.9912 14.2498 15.8305 13.6711L15.4709 14.1629L14.9912 14.1028L14.8516 13.7201V13.0028Z" fill="#80ED97"/>
<path d="M14.6519 6.43075C13.9698 7.14066 10.2372 7.83301 9.29062 6.02403C9.09125 5.60089 9.05924 5.11802 9.20102 4.67228C9.3428 4.22653 9.64789 3.85088 10.0551 3.62068C10.2686 3.45198 10.5002 3.30751 10.7456 3.18993C11.3325 2.90707 12.8522 2.09455 13.1979 1.12305" stroke="#641926" stroke-width="0.4" stroke-miterlimit="10" stroke-linecap="round"/>
<path d="M13.1942 1.11926C13.6285 1.87014 14.1946 2.53649 14.8655 3.08631C15.2239 3.3331 15.4827 3.69937 15.5957 4.11956C15.7086 4.53976 15.6683 4.98644 15.482 5.37966C15.4124 5.52562 15.3225 5.66099 15.2149 5.78176" stroke="#641926" stroke-width="0.4" stroke-miterlimit="10" stroke-linecap="round"/>
<path d="M15.4247 5.36389C15.4247 5.36389 18.2422 6.05994 17.5119 7.93917C16.7817 9.8184 14.3293 9.79252 13.4641 9.51059C12.7199 9.15956 11.8767 9.07851 11.0793 9.28135C10.5394 9.34143 8.12777 8.96706 7.77744 7.93455C7.36332 6.71624 9.05306 5.59313 9.05306 5.59313" stroke="#641926" stroke-width="0.4" stroke-miterlimit="10"/>
<path d="M7.73308 7.76636C6.70427 8.16846 5.46932 9.65206 6.24209 11.0756C6.86233 12.2172 8.27569 12.3346 9.08913 12.3346C9.39535 12.3317 9.69932 12.2819 9.99038 12.1867C10.2335 12.1553 10.4804 12.1736 10.7162 12.2405C10.952 12.3074 11.1718 12.4215 11.3621 12.5758C11.7738 12.7206 12.2107 12.78 12.6461 12.7506C13.0815 12.7212 13.5064 12.6036 13.8949 12.4048C14.1824 12.1663 14.346 11.9131 14.6344 11.8336" stroke="#641926" stroke-width="0.4" stroke-miterlimit="10"/>
<path d="M16.3066 12.11C16.3805 12.11 16.4545 12.1008 16.5294 12.0915C16.9824 12.0262 17.4167 11.8665 17.8042 11.6229C18.1918 11.3793 18.5239 11.0572 18.7793 10.6772C19.6556 9.2833 17.6497 7.87365 17.5092 7.93928" stroke="#641926" stroke-width="0.4" stroke-miterlimit="10"/>
<path d="M11.3455 4.09015L11.6949 4.18813C11.8163 4.22226 11.945 4.22127 12.0659 4.18527C12.1868 4.14928 12.295 4.07976 12.378 3.98477L12.6322 3.6936C12.7088 3.6061 12.8136 3.5482 12.9284 3.52996C13.0433 3.51172 13.1609 3.5343 13.2608 3.59376" stroke="#641926" stroke-width="0.4" stroke-miterlimit="10" stroke-linecap="round"/>
<path d="M16.3463 12.108H16.3066C16.2271 12.1065 16.1486 12.1255 16.0786 12.1632C16.0086 12.2009 15.9496 12.256 15.9071 12.3232C15.8646 12.3903 15.8402 12.4674 15.8362 12.5467C15.8322 12.6261 15.8487 12.7052 15.8842 12.7763C16.0931 13.2025 16.0145 14.0797 15.4895 14.1629C14.9478 14.247 14.4569 13.9946 14.9284 12.5175C15.0679 12.0821 14.8433 11.8852 14.6326 11.8298" stroke="#641926" stroke-width="0.4" stroke-miterlimit="10" stroke-linecap="round"/>
</svg>
