<svg width="24" height="24" viewBox="0 0 24 24" fill="none" xmlns="http://www.w3.org/2000/svg">
<path d="M9.22327 7.6626L8.66492 8.03986L8.55646 9.73756C8.55646 9.73756 8.81111 12.9245 8.8196 12.9792C8.82809 13.0339 9.80238 16.966 9.80238 16.966L11.302 20.5981L11.1568 20.9754L11.2369 21.4856L10.1995 22.4552L9.79389 23.2531L9.81653 23.504C9.81653 23.504 10.722 23.6313 10.771 23.6304H15.3821L15.4444 23.0899L14.6238 21.8214L14.0438 21.4649L14.2051 20.932L13.8967 20.6019L14.1306 20.3189L15.086 17.4819L15.9348 13.7432L16.347 11.0806L16.6733 7.95121L15.8679 7.58243L16.1508 8.06344V8.73781L15.9622 10.4978L15.1237 14.8995L14.1306 18.641L13.5449 19.8502L13.2544 20.1567L12.0018 20.1671L11.2709 19.2371L10.1391 16.0766L9.56093 12.85L9.05539 9.19052L8.9441 8.36997L9.22327 7.6626Z" fill="#89CEF4"/>
<path d="M16.7846 7.89172L16.0027 7.58142L16.197 8.30011L15.4717 13.0744L14.2456 17.9987C13.9185 18.8901 13.5332 19.759 13.0921 20.5999C12.8186 20.914 13.8052 20.5999 13.8052 20.5999L14.9143 18.4797L16.0461 13.2065L16.7846 7.89172Z" fill="#60B9D8"/>
<path d="M13.0441 20.8904C13.0441 20.8904 13.311 21.362 13.0441 21.6034C12.7771 21.8449 13.3487 21.7317 13.3487 21.7317C13.3487 21.7317 15.0398 22.8239 14.7012 23.6284L15.3888 23.5718V22.8739L14.2777 21.7006L14.0353 21.2101L14.1296 20.8508L13.8957 20.5999L12.9724 20.83L13.0441 20.8904Z" fill="#60B9D8"/>
<path d="M8.66491 8.03416C8.66491 8.03416 7.76702 13.265 11.1426 20.251C11.2169 20.4055 11.334 20.5354 11.48 20.6253C11.6259 20.7153 11.7946 20.7615 11.966 20.7584L13.3553 20.732C13.5279 20.7283 13.6957 20.6749 13.8388 20.5782C13.9818 20.4815 14.0939 20.3456 14.1617 20.1868C14.7276 18.8664 16.0923 15.0428 16.6743 7.99832" stroke="#641926" stroke-width="0.3" stroke-miterlimit="10"/>
<path d="M11.5341 20.6641C11.4611 20.6766 11.3919 20.7054 11.3316 20.7484C11.2714 20.7914 11.2216 20.8475 11.1861 20.9124C11.1505 20.9773 11.1301 21.0495 11.1263 21.1234C11.1226 21.1973 11.1356 21.2711 11.1643 21.3394C11.1861 21.4125 11.2261 21.4788 11.2805 21.5323C11.335 21.5857 11.4021 21.6245 11.4756 21.6449C12.2657 21.9173 13.1313 21.8668 13.8844 21.5044C13.9795 21.452 14.0527 21.3674 14.091 21.2658C14.1404 21.1494 14.148 21.0196 14.1126 20.8982C14.0772 20.7768 14.0009 20.6715 13.8967 20.5999" stroke="#641926" stroke-width="0.3" stroke-miterlimit="10"/>
<path d="M11.2369 21.4837C10.5753 21.8989 10.0683 22.5199 9.79389 23.2512C9.71749 23.5058 9.89952 23.6445 10.1655 23.6351L12.746 23.6068L15.1916 23.5709C15.4463 23.5624 15.518 23.3323 15.4444 23.088C15.193 22.3927 14.6944 21.8142 14.0438 21.463" stroke="#641926" stroke-width="0.3" stroke-miterlimit="10"/>
<path d="M9.05539 9.19042L9.54489 9.61013L10.2268 9.74123L11.419 9.68087L12.2074 9.98551L12.9676 9.96947L13.7212 9.41678L14.2551 9.57429L14.9304 9.62711L15.8037 9.19042L16.1508 8.7377L15.3878 13.5827L14.1306 18.3316L13.3345 20.2047L12.0009 20.167L11.6717 19.8784L10.787 18.0128L9.92027 14.9079L9.20818 10.6146L9.05539 9.19042Z" fill="#FF87AB"/>
<path d="M9.62696 9.68183L9.72977 9.76295C9.87124 9.8732 10.0333 9.95417 10.2064 10.0011C10.3795 10.0481 10.5602 10.0601 10.738 10.0365C10.9369 9.98107 11.1454 9.96949 11.3492 10.0025L12.1839 10.2921C12.3339 10.3442 12.4929 10.365 12.6513 10.3531C12.8096 10.3413 12.9639 10.2971 13.1044 10.2232L13.7939 9.86198C13.8451 9.83508 13.9034 9.82455 13.9608 9.8318L14.6521 9.91857C14.8605 9.94445 15.0721 9.91741 15.2673 9.83993C15.4624 9.76245 15.6349 9.63704 15.7689 9.47528L15.9848 9.21403C15.992 9.2054 15.9972 9.19527 16 9.18438C16.0028 9.1735 16.0031 9.16212 16.001 9.15109C15.9988 9.14007 15.9942 9.12966 15.9875 9.12064C15.9808 9.11162 15.9721 9.10421 15.9622 9.09896C15.951 9.09268 15.9383 9.08939 15.9254 9.08939C15.9125 9.08939 15.8999 9.09268 15.8886 9.09896L15.0549 9.59601C15.0414 9.6046 15.0254 9.60827 15.0096 9.60638L13.8891 9.49226C13.8733 9.49037 13.8573 9.49404 13.8439 9.50263L13.0176 9.99308C13.0072 9.99892 12.9956 10.0025 12.9837 10.0035L12.398 10.0374C12.387 10.0374 12.3762 10.0355 12.3659 10.0317L11.4416 9.66769C11.4304 9.66369 11.4185 9.66209 11.4067 9.66297L10.389 9.76672C10.3791 9.76909 10.3688 9.76909 10.3589 9.76672L9.69864 9.55545C9.68247 9.55059 9.66513 9.55137 9.64946 9.55766C9.63379 9.56394 9.62072 9.57536 9.61239 9.59005C9.60406 9.60474 9.60097 9.62182 9.60361 9.63849C9.60626 9.65517 9.61449 9.67045 9.62696 9.68183Z" fill="#DD668E"/>
<path d="M9.54489 9.61011C9.54489 9.61011 10.6767 17.843 11.8802 19.5275C11.9454 19.6178 12.0346 19.688 12.1377 19.7303C12.4725 19.868 13.3081 20.1952 13.3487 20.0566L12.7998 20.3018L11.8189 20.0594L10.9153 18.3202L9.83539 14.6598L9.30721 11.0145L9.05539 9.1904L9.54489 9.61011Z" fill="#FFCAE0"/>
<path opacity="0.49" d="M10.639 12.2237C10.6733 13.6187 10.9709 14.9947 11.5161 16.2793C11.551 16.3436 11.6027 16.3973 11.6656 16.4347C11.7285 16.472 11.8004 16.4917 11.8736 16.4915C11.9383 16.4916 12.0022 16.4762 12.0597 16.4466C12.1173 16.417 12.167 16.3741 12.2046 16.3213C12.2421 16.2686 12.2666 16.2077 12.2758 16.1436C12.285 16.0795 12.2787 16.0141 12.2574 15.953C11.8086 14.7646 11.5797 13.5044 11.5821 12.2341C11.586 12.1784 11.5784 12.1226 11.5598 12.07C11.5412 12.0174 11.5119 11.9693 11.4739 11.9285C11.4358 11.8877 11.3898 11.8552 11.3387 11.833C11.2875 11.8107 11.2324 11.7992 11.1766 11.7993H11.0445C10.9897 11.7993 10.9354 11.8105 10.885 11.8321C10.8346 11.8537 10.7891 11.8853 10.7512 11.9249C10.7133 11.9646 10.6838 12.0115 10.6645 12.0628C10.6453 12.1142 10.6366 12.1689 10.639 12.2237Z" fill="#FFABCD"/>
<path d="M9 8C9 8 9.61942 16.7716 11.7066 19.9331C11.7617 20.0166 11.8366 20.0851 11.9247 20.1325C12.0128 20.1799 12.1112 20.2047 12.2112 20.2047H12.9516C13.0615 20.205 13.1694 20.1752 13.2635 20.1185C13.3576 20.0618 13.4344 19.9804 13.4854 19.8831C13.9674 18.956 15.2944 15.7266 16.2112 8.48212" stroke="#641926" stroke-width="0.3" stroke-miterlimit="10"/>
<path d="M10.0061 6.72407L9.91179 7.24281L9.5732 7.51444L8.06602 1.4282L8 1.16128L8.27257 1.08206L8.55647 1L8.64512 1.34803L8.81584 2.02333L10.0061 6.72407Z" fill="#F2F2F2"/>
<path d="M9.35248 6.62314L9.87499 7.09944L9.9495 6.72783L9.25345 6.22418L9.35248 6.62314Z" fill="#D14242"/>
<path d="M9.00352 5.66393L9.89009 6.36847L9.7505 5.71392L8.83563 5.0603L9.00352 5.66393Z" fill="#D14242"/>
<path d="M8.58475 3.5956L9.47133 4.30014L9.33174 3.64559L8.41687 2.99197L8.58475 3.5956Z" fill="#D14242"/>
<path d="M8.83564 2.03934L8.81584 2.02331L8.06602 1.42817L8 1.16126L8.27257 1.08203L8.64512 1.348L8.69511 1.38384L8.83564 2.03934Z" fill="#D14242"/>
<path d="M8.84602 4.57833L9.6015 5.12725L9.49586 4.71037L8.68097 4.09448L8.84602 4.57833Z" fill="#D14242"/>
<path d="M8.26128 2.44774L9.01675 2.99761L8.91112 2.58073L8.09622 1.9639L8.26128 2.44774Z" fill="#D14242"/>
<path d="M9.52794 7.51443L8.00567 1.36499C7.9948 1.32147 8.00159 1.27542 8.02457 1.2369C8.04754 1.19837 8.08483 1.17051 8.12828 1.15938L8.38954 1.09148C8.41134 1.08582 8.43405 1.08453 8.45635 1.08768C8.47865 1.09084 8.50011 1.09837 8.51948 1.10986C8.53886 1.12134 8.55577 1.13655 8.56924 1.1546C8.58271 1.17265 8.59248 1.19319 8.59798 1.21503L10.0061 6.83063" stroke="#641926" stroke-width="0.3" stroke-miterlimit="10"/>
<path d="M12.8036 4.14919L13.0195 3.51727L13.3968 4.17749L14.0014 4.84996L14.3579 5.42341L14.1287 6.19115C14.1287 6.19115 14.3984 5.86198 14.3947 5.9082C14.5999 6.07338 14.8181 6.22163 15.0473 6.35148L15.253 6.62311L15.4416 7.15317L15.3822 7.45782L15.7745 7.65117L16.0773 8.08691L16.2008 8.29818L14.9879 8.85087L12.9026 9.21776L10.7126 8.89426L9.25443 8.38023L9.05542 8.21423L9.57322 7.51441L9.91181 7.24277L10.0901 6.6599L10.7088 6.0591L10.8446 5.37814L11.4105 4.81224L11.7765 5.09519L12.3235 4.70377H12.9111V4.37555L12.8036 4.17277V4.14919Z" fill="#FFF1D9"/>
<path d="M9.14407 8.28778L8.94412 8.68768L9.45343 9.53182L10.2881 9.73837L11.4114 9.60633L12.0519 10.01L13.1648 9.94492L13.7986 9.43938L14.4956 9.66669L15.4142 9.49786L16.1037 8.86877V8.34248L14.6286 8.9895L12.8036 9.14889L10.6371 8.88103L9.14407 8.28778Z" fill="#FFF1D9"/>
<path d="M11.4114 4.91788C11.4114 4.91788 10.8022 5.67241 11.1407 6.01478C11.8517 6.44162 12.662 6.67508 13.4911 6.69197L12.5244 6.9702L11.4473 6.82496L10.7974 6.22416L10.6616 5.71391L11.1096 5.0603L11.4114 4.91788Z" fill="#F9DCB9"/>
<path d="M10.7088 6.09495C10.7088 6.09495 9.89955 7.13243 10.4805 7.45028C11.0488 7.64803 11.6521 7.72513 12.2518 7.67664C12.3784 7.6716 12.5051 7.68237 12.6291 7.70871L13.7279 7.9379C13.8868 7.97283 14.0514 7.97244 14.2101 7.93675C14.3689 7.90105 14.5178 7.83094 14.6465 7.73134C14.8428 7.55692 14.9789 7.3248 15.0352 7.06826C15.0914 6.81173 15.065 6.54397 14.9596 6.30339L15.3435 6.62407L15.4378 7.09565C15.3863 7.2728 15.3233 7.4464 15.2492 7.61533C15.2086 7.65589 14.7088 8.09918 14.7088 8.09918L13.6392 8.32271L12.3254 8.00015L11.5029 8.05674C11.5029 8.05674 10.2693 7.69362 10.2297 7.66909C10.1423 7.50578 10.0673 7.33616 10.0052 7.16167L10.1485 6.66368L10.6616 6.05911L10.7088 6.09495Z" fill="#F9DCB9"/>
<path d="M9.56095 7.5814C9.56095 7.5814 8.91583 8.97351 9.81089 9.21967C10.268 9.34372 10.7435 9.38555 11.2153 9.34323C11.3866 9.32743 11.5594 9.34407 11.7246 9.39227L12.3386 9.57053C12.5532 9.63291 12.7824 9.62229 12.9903 9.54035L13.3779 9.38567C13.6553 9.27615 13.9524 9.2254 14.2504 9.23665L14.9002 9.26023C15.0591 9.26775 15.2172 9.23306 15.3583 9.15967C15.4995 9.08628 15.6187 8.97681 15.7038 8.84241C15.8839 8.55191 15.9415 8.10768 15.452 7.49651L15.9292 7.68514C15.9292 7.68514 16.181 8.24067 16.1971 8.30197C16.1974 8.53503 16.1657 8.76703 16.1027 8.99143C16.0584 9.01595 15.4133 9.49979 15.4133 9.49979L14.5993 9.75728C14.3387 9.63601 14.071 9.53051 13.7976 9.44132C13.5725 9.64703 13.334 9.83765 13.0837 10.0119L12.2527 10.0478L11.4114 9.64315L10.5852 9.82047L9.33648 9.43094C9.33648 9.43094 9.02806 8.71319 9.00354 8.66698C9.03286 8.41428 9.07886 8.16379 9.14124 7.91716L9.56567 7.48331L9.56095 7.5814Z" fill="#F9DCB9"/>
<path d="M13.0035 3.78986C13.0035 3.78986 14.4098 5.67619 14.1579 6.08458L14.2787 5.12726L13.4911 4.17278L13.0035 3.78986Z" fill="#FFFBF5"/>
<path d="M11.7302 5.30455C12.1637 5.06326 12.649 4.93028 13.145 4.91691L12.796 4.70941L12.1594 4.84806L11.7302 5.30455Z" fill="#FFFBF5"/>
<path d="M10.7465 8.05484L11.5369 8.38966C11.6779 8.45001 11.8347 8.46324 11.9839 8.42739L12.2461 8.36608C12.3724 8.33449 12.5046 8.33449 12.6309 8.36608L13.1025 8.48869C13.3557 8.55453 13.6229 8.5427 13.8693 8.45474L14.2466 8.31987L12.497 7.99353L11.2709 8.06615L10.7465 8.05484Z" fill="#FFFBF5"/>
<path opacity="0.85" d="M13.3261 5.75825C13.0431 5.66393 12.8337 5.69223 12.8101 5.75825C12.7866 5.82427 12.9988 5.99593 13.2751 6.09307C13.5515 6.19022 13.7957 6.1789 13.8193 6.10911C13.8429 6.03931 13.6043 5.85445 13.3261 5.75825Z" fill="#FFFDFA"/>
<path opacity="0.85" d="M14.8512 8.2878C15.1634 8.07747 15.3605 7.8247 15.4171 7.91053C15.4245 8.04973 15.3947 8.1884 15.3307 8.31225C15.2667 8.43609 15.1709 8.54063 15.053 8.61508C14.9432 8.69507 14.8131 8.74268 14.6776 8.75252C14.542 8.76235 14.4065 8.73402 14.2862 8.67072C14.2296 8.58489 14.539 8.49812 14.8512 8.2878Z" fill="#FFFDFA"/>
<path d="M11.5765 4.88109C11.2358 5.06741 10.9801 5.37785 10.8625 5.74786C10.848 5.93236 10.8913 6.1168 10.9865 6.27552C11.0817 6.43425 11.2239 6.55937 11.3935 6.6335C11.7709 6.7962 12.1832 6.86108 12.5923 6.82213C13.0122 6.81494 13.4233 6.70032 13.7863 6.48919C13.7896 6.48607 13.794 6.48434 13.7986 6.48434C13.8031 6.48434 13.8075 6.48607 13.8108 6.48919C13.8174 6.49485 13.8155 6.50805 13.8108 6.5156C13.4608 6.77867 13.0437 6.93756 12.6074 6.97398C12.1665 7.04463 11.7149 7.00145 11.2954 6.84854C11.0653 6.76574 10.8694 6.60853 10.7387 6.40182C10.608 6.19511 10.55 5.9507 10.5739 5.70731C10.6294 5.47899 10.7341 5.26557 10.8808 5.08196C11.0274 4.89836 11.2124 4.74901 11.4227 4.64436C11.4548 4.62488 11.4932 4.6189 11.5296 4.62774C11.5661 4.63658 11.5975 4.65952 11.617 4.69152C11.6346 4.72262 11.6402 4.75907 11.6327 4.794C11.6252 4.82892 11.6052 4.8599 11.5765 4.88109Z" fill="#641926"/>
<path d="M12.8035 4.14922C12.8841 3.95753 12.9472 3.75898 12.9922 3.55597C13.2325 3.97128 13.5456 4.33995 13.9165 4.64438C14.1152 4.78113 14.2588 4.98415 14.3215 5.21709C14.3843 5.45004 14.362 5.69771 14.2588 5.91577C14.2201 5.99679 14.1702 6.07202 14.1108 6.1393" stroke="#641926" stroke-width="0.3" stroke-miterlimit="10" stroke-linecap="round"/>
<path d="M14.2268 5.91006C14.2268 5.91006 15.7896 6.29582 15.3841 7.33896C14.9785 8.3821 13.6194 8.36607 13.1393 8.21139C12.7272 8.0173 12.2604 7.97262 11.8189 8.085C11.5199 8.11801 10.1825 7.91052 9.9882 7.33707C9.75807 6.65988 10.6956 6.03739 10.6956 6.03739" stroke="#641926" stroke-width="0.3" stroke-miterlimit="10"/>
<path d="M15.3841 7.339C15.4623 7.30222 16.5743 8.0841 16.0886 8.85655C15.9 9.15663 15.6201 9.38829 15.2901 9.51748C14.9601 9.64668 14.5973 9.66659 14.2551 9.5743C13.7213 9.34323 13.6477 9.59033 13.3789 9.81292C13.1632 9.92275 12.9274 9.98773 12.6859 10.0039C12.4444 10.0201 12.202 9.98725 11.9736 9.90724C11.8681 9.82166 11.7463 9.75839 11.6156 9.72127C11.485 9.68414 11.3481 9.67393 11.2134 9.69125C11.0519 9.74385 10.8833 9.77151 10.7135 9.77331C10.4121 9.80786 10.1069 9.7616 9.82932 9.63928C9.5517 9.51696 9.31162 9.32299 9.13371 9.07725C9.06336 8.90289 9.02904 8.71609 9.03281 8.5281C9.03658 8.34012 9.07837 8.15484 9.15566 7.98344C9.23294 7.81204 9.34413 7.65805 9.48251 7.53077C9.62089 7.40348 9.78361 7.30552 9.96086 7.2428" stroke="#641926" stroke-width="0.3" stroke-miterlimit="10"/>
<path d="M9.45814 7.5795C9.18623 7.66219 8.93088 7.79178 8.70361 7.96243C8.69143 7.97114 8.68169 7.98284 8.67531 7.99639C8.66894 8.00994 8.66613 8.02489 8.66717 8.03983C8.66821 8.05477 8.67306 8.0692 8.68126 8.08173C8.68945 8.09427 8.70072 8.1045 8.71398 8.11145C8.78944 8.15295 8.90262 8.20576 9.03938 8.27839C10.1712 8.82354 13.2836 10.0119 16.1999 8.30008C16.2678 8.25952 16.3357 8.21802 16.4036 8.17464C16.5168 8.10296 16.8478 8.03882 16.5668 7.84076C16.3032 7.69464 16.0158 7.59629 15.7179 7.55026" stroke="#641926" stroke-width="0.3" stroke-miterlimit="10"/>
<path d="M11.7509 4.99055L11.4114 4.63592L11.5812 4.12L12.1009 4.17659L12.6026 4.03323L12.8743 4.17659V4.65478L12.1631 4.7623L11.7509 4.99055Z" fill="#C92F29"/>
<path d="M11.9179 4.07095H12.215L11.7793 3.45129L10.9983 3.10137L10.0071 2.99197L9.70713 2.80994L9.54397 2.8769C9.54397 2.8769 9.48926 3.20229 9.49775 3.22399C9.55036 3.30463 9.61383 3.37762 9.68639 3.44091C9.79832 3.37213 9.90461 3.29455 10.0042 3.2089L11.353 3.55598L11.9179 4.07095Z" fill="#914527"/>
<path opacity="0.6" d="M12.4131 4.27748C12.2839 4.28597 12.2037 4.33502 12.2056 4.36708C12.2075 4.39915 12.3216 4.43122 12.4508 4.42273C12.58 4.41424 12.6753 4.36803 12.6734 4.33596C12.6715 4.30389 12.5423 4.26711 12.4131 4.27748Z" fill="#EA6565"/>
<path d="M11.9009 4.93674C11.7958 4.8622 11.7166 4.7567 11.6743 4.63496C11.632 4.51321 11.6288 4.38131 11.6651 4.25766C11.6651 4.25766 11.4765 4.26709 11.4614 4.3001C11.4724 4.47541 11.5008 4.64918 11.5463 4.81884C11.5623 4.83676 11.7415 5.15084 11.7793 5.10179C11.817 5.05275 11.9009 4.93674 11.9009 4.93674Z" fill="#EA6565"/>
<path d="M12.8186 4.78116C12.8186 4.78116 13.1016 4.2511 12.7007 4.08699C12.6188 4.04663 12.5279 4.02802 12.4367 4.03298C12.3455 4.03794 12.2572 4.06628 12.1801 4.11529C12.15 4.13495 12.1158 4.1474 12.0802 4.15165C12.0445 4.1559 12.0083 4.15185 11.9745 4.13981C11.8857 4.108 11.7907 4.09765 11.6972 4.10963C11.4652 4.14453 11.1445 4.63969 11.8019 5.02073" stroke="#641926" stroke-width="0.3" stroke-miterlimit="10"/>
<path d="M12.215 4.09457C12.1155 3.86117 11.9651 3.65293 11.7748 3.48503C11.5846 3.31713 11.3592 3.19381 11.1153 3.12405C10.3494 2.97126 10.1174 3.02973 9.94952 2.95522C9.78164 2.88071 9.6213 2.75527 9.51284 2.91278C9.40437 3.07029 9.51284 3.36927 9.64582 3.38436C9.77881 3.39946 9.80428 3.26364 9.88161 3.26081C9.92406 3.26081 11.6406 3.24666 11.9622 4.17662" stroke="#641926" stroke-width="0.2" stroke-miterlimit="10"/>
<path d="M13.5911 5.00183C13.5911 5.00183 12.7064 4.50289 12.1829 4.81319C11.6595 5.1235 11.5699 5.39607 11.2709 5.41116" stroke="#641926" stroke-width="0.3" stroke-miterlimit="10" stroke-linecap="round"/>
</svg>
