<svg width="24" height="24" viewBox="0 0 24 24" fill="none" xmlns="http://www.w3.org/2000/svg">
<path d="M4.56392 7.41667C4.56392 7.41667 2.98817 5.94267 5.20008 6.225L5.44208 5.50542L5.22025 4.80967L5.872 4.21658L6.00675 3.51258L6.50542 3.39158L6.87208 2.86358L7.37167 2.93783L7.247 2.05417L7.72183 1.65633L8.31858 1.89192L8.44417 1.12558L8.92083 1L9.4085 1.38592L10.0144 1.20992L10.4938 1.44092L10.9824 1.50875L11.4408 1L11.8789 1.38592L11.9706 1.76908L12.483 1.89192L12.692 2.27233L13.1173 2.47217L13.5583 1.91667L14.0569 1.84242L14.485 2.21917L14.8187 1.70583L15.2889 1.85983L15.5392 2.31817L15.9288 2.30442L16.2643 2.75542L16.7739 2.51617L17.3707 2.75542L17.4715 3.39158L17.5705 3.48325L18.1746 3.39158L18.5816 3.65283C18.6581 3.80341 18.7165 3.96248 18.7558 4.12675C18.7457 4.21292 18.6971 4.84542 18.6971 4.84542L18.4982 5.12042L18.6971 5.30375L18.929 5.67042L18.7668 6.12875L19.215 6.07283L19.6504 6.27725C19.6504 6.27725 20.0382 6.91067 20.0382 6.951C20.0382 6.99133 19.7063 7.512 19.7063 7.512L19.0903 7.90158L13.9442 6.6155L4.56392 7.41667Z" fill="#F9E48F"/>
<path d="M8.44417 1.73882C8.47933 1.65277 8.53573 1.57703 8.60809 1.51868C8.68046 1.46034 8.76643 1.42128 8.85798 1.40517C8.94953 1.38906 9.04367 1.39641 9.13161 1.42655C9.21955 1.45668 9.29841 1.50861 9.36084 1.57749L9.29759 1.21082L8.79159 1.03391L8.44417 1.2979L8.2205 1.52982L8.36626 1.80482L8.44417 1.73882Z" fill="#FFEEA9"/>
<path d="M12.1951 1.62976L11.7533 1.80484L11.6066 2.05509L12.0292 2.20543L12.1961 2.56018L12.5792 2.33926L12.1951 1.62976Z" fill="#D6C372"/>
<path d="M5.44206 5.50633C5.44206 5.50633 5.81423 4.78492 6.57506 5.55675L6.38256 5.76025L5.83806 5.4275L5.44206 5.50633Z" fill="#D6C372"/>
<path d="M6.38258 5.58331C6.40599 5.51746 6.4449 5.45822 6.49603 5.41058C6.54716 5.36294 6.60901 5.32831 6.67634 5.30961C6.74368 5.29091 6.81452 5.28869 6.8829 5.30314C6.95127 5.3176 7.01516 5.34829 7.06917 5.39264L6.96558 5.58789L6.43575 5.70798L6.38258 5.58331Z" fill="#D6C372"/>
<path d="M6.82899 5.64749C6.82899 5.64749 6.47057 3.96633 8.06741 4.66666L7.93082 4.83166L7.83366 4.77758L7.93999 4.73999C7.93999 4.73999 7.85291 3.96449 8.55324 4.24133C9.25357 4.51816 8.15083 4.45216 8.15083 4.45216L8.04082 5.06358L7.56507 4.73999L7.10674 5.02141L6.95916 5.53566L6.82899 5.64749Z" fill="#D6C372"/>
<path d="M6.99583 5.41927C6.99583 5.41927 7.53208 5.3056 7.49542 6.0756L6.99583 5.41927Z" fill="#D6C372"/>
<path d="M7.32765 5.92708C7.3744 5.92708 8.64215 5.68599 7.96932 7.02708L7.62374 7.09858L7.87032 6.62099L7.71449 6.11774H7.32765V5.92708Z" fill="#D6C372"/>
<path d="M8.68431 4.1818C8.76417 4.17171 8.84528 4.18034 8.92123 4.207C8.99718 4.23367 9.06589 4.27764 9.12191 4.33544C9.17793 4.39324 9.21974 4.46329 9.24402 4.54003C9.2683 4.61678 9.27439 4.69812 9.26181 4.77763C9.26181 4.77763 9.74764 3.79771 10.5681 4.69696L10.3572 4.91421L9.90164 4.57505L9.40848 4.85005L9.14356 4.89313L9.05189 4.79505L8.90706 4.39171L8.58714 4.3138L8.68431 4.1818Z" fill="#D6C372"/>
<path d="M10.8 4.73175C10.8633 4.71892 11.4756 4.45675 11.6067 5.55675L11.3106 5.64842L11.2666 5.06542L10.7496 4.91509V4.77759L10.8 4.73175Z" fill="#D6C372"/>
<path d="M12.3308 5.70803C12.3308 5.70803 11.8468 4.79778 12.7891 4.84636C12.6659 4.95283 12.5504 5.06801 12.4436 5.19103C12.4509 5.21761 12.3803 5.70803 12.3803 5.70803H12.3308Z" fill="#D6C372"/>
<path d="M12.6929 5.02139C12.6929 5.02139 12.4628 4.25597 13.2686 4.45214L12.6929 5.06356" fill="#D6C372"/>
<path d="M14.1385 4.1277C14.1385 4.1277 14.9873 3.76103 14.9461 5.02145C14.9461 5.02145 15.7509 5.10028 15.3283 5.92253H14.9461L15.1798 5.26712L14.5381 5.21853L14.6481 4.42012L14.1073 4.31562L14.1385 4.1277Z" fill="#D6C372"/>
<path d="M15.3283 5.80426C15.3283 5.80426 16.1973 6.11318 15.4512 6.89509L15.2935 6.95376L15.596 6.14526L15.2293 5.93076L15.2926 5.80426H15.3283Z" fill="#D6C372"/>
<path d="M14.7233 5.06448C14.7233 5.06448 15.2302 4.20648 15.8233 4.91414L15.3476 4.88939L14.8645 5.11764L14.7233 5.06448Z" fill="#D6C372"/>
<path d="M15.5942 4.87659C15.6616 4.77491 15.7557 4.69364 15.866 4.6416C15.9764 4.58956 16.0989 4.56874 16.2203 4.58139C16.3417 4.59405 16.4573 4.6397 16.5545 4.71339C16.6518 4.78709 16.727 4.88601 16.7721 4.99943L16.5383 5.02143L16.1616 4.85001C16.0464 4.94116 15.9238 5.02242 15.7949 5.09293C15.7211 5.04153 15.6537 4.98153 15.5942 4.91418V4.87659Z" fill="#D6C372"/>
<path d="M16.6776 5.45868C16.6776 5.45868 17.7456 5.25701 17.5228 6.42576H17.3706L17.2964 5.85193L16.8399 5.58335L16.6126 5.60076L16.6776 5.45868Z" fill="#D6C372"/>
<path d="M17.4522 6.32494C17.4522 6.32494 18.2928 6.25069 18.0077 7.02069L17.4522 6.32494Z" fill="#D6C372"/>
<path d="M18.1608 5.00769C18.1066 5.04077 18.0593 5.08404 18.0215 5.13511L18.1132 5.21852L18.0517 5.25152C18.0517 5.25152 18.0783 5.29827 18.1159 5.36061C18.0985 5.37223 18.0804 5.38294 18.0618 5.39269C18.0563 5.39269 17.8849 5.00769 17.8849 5.00769L17.4477 4.61811L17.081 4.71894L17.1222 4.56036C17.2185 4.51056 17.3246 4.48272 17.4329 4.47883C17.5412 4.47495 17.6491 4.49512 17.7486 4.5379C17.8482 4.58068 17.9371 4.645 18.0088 4.72623C18.0806 4.80746 18.1334 4.90359 18.1636 5.00769C18.192 5.06735 18.2171 5.12856 18.2387 5.19102C18.2543 5.23594 18.269 5.27627 18.2809 5.31386C18.3836 5.35327 18.5907 5.40552 18.4523 5.13877C18.3607 4.95544 18.2488 4.96369 18.1636 5.01136L18.1608 5.00769Z" fill="#D6C372"/>
<path d="M4.47042 6.32311C4.47042 6.32311 4.31275 6.84744 4.69408 6.95377C5.02683 7.04544 11.8661 6.38819 13.5628 6.22044C13.8113 6.19652 14.0621 6.21858 14.3026 6.28552C15.5318 6.62836 19.4863 7.69811 19.6972 7.33327C19.9465 6.89969 19.5267 7.74852 19.5267 7.74852H18.929L14.1825 6.57427L4.43833 7.41669L4.00017 6.89327L4.222 6.32127L4.47042 6.11227V6.32311Z" fill="#D6C372"/>
<path d="M17.9876 5.04986C17.9876 5.04986 18.0737 5.24236 18.0792 5.23961C18.0847 5.23686 18.3075 5.18645 18.3075 5.18645L18.2039 5.00311L18.0435 5.03153L17.9876 5.04986Z" fill="#D6C372"/>
<path d="M10.4122 4.74003C10.4122 4.74003 9.92641 3.71794 10.9329 3.65378C10.9329 3.65378 10.5745 4.06719 10.5662 4.08094C10.558 4.09469 10.459 4.77761 10.459 4.77761L10.4122 4.74003Z" fill="#D6C372"/>
<path d="M11.0108 3.56666C11.0108 3.56666 11.3142 3.52816 11.4151 3.70141C11.5159 3.87466 11.3674 3.80866 11.3674 3.80866C11.3674 3.80866 11.1254 3.72983 11.0924 3.72983C11.0594 3.72983 11.0191 3.58591 11.0191 3.58591L11.0108 3.56666Z" fill="#D6C372"/>
<path d="M11.1786 3.76557L11.2537 3.62165C11.3237 3.48582 11.4299 3.37207 11.5607 3.29309C11.6915 3.21411 11.8416 3.17299 11.9944 3.17432H12.0347C12.1671 3.18488 12.2953 3.22545 12.4097 3.29296C12.524 3.36046 12.6215 3.45311 12.6947 3.5639L12.8286 3.7619C12.7458 3.77124 12.6625 3.77584 12.5792 3.77565C12.5563 3.7674 12.1447 3.39065 12.1447 3.39065L11.7249 3.48232L11.4187 3.84898L11.0292 3.77748L11.1786 3.76557Z" fill="#D6C372"/>
<path d="M12.4839 3.59415C12.4839 3.59415 13.6545 3.24949 13.506 4.45215H13.2686V3.94065L12.8927 3.7014L12.4188 3.77749L12.4839 3.59415Z" fill="#D6C372"/>
<path d="M13.3025 4.24133C13.3025 4.24133 13.7095 4.24133 13.7452 4.46683C13.781 4.69233 13.5876 4.60525 13.5876 4.60525L13.1549 4.48975L13.3025 4.24133Z" fill="#D6C372"/>
<path d="M13.5014 4.46683C13.5576 4.36896 13.6373 4.28667 13.7334 4.22744C13.8294 4.16821 13.9387 4.13391 14.0514 4.12766C14.4492 4.10016 13.9533 4.36233 13.9533 4.36233C13.9533 4.36233 13.6875 4.5695 13.6857 4.58233C13.6291 4.58139 13.5728 4.57401 13.5179 4.56033L13.5014 4.46683Z" fill="#D6C372"/>
<path d="M8.04083 3.15232C8.04083 3.15232 8.23425 1.81582 9.31683 2.58948L9.20958 2.80307L8.80625 2.55832L8.26633 2.80123C8.25048 2.95521 8.2263 3.10821 8.19392 3.25957C8.145 3.2209 8.09388 3.18509 8.04083 3.15232Z" fill="#D6C372"/>
<path d="M9.11057 2.61058C9.11057 2.61058 9.36998 1.61874 10.0327 1.84516C9.98585 1.90115 9.94326 1.9606 9.90532 2.02299C9.90532 2.03583 9.53407 2.27874 9.51115 2.30533C9.48823 2.33191 9.29482 2.75633 9.29482 2.75633L9.11148 2.69583L9.11057 2.61058Z" fill="#D6C372"/>
<path d="M9.87509 1.96071C9.87509 1.96071 9.82926 1.53079 10.1501 1.38596C10.1501 1.38596 10.3334 1.56012 10.3142 1.58304C10.2949 1.60596 10.0777 1.99554 10.0685 1.99554L9.85126 2.01296L9.87509 1.96071Z" fill="#D6C372"/>
<path d="M9.59824 2.80306C9.59824 2.80306 10.0566 2.51431 10.3866 3.26139L10.2289 3.42731L10.052 3.37506L9.73391 2.97814H9.54507L9.59824 2.80306Z" fill="#D6C372"/>
<path d="M10.2527 3.2706C10.2527 3.2706 9.88149 1.86627 11.3106 2.25127L11.2253 2.4346H10.7597C10.7597 2.4346 10.3563 2.74352 10.3572 2.80585C10.3582 2.86819 10.4168 3.27335 10.4168 3.27335L10.2527 3.2706Z" fill="#D6C372"/>
<path d="M11.0695 2.37496C11.0695 2.37496 11.3445 1.62971 11.8478 1.99454C11.8478 1.99454 11.5352 2.18887 11.5141 2.20904C11.493 2.22921 11.2767 2.52621 11.2565 2.50879C11.2363 2.49137 11.0695 2.37496 11.0695 2.37496Z" fill="#D6C372"/>
<path d="M13.3758 2.89203C13.3758 2.89203 14.2366 2.77011 14.3026 3.42369L14.0459 3.39253L13.5876 3.09094L13.2695 3.20736L13.3758 2.89203Z" fill="#D6C372"/>
<path d="M14.1275 3.34852C14.1275 3.34852 14.4492 3.0231 14.6986 3.34852H14.1275Z" fill="#D6C372"/>
<path d="M14.5125 3.35404C14.5125 3.35404 14.9149 2.12754 15.7536 3.09095L15.596 3.22937L15.1798 2.8627L14.7022 3.3907L14.5363 3.44845L14.5125 3.35404Z" fill="#D6C372"/>
<path d="M15.6583 3.09092C15.6583 3.09092 15.9333 2.782 16.1854 2.88375C16.4375 2.9855 16.014 3.09917 16.014 3.09917L15.7005 3.25684L15.6583 3.09092Z" fill="#D6C372"/>
<path d="M16.3633 2.88373C16.3633 2.88373 17.323 3.18623 16.7739 3.97823L16.6529 4.00023L16.7043 3.48781L16.3275 3.10831L16.1552 3.07989L16.3633 2.88373Z" fill="#D6C372"/>
<path d="M16.7272 3.85725C16.7272 3.85725 17.3688 3.77292 17.2689 4.6685L17.0031 4.74L16.9435 4.20833L16.5952 3.9755L16.7272 3.85725Z" fill="#D6C372"/>
<path d="M7.37166 2.86264C7.37166 2.86264 7.48533 1.87998 8.2205 1.99548L7.79058 1.68289C7.64424 1.74815 7.50404 1.82638 7.37166 1.91664C7.32452 2.09287 7.26604 2.26587 7.19658 2.43456L7.37166 2.86264Z" fill="#FFEEA9"/>
<path d="M5.53191 5.38348C5.53191 5.38348 5.2175 4.67581 5.83808 4.46681L5.70425 4.28348C5.70425 4.28348 5.33758 4.55848 5.31466 4.58506C5.29175 4.61164 5.18266 5.06356 5.18266 5.06356L5.53191 5.38348Z" fill="#FFEEA9"/>
<path d="M6.00856 4.28348C6.00856 4.28348 6.08556 3.5749 6.61723 3.65373L6.4834 3.30081L6.07456 3.54831L5.78581 3.96906L6.00856 4.28348Z" fill="#FFEEA9"/>
<path d="M6.61724 3.42363C6.61724 3.42363 7.10216 2.92588 7.45049 3.42363L7.56508 3.30355L7.32766 3.00013L7.01324 2.94147L6.57141 3.15597L6.61724 3.42363Z" fill="#FFEEA9"/>
<path d="M13.3025 2.61424C13.3025 2.61424 13.8525 1.75716 14.3722 2.55832L14.485 2.21457L14.0587 1.95699L13.5582 1.91666C13.5582 1.91666 13.2988 2.33191 13.2686 2.35116C13.2383 2.37041 13.3025 2.61424 13.3025 2.61424Z" fill="#FFEEA9"/>
<path d="M14.4731 2.25126C14.4731 2.25126 14.9956 1.58209 15.3788 2.40434C15.7619 3.22659 15.3971 2.43184 15.3971 2.43184C15.4219 2.33415 15.4525 2.23803 15.4888 2.14401C15.3638 1.98893 15.2284 1.84253 15.0836 1.70584L14.5336 1.73884L14.4731 2.25126Z" fill="#FFEEA9"/>
<path d="M15.4512 2.43186C15.4512 2.43186 16.0461 2.44286 16.1616 2.75636L16.1854 2.43186L15.8453 2.28336L15.4512 2.43186Z" fill="#FFEEA9"/>
<path d="M16.5952 2.75632C16.5952 2.75632 17.3413 3.02673 17.3707 3.56665C17.4 4.10657 17.5384 3.36315 17.5045 3.35398C17.4212 3.13301 17.3517 2.90707 17.2964 2.67748C17.0646 2.63346 16.8305 2.60286 16.5952 2.58582V2.75632Z" fill="#FFEEA9"/>
<path d="M17.3707 3.71332C17.3707 3.71332 18.7282 3.51807 18.4707 4.9829C18.4707 4.99574 18.6971 4.66757 18.6952 4.6804C18.4065 6.1874 18.7979 4.32657 18.7979 4.32657C18.7979 4.32657 18.555 3.74999 18.555 3.69224C18.327 3.56916 18.0876 3.46876 17.84 3.39249L17.3707 3.71332Z" fill="#FFEEA9"/>
<path d="M18.016 5.58335C18.0233 5.58335 18.7979 5.23593 18.6668 6.06918L18.929 5.8721L18.8025 5.30835L18.3103 5.1846L18.016 5.58335Z" fill="#FFEEA9"/>
<path d="M18.8502 6.18655C19.102 6.2454 19.3269 6.38703 19.4888 6.58878C19.6506 6.79053 19.7401 7.04074 19.743 7.29938L20.0052 6.67146L19.3882 6.06921L18.8502 6.18655Z" fill="#FFEEA9"/>
<path d="M4.56391 7.41667C4.56391 7.41667 3.74807 7.02892 4.07899 6.5C4.40991 5.97108 5.07174 5.98209 5.23582 6.28" stroke="#641926" stroke-width="0.3" stroke-miterlimit="10"/>
<path d="M5.23582 6.27998C5.20195 6.20988 5.1838 6.13322 5.18265 6.05538C5.18149 5.97753 5.19736 5.90038 5.22914 5.82931C5.26092 5.75823 5.30785 5.69496 5.36664 5.64392C5.42543 5.59288 5.49466 5.5553 5.56949 5.53381C6.05532 5.31564 6.53107 5.73456 6.46049 6.01598" stroke="#641926" stroke-width="0.3" stroke-miterlimit="10" stroke-linecap="round"/>
<path d="M13.2301 2.58947C13.2086 2.45897 13.2334 2.32504 13.3004 2.21099C13.3674 2.09694 13.4723 2.00998 13.5967 1.96522C13.6935 1.9273 13.798 1.91329 13.9014 1.92437C14.0047 1.93545 14.1039 1.9713 14.1905 2.02888C14.277 2.08646 14.3484 2.16406 14.3985 2.25511C14.4487 2.34616 14.4762 2.44797 14.4786 2.55189" stroke="#641926" stroke-width="0.3" stroke-miterlimit="10" stroke-linecap="round"/>
<path d="M7.02057 5.55495C6.98544 5.48661 6.96521 5.41159 6.96119 5.33485C6.95718 5.25812 6.96948 5.1814 6.99728 5.10976C7.02509 5.03813 7.06777 4.9732 7.1225 4.91927C7.17724 4.86533 7.24278 4.82361 7.31482 4.79687C7.77316 4.5897 8.16457 4.9197 8.09766 5.18737" stroke="#641926" stroke-width="0.3" stroke-miterlimit="10" stroke-linecap="round"/>
<path d="M5.64284 5.50633C5.56719 5.49251 5.49532 5.46283 5.43197 5.41922C5.36862 5.37562 5.31522 5.31909 5.2753 5.25336C5.23538 5.18763 5.20983 5.11419 5.20034 5.03787C5.19085 4.96155 5.19764 4.88409 5.22026 4.81058C5.33759 4.31925 5.83626 4.212 6.00676 4.42833" stroke="#641926" stroke-width="0.3" stroke-miterlimit="10" stroke-linecap="round"/>
<path d="M10.8275 4.85002C10.7566 4.82001 10.693 4.77524 10.6408 4.7187C10.5886 4.66216 10.549 4.59515 10.5247 4.52212C10.5004 4.44909 10.492 4.37173 10.4999 4.29518C10.5079 4.21864 10.532 4.14466 10.5708 4.07819C10.6073 3.98731 10.6706 3.90964 10.7522 3.85545C10.8337 3.80126 10.9299 3.7731 11.0278 3.77469C11.1257 3.77628 11.2209 3.80754 11.3007 3.86435C11.3804 3.92116 11.4411 4.00084 11.4747 4.09286" stroke="#641926" stroke-width="0.3" stroke-miterlimit="10" stroke-linecap="round"/>
<path d="M9.71007 2.97452C9.64645 2.95129 9.58877 2.91425 9.54118 2.86606C9.49359 2.81788 9.45726 2.75975 9.43483 2.69585C9.41239 2.63194 9.40439 2.56386 9.4114 2.4965C9.41842 2.42914 9.44028 2.36417 9.4754 2.30627C9.51123 2.22593 9.56991 2.15791 9.64412 2.11068C9.71833 2.06345 9.8048 2.0391 9.89275 2.04066C9.98071 2.04222 10.0663 2.06963 10.1387 2.11947C10.2112 2.16931 10.2675 2.23937 10.3004 2.32093" stroke="#641926" stroke-width="0.3" stroke-miterlimit="10" stroke-linecap="round"/>
<path d="M6.46232 6.01595C6.43848 5.89495 6.46232 5.64929 6.83815 5.56587C7.23048 5.48154 7.3634 6.00404 7.24698 6.18645" stroke="#641926" stroke-width="0.3" stroke-miterlimit="10" stroke-linecap="round"/>
<path d="M12.4839 3.9489C12.5233 3.83157 12.6342 3.6959 12.9991 3.80682C13.0691 3.82458 13.1329 3.86103 13.1839 3.91226C13.2348 3.96349 13.2708 4.0276 13.2881 4.09772C13.3054 4.16784 13.3034 4.24134 13.2822 4.31039C13.261 4.37944 13.2214 4.44142 13.1677 4.48974" stroke="#641926" stroke-width="0.3" stroke-miterlimit="10" stroke-linecap="round"/>
<path d="M16.1561 3.08359C16.205 3.02122 16.2383 2.94808 16.2533 2.87026C16.2683 2.79243 16.2645 2.71215 16.2423 2.63607C16.2201 2.55998 16.18 2.4903 16.1255 2.43278C16.071 2.37526 16.0035 2.33158 15.9287 2.30534C15.8439 2.26985 15.7505 2.26031 15.6602 2.27794C15.57 2.29556 15.487 2.33955 15.4218 2.40434C15.3811 2.44428 15.3497 2.49282 15.3301 2.54642" stroke="#641926" stroke-width="0.3" stroke-miterlimit="10" stroke-linecap="round"/>
<path d="M13.6866 4.79958C13.6866 4.79958 13.5885 4.39166 13.22 4.48333C12.8515 4.575 12.7681 4.95908 12.9276 5.09291" stroke="#641926" stroke-width="0.3" stroke-miterlimit="10" stroke-linecap="round"/>
<path d="M12.9459 5.09843C12.9149 5.07017 12.8783 5.04886 12.8384 5.03592C12.7985 5.02297 12.7564 5.0187 12.7147 5.02339C12.673 5.02808 12.6329 5.04161 12.5968 5.06309C12.5608 5.08457 12.5298 5.1135 12.5059 5.14793C12.4747 5.19214 12.4545 5.24317 12.4471 5.29677C12.4396 5.35037 12.4451 5.40497 12.463 5.45602C12.481 5.50708 12.5109 5.5531 12.5502 5.59024C12.5896 5.62738 12.6372 5.65456 12.6893 5.66951" stroke="#641926" stroke-width="0.3" stroke-miterlimit="10" stroke-linecap="round"/>
<path d="M12.5554 6.72455C12.4601 6.70551 12.3712 6.6624 12.2972 6.59933C12.2232 6.53627 12.1666 6.45533 12.1327 6.36421C12.0988 6.27309 12.0888 6.17482 12.1036 6.07873C12.1183 5.98265 12.1574 5.89193 12.2172 5.81522C12.2767 5.73894 12.3596 5.68441 12.4533 5.66005C12.5469 5.63569 12.6459 5.64287 12.7351 5.68047" stroke="#641926" stroke-width="0.3" stroke-miterlimit="10" stroke-linecap="round"/>
<path d="M5.96916 4.39164C5.90849 4.31242 5.86832 4.21945 5.85222 4.12097C5.83612 4.0225 5.84459 3.92157 5.87688 3.82716C5.90917 3.73274 5.96427 3.64777 6.0373 3.57977C6.11033 3.51177 6.19902 3.46287 6.29549 3.43739C6.33241 3.42317 6.37186 3.41666 6.4114 3.41827C6.45093 3.41988 6.48972 3.42957 6.52536 3.44675C6.56101 3.46393 6.59275 3.48823 6.61865 3.51815C6.64454 3.54807 6.66403 3.58298 6.67591 3.62072" stroke="#641926" stroke-width="0.3" stroke-miterlimit="10" stroke-linecap="round"/>
<path d="M8.04542 4.91416C8.03349 4.78789 8.06891 4.66168 8.1448 4.56005C8.22068 4.45842 8.33162 4.3886 8.45608 4.36416C8.84842 4.27891 9.15642 4.63916 9.04 4.8225" stroke="#641926" stroke-width="0.3" stroke-miterlimit="10" stroke-linecap="round"/>
<path d="M15.7207 5.26706C15.7361 5.23656 15.7424 5.20228 15.7388 5.1683C15.7352 5.13433 15.7219 5.1021 15.7005 5.07548C15.6515 5.00469 15.5825 4.95013 15.5023 4.91878C15.4222 4.88743 15.3344 4.88071 15.2504 4.89948C15.1823 4.91244 15.1186 4.94256 15.0653 4.98699C15.0121 5.03142 14.9711 5.08869 14.9461 5.15339" stroke="#641926" stroke-width="0.3" stroke-miterlimit="10" stroke-linecap="round"/>
<path d="M14.8966 3.85725C14.9571 3.76559 14.8553 3.58225 14.705 3.50067C14.6135 3.45259 14.5079 3.43862 14.4071 3.46125C14.321 3.47784 14.2425 3.52114 14.1825 3.585" stroke="#641926" stroke-width="0.3" stroke-miterlimit="10" stroke-linecap="round"/>
<path d="M16.4723 4.025C16.542 3.95442 16.6923 3.93333 16.9307 4.13225C17.0087 4.2208 17.0587 4.33058 17.0742 4.44762C17.0897 4.56466 17.0701 4.68367 17.0177 4.7895" stroke="#641926" stroke-width="0.3" stroke-miterlimit="10" stroke-linecap="round"/>
<path d="M14.5272 5.1965C14.5433 5.18813 14.5586 5.17831 14.573 5.16717C14.6497 5.08751 14.6992 4.98552 14.7142 4.87593C14.7292 4.76633 14.7089 4.65481 14.6564 4.55747C14.6038 4.46014 14.5217 4.38203 14.4219 4.33442C14.322 4.28682 14.2096 4.2722 14.1009 4.29267C14.0726 4.29733 14.0448 4.30407 14.0175 4.31283C13.9515 4.33398 13.8913 4.37006 13.8415 4.41825C13.7916 4.46857 13.7522 4.52824 13.7255 4.59384C13.6987 4.65943 13.6852 4.72966 13.6857 4.8005C13.6845 4.81637 13.6845 4.8323 13.6857 4.84817" stroke="#641926" stroke-width="0.3" stroke-miterlimit="10" stroke-linecap="round"/>
<path d="M15.5942 3.56668C15.6184 3.4309 15.6898 3.30805 15.7958 3.21982C15.9018 3.13159 16.0356 3.08367 16.1735 3.08451C16.806 3.12576 16.8812 3.91593 16.4705 4.02685" stroke="#641926" stroke-width="0.3" stroke-miterlimit="10" stroke-linecap="round"/>
<path d="M14.408 2.25581C14.3962 2.15551 14.4165 2.05404 14.4658 1.96595C14.5152 1.87786 14.5912 1.80766 14.683 1.76539C14.7765 1.71949 14.8815 1.70227 14.9847 1.71591C15.088 1.72954 15.1849 1.77341 15.2633 1.842C15.3417 1.9106 15.3981 2.00085 15.4253 2.10139C15.4525 2.20194 15.4494 2.30829 15.4163 2.40706" stroke="#641926" stroke-width="0.3" stroke-miterlimit="10" stroke-linecap="round"/>
<path d="M8.37909 1.99553C8.29101 1.87681 8.25231 1.7286 8.27111 1.58198C8.28991 1.43535 8.36474 1.3017 8.47992 1.20903C9.05101 0.757118 9.67709 1.4657 9.41309 1.87728" stroke="#641926" stroke-width="0.3" stroke-miterlimit="10" stroke-linecap="round"/>
<path d="M11.0108 1.58297C11.0057 1.48828 11.0323 1.39459 11.0864 1.31673C11.1406 1.23886 11.2191 1.18127 11.3096 1.15306C11.845 0.980724 12.1108 1.66456 11.8092 1.89189" stroke="#641926" stroke-width="0.3" stroke-miterlimit="10" stroke-linecap="round"/>
<path d="M17.9042 5.66768C17.917 5.53954 17.9789 5.42134 18.077 5.33792C18.1752 5.2545 18.3018 5.21236 18.4303 5.22035C18.5454 5.2238 18.656 5.26578 18.7444 5.33955C18.8328 5.41333 18.8939 5.51464 18.9179 5.62726C18.9419 5.73988 18.9274 5.85729 18.8767 5.96069C18.826 6.06408 18.7421 6.14748 18.6384 6.19752" stroke="#641926" stroke-width="0.3" stroke-miterlimit="10" stroke-linecap="round"/>
<path d="M15.7005 5.07549C15.7326 5.00182 15.7832 4.93774 15.8475 4.88954C15.9118 4.84133 15.9875 4.81065 16.0672 4.80049C16.1799 4.7782 16.2969 4.79426 16.3995 4.84613C16.5021 4.89799 16.5844 4.98268 16.6333 5.0867C16.6822 5.19073 16.6949 5.30813 16.6694 5.42021C16.6439 5.53229 16.5816 5.63263 16.4925 5.70524" stroke="#641926" stroke-width="0.3" stroke-miterlimit="10" stroke-linecap="round"/>
<path d="M10.5947 3.35397C10.4858 3.28538 10.4076 3.17742 10.3763 3.05259C10.3451 2.92776 10.3632 2.79569 10.4269 2.68389C10.7468 2.13389 11.4352 2.40889 11.3555 2.8223" stroke="#641926" stroke-width="0.3" stroke-miterlimit="10" stroke-linecap="round"/>
<path d="M13.1192 3.40902C13.1675 3.2909 13.2582 3.19508 13.3735 3.14032C13.4888 3.08556 13.6204 3.07579 13.7425 3.11294C13.8544 3.1583 13.9536 3.22996 14.0319 3.32186C14.1102 3.41376 14.1652 3.52318 14.1921 3.64084C14.2191 3.7585 14.2173 3.88094 14.1869 3.99776C14.1565 4.11459 14.0984 4.22236 14.0175 4.31194" stroke="#641926" stroke-width="0.3" stroke-miterlimit="10" stroke-linecap="round"/>
<path d="M11.4627 4.05706C11.4231 3.93458 11.4325 3.80151 11.4889 3.6858C11.5453 3.57009 11.6444 3.48073 11.7652 3.43648C12.3629 3.22381 12.7057 3.83889 12.3721 4.10381" stroke="#641926" stroke-width="0.3" stroke-miterlimit="10" stroke-linecap="round"/>
<path d="M8.33874 3.33289C8.27152 3.22312 8.24933 3.09161 8.27684 2.96587C8.30435 2.84013 8.37941 2.72989 8.48633 2.65822C9.01616 2.30989 9.50474 2.97264 9.24441 3.30905" stroke="#641926" stroke-width="0.3" stroke-miterlimit="10" stroke-linecap="round"/>
<path d="M6.46233 3.40901C6.46705 3.33664 6.49004 3.26664 6.52915 3.20556C6.56827 3.14449 6.62223 3.09432 6.68599 3.05976C7.21949 2.71693 7.75941 3.18076 7.49541 3.5181" stroke="#641926" stroke-width="0.3" stroke-miterlimit="10" stroke-linecap="round"/>
<path d="M11.218 5.58788C11.3637 5.56038 11.7011 5.65938 11.7955 6.1058C11.8274 6.24373 11.812 6.3884 11.7516 6.51647C11.6912 6.64453 11.5895 6.74851 11.4627 6.81163" stroke="#641926" stroke-width="0.3" stroke-miterlimit="10" stroke-linecap="round"/>
<path d="M7.24699 6.18651C7.39274 6.15901 7.76308 5.95001 7.85749 6.39734C7.88542 6.53385 7.87199 6.6756 7.81892 6.80443C7.76585 6.93327 7.67555 7.04335 7.55958 7.12059" stroke="#641926" stroke-width="0.3" stroke-miterlimit="10" stroke-linecap="round"/>
<path d="M16.4888 5.70798C16.6027 5.64096 16.7355 5.61359 16.8666 5.63018C16.9976 5.64677 17.1195 5.70637 17.213 5.79965C17.488 6.07465 17.3606 6.51007 17.1516 6.5119" stroke="#641926" stroke-width="0.3" stroke-miterlimit="10" stroke-linecap="round"/>
<path d="M7.49541 3.5135C7.59899 3.39891 8.05549 3.079 8.41849 3.39066C8.79982 3.71975 8.62749 4.36875 8.35249 4.39166" stroke="#641926" stroke-width="0.3" stroke-miterlimit="10" stroke-linecap="round"/>
<path d="M13.3483 3.15238C13.3766 3.05609 13.3806 2.9543 13.36 2.85609C13.3394 2.75788 13.2947 2.6663 13.2301 2.58955C13.1974 2.54626 13.1599 2.50689 13.1183 2.47221C13.0452 2.40894 12.9567 2.36605 12.8617 2.34786C12.7668 2.32968 12.6687 2.33684 12.5774 2.36863C12.4337 2.41175 12.3028 2.4895 12.1961 2.59505" stroke="#641926" stroke-width="0.3" stroke-miterlimit="10" stroke-linecap="round"/>
<path d="M16.2642 2.84254C16.3833 2.72401 16.538 2.64774 16.7045 2.62539C16.871 2.60305 17.0403 2.63585 17.1864 2.71879C17.5393 2.93512 17.5531 3.62629 17.2964 3.71337" stroke="#641926" stroke-width="0.3" stroke-miterlimit="10" stroke-linecap="round"/>
<path d="M8.36624 1.98724C8.26075 1.87264 8.11845 1.79861 7.96405 1.77801C7.80965 1.75741 7.65292 1.79155 7.52108 1.87449C6.82349 2.40157 7.56691 3.40074 8.07108 3.25682" stroke="#641926" stroke-width="0.3" stroke-miterlimit="10" stroke-linecap="round"/>
<path d="M18.6384 6.19749C18.8061 6.093 19.005 6.05046 19.2007 6.07724C19.3964 6.10403 19.5766 6.19846 19.71 6.34416C19.8246 6.47744 19.8979 6.64122 19.921 6.81549C19.944 6.98975 19.9158 7.16696 19.8398 7.32545C19.7637 7.48394 19.6432 7.61685 19.4928 7.70793C19.3425 7.79901 19.1689 7.84432 18.9932 7.83833" stroke="#641926" stroke-width="0.3" stroke-miterlimit="10" stroke-linecap="round"/>
<path d="M18.0132 5.40001C18.0101 5.21682 17.9367 5.04184 17.8082 4.91118C17.6798 4.78052 17.5061 4.70415 17.323 4.69784C17.2137 4.69679 17.1067 4.72873 17.0159 4.78951C16.9185 4.86694 16.8386 4.96418 16.7815 5.0748C16.7245 5.18542 16.6916 5.30689 16.685 5.43117" stroke="#641926" stroke-width="0.3" stroke-miterlimit="10" stroke-linecap="round"/>
<path d="M17.2964 3.71334C17.4116 3.58271 17.5657 3.49252 17.736 3.45605C17.9063 3.41957 18.0838 3.43875 18.2424 3.51076C18.3853 3.59691 18.5058 3.71552 18.5943 3.85697C18.6827 3.99843 18.7366 4.15874 18.7515 4.3249C18.7664 4.49107 18.7419 4.6584 18.6801 4.81334C18.6182 4.96829 18.5207 5.10647 18.3955 5.21668" stroke="#641926" stroke-width="0.3" stroke-miterlimit="10" stroke-linecap="round"/>
<path d="M15.1881 6.89509C15.3595 6.88042 15.5978 6.52842 15.5254 6.22134C15.4466 5.88034 15.024 5.89409 14.9167 5.9115" stroke="#641926" stroke-width="0.3" stroke-miterlimit="10" stroke-linecap="round"/>
<path d="M17.2377 6.489C17.3551 6.467 17.8171 6.44041 17.8941 6.80066C17.9155 6.94393 17.8823 7.09001 17.8012 7.21001C17.72 7.33002 17.5968 7.41521 17.4559 7.44875" stroke="#641926" stroke-width="0.3" stroke-miterlimit="10"/>
<path d="M8.63666 5.53564C8.60766 5.47835 8.59103 5.4156 8.58783 5.35146C8.58464 5.28733 8.59496 5.22323 8.61812 5.16334C8.64128 5.10345 8.67677 5.04909 8.72228 5.00379C8.7678 4.95849 8.82233 4.92327 8.88233 4.90039C9.26916 4.72714 9.59458 5.00397 9.53866 5.22764" stroke="#641926" stroke-width="0.3" stroke-miterlimit="10" stroke-linecap="round"/>
<path d="M10.1611 2.10824C10.132 2.05085 10.1152 1.98796 10.112 1.92368C10.1088 1.85939 10.1192 1.79515 10.1424 1.73514C10.1657 1.67512 10.2013 1.62068 10.247 1.57536C10.2927 1.53003 10.3475 1.49484 10.4077 1.47208C10.7936 1.29883 11.1199 1.57566 11.0631 1.79933" stroke="#641926" stroke-width="0.3" stroke-miterlimit="10" stroke-linecap="round"/>
<path d="M9.4525 1.51607C9.48801 1.4447 9.54153 1.38382 9.60776 1.33945C9.67399 1.29509 9.75065 1.26876 9.83017 1.26307C9.93137 1.24308 10.0363 1.25491 10.1305 1.29692C10.2247 1.33894 10.3036 1.40909 10.3563 1.49774" stroke="#641926" stroke-width="0.3" stroke-miterlimit="10" stroke-linecap="round"/>
<path d="M10.2885 5.06359C10.3096 4.90134 10.3957 4.77026 10.8385 4.86101C11.3032 4.95267 11.4187 5.42109 11.2207 5.58792" stroke="#641926" stroke-width="0.3" stroke-miterlimit="10" stroke-linecap="round"/>
<path d="M10.052 3.48784C10.1232 3.42192 10.2105 3.37601 10.3052 3.35476C10.3999 3.33351 10.4985 3.33767 10.591 3.36684C10.6952 3.38144 10.7919 3.4293 10.8667 3.5033C10.9416 3.57729 10.9905 3.67346 11.0063 3.7775" stroke="#641926" stroke-width="0.3" stroke-miterlimit="10" stroke-linecap="round"/>
<path d="M11.8102 1.89102C11.8437 1.84752 11.8862 1.81164 11.9347 1.78575C11.9832 1.75986 12.0366 1.74455 12.0914 1.74082C12.1462 1.7371 12.2012 1.74505 12.2528 1.76414C12.3043 1.78324 12.3512 1.81305 12.3904 1.8516C12.4588 1.9178 12.5109 1.99892 12.5427 2.08861C12.5745 2.17829 12.5851 2.27413 12.5737 2.3686" stroke="#641926" stroke-width="0.3" stroke-miterlimit="10" stroke-linecap="round"/>
<path d="M9.49467 4.99941C9.48375 4.89279 9.51303 4.78594 9.57679 4.6998C9.64055 4.61366 9.73418 4.55443 9.83934 4.53374C10.1675 4.46316 10.3893 4.91049 10.2885 5.06357" stroke="#641926" stroke-width="0.3" stroke-miterlimit="10" stroke-linecap="round"/>
<path d="M14.705 3.50067C14.6922 3.37327 14.7281 3.24574 14.8054 3.14372C14.8828 3.04169 14.9959 2.97272 15.1221 2.95067C15.5685 2.87734 15.7701 3.37051 15.596 3.56301" stroke="#641926" stroke-width="0.3" stroke-miterlimit="10" stroke-linecap="round"/>
<path d="M11.3143 2.58035C11.3013 2.47339 11.3299 2.36555 11.394 2.27896C11.4581 2.19236 11.5529 2.13358 11.6589 2.11469C12.1301 2.0331 12.3281 2.5941 12.1035 2.75635" stroke="#641926" stroke-width="0.3" stroke-miterlimit="10" stroke-linecap="round"/>
<path d="M14.5363 5.191C14.586 5.15512 14.6431 5.13088 14.7034 5.12005C14.7637 5.10922 14.8257 5.11209 14.8848 5.12845C14.9438 5.1448 14.9985 5.17423 15.0446 5.21454C15.0908 5.25485 15.1273 5.30502 15.1514 5.36135C15.1756 5.41767 15.1867 5.4787 15.1841 5.53992C15.1815 5.60114 15.1651 5.661 15.1363 5.71505C15.1074 5.7691 15.0668 5.81598 15.0173 5.8522C14.9679 5.88843 14.911 5.91308 14.8507 5.92433" stroke="#641926" stroke-width="0.3" stroke-miterlimit="10" stroke-linecap="round"/>
<path d="M9.29482 3.22753C9.30857 3.12486 9.41398 2.93878 9.73115 2.97453C9.84101 3.00135 9.93604 3.07004 9.99598 3.16594C10.0559 3.26183 10.076 3.37736 10.052 3.48786" stroke="#641926" stroke-width="0.3" stroke-miterlimit="10" stroke-linecap="round"/>
<path d="M4.35399 7.5983L6.25699 22.5354L8.26632 22.7545L13.3795 22.9992L14.8608 22.2164L17.5705 20.5792L17.9042 18.3875L19.2462 8.32155L18.9932 7.83846L13.9414 6.61563L4.56391 7.41863L4.35399 7.5983Z" fill="#F2F2F2"/>
<path d="M5.96274 7.13063L7.42207 22.6956L9.02165 22.8249L7.84282 7.02338L5.96274 7.13063Z" fill="#D14242"/>
<path d="M10.3178 7.03901L10.25 22.9019L11.9 22.9294L12.428 6.81351L10.3178 7.03901Z" fill="#D14242"/>
<path d="M15.7958 7.04356L14.7022 22.2996L13.4968 22.9376L13.9414 6.61548L15.7958 7.04356Z" fill="#D14242"/>
<path d="M19.2929 8.04453L17.5705 20.579L16.2643 21.3875L18.016 7.60178" fill="#D14242"/>
<path opacity="0.21" d="M13.9441 6.61548C13.9441 6.61548 22.0622 14.8581 10.5708 22.8643L13.5041 22.9376L17.7859 20.4966L19.1957 7.83831L13.9441 6.61548Z" fill="black"/>
<path d="M5.18267 7.44876L4.85175 7.83835L6.87209 22.6022H6.38259L5.96275 19.9365L4.36775 7.70176L4.56392 7.41851L5.18267 7.29935V7.44876Z" fill="white"/>
<path d="M4.79219 7.33875L13.9442 6.6155C13.9946 6.61163 14.0453 6.61565 14.0945 6.62741L18.8905 7.798C19.0042 7.82588 19.1036 7.89468 19.1697 7.99125C19.2358 8.08781 19.264 8.20536 19.2489 8.32141L17.6695 20.3417C17.6603 20.4132 17.6348 20.4817 17.5951 20.5419C17.5554 20.6021 17.5025 20.6524 17.4404 20.6891L13.6444 22.9303C13.5643 22.9773 13.4723 22.9999 13.3795 22.9954L6.67594 22.6746C6.56448 22.6693 6.45842 22.625 6.37631 22.5494C6.2942 22.4738 6.24127 22.3718 6.22678 22.2612L4.35861 7.875C4.35007 7.81102 4.35465 7.74598 4.37209 7.68384C4.38953 7.6217 4.41945 7.56377 4.46003 7.51358C4.50061 7.4634 4.55099 7.42201 4.6081 7.39195C4.66521 7.36189 4.72785 7.34378 4.79219 7.33875Z" stroke="#641926" stroke-width="0.3" stroke-miterlimit="10"/>
<path d="M13.9414 6.61548L13.4968 23" stroke="#641926" stroke-width="0.3" stroke-miterlimit="10"/>
</svg>
