<svg width="24" height="24" viewBox="0 0 24 24" fill="none" xmlns="http://www.w3.org/2000/svg">
<path d="M1.7448 18.1009L2.64229 15.724L3.7595 14.1162L5.16066 12.9394L7.69765 12.189L9.71421 11.4442L10.1676 10.9564L11.728 12.9245L10.068 13.6507L6.47245 14.7809L5.13366 16.3124C4.75249 16.9293 4.41045 17.5696 4.10955 18.2294C4.13655 18.37 3.25768 18.9518 3.20648 19.085C3.15527 19.2181 2.05017 19.1511 2.04272 19.085C1.9276 18.8609 1.80017 18.6433 1.66101 18.4333L1.7448 18.1009Z" fill="#BA703E"/>
<path d="M10.8612 7.46796C10.8612 7.46796 10.1164 8.53303 10.1676 8.7155C10.1513 9.30308 10.1022 9.88928 10.0205 10.4714L10.5791 11.6221L11.9067 13.0698L15.5376 15.8833L15.9231 17.291L16.343 18.7415L16.9798 19.5329L18.1203 19.7097L18.9814 19.0255L18.6286 17.1634C18.6286 17.1634 17.1604 14.8546 17.0906 14.7652C17.0207 14.6758 15.4622 12.9488 15.4622 12.9488L13.1533 10.6557L10.8612 7.46796Z" fill="#BA703E"/>
<path d="M13.3581 11.151L13.7492 9.53007L13.2064 7.08711L11.9123 4.97746L9.84452 3.60981L8.04116 3L5.60937 3.38171L3.33772 4.5613L1.7727 6.31717L1.07538 8.38866V10.9564L2.72419 15.3954L4.81709 13.1191L4.03598 10.9564L3.82091 8.73313L4.35159 7.39248L5.56189 6.22407L7.5589 5.60868C7.5589 5.60868 9.05502 5.99132 9.17047 6.00808C9.28591 6.02484 10.8612 7.48651 10.8612 7.48651L13.3581 11.151Z" fill="#BA703E"/>
<path d="M12.524 5.71106C13.0894 5.26482 13.621 4.77719 14.1141 4.25218L16.4323 3.0968L19.4367 3.39193L21.3918 4.5501C21.3918 4.5501 22.5062 6.0183 22.5342 6.06392C22.5621 6.10953 23.3441 7.91755 23.3441 7.91755C23.3441 7.91755 23.2287 10.516 23.2082 10.6286C23.1877 10.7413 22.4634 13.1721 22.4634 13.1721L20.58 15.8534L18.8911 17.5386L17.3773 15.157L19.2393 13.5883C19.2393 13.5883 20.5185 11.2263 20.5185 11.15C20.5185 11.0737 20.6731 8.93141 20.6731 8.93141L19.8873 6.95396L18.2925 5.89168L16.4984 5.82372L14.6579 6.83386L13.5472 8.03299L12.524 5.71106Z" fill="#BA703E"/>
<path d="M6.26855 15.2409L7.32152 16.1719C7.32152 16.1719 9.52986 16.9949 9.57362 17.0042C10.2863 17.126 11.0058 17.2047 11.728 17.2398C11.8257 17.1681 13.7492 16.8506 13.7492 16.8506C13.7492 16.8506 15.4529 16.1756 15.5348 16.1719C15.7464 16.6064 15.9226 17.0572 16.0618 17.52L16.599 18.8346C16.599 18.8346 15.344 19.5375 15.3105 19.5496C15.277 19.5617 13.1254 20.0318 13.1254 20.0318C13.1254 20.0318 10.9487 20.2776 10.7979 20.2683C9.79293 20.1673 8.79495 20.006 7.80936 19.7851C7.78516 19.6734 5.42506 18.4677 5.30217 18.3774C5.17927 18.2871 4.60205 17.6522 4.60205 17.6522V17.3896C4.60205 17.3896 5.5554 15.698 5.61592 15.6952C5.67643 15.6924 6.16335 15.0044 6.23038 15.0593C6.29741 15.1143 6.26855 15.2409 6.26855 15.2409Z" fill="#BA703E"/>
<path d="M13.6365 11.1509C13.6365 11.1509 10.4711 3.05769 5.68203 5.6254C0.892939 8.19311 4.60113 13.1731 4.60113 13.1731L3.76323 10.6593L4.02391 7.73506L5.31615 6.40651L7.41184 5.71198L9.60249 6.34041L10.5586 7.20718L11.9766 9.12784L13.6365 11.1509Z" fill="#9B5729"/>
<path d="M10.0205 11.1156C10.0205 11.1156 10.0205 12.8128 11.5855 12.7979L10.0205 11.1156Z" fill="#9B5729"/>
<path d="M6.31325 15.3954C6.492 15.3126 4.66723 17.2807 4.73054 17.9268L4.43262 17.628L5.23049 16.0546L6.23225 15.0593L6.31325 15.3954Z" fill="#9B5729"/>
<path d="M16.4984 19.1613C16.3523 19.0282 15.0293 18.4817 15.6689 16.1719L16.0413 18.0264L16.4984 19.1613Z" fill="#9B5729"/>
<path d="M13.3246 7.56944C13.3246 7.56944 17.3792 2.88648 20.1703 7.18772L19.6201 6.82184L18.474 6.17013L16.8913 5.93738L14.8645 6.58909L13.5472 8.03308L13.3246 7.56944Z" fill="#9B5729"/>
<path d="M13.3247 10.9564C13.2316 10.9796 20.7038 18.6427 17.4928 19.6305L18.2981 19.7283L18.987 19.1613L18.8297 18.2163L18.4759 16.6532L16.9472 14.4188L14.4474 11.96L13.3247 10.9564Z" fill="#DB8F5D"/>
<path d="M1.40128 7.10758C1.32774 6.91579 8.96105 -1.56567 13.6366 9.02266L13.2064 7.0871L11.728 4.93834L9.84457 3.60979L8.4341 3.13312H6.47247L3.75952 4.34249L2.28853 5.56677L1.40128 7.10758Z" fill="#DB8F5D"/>
<path d="M22.8321 6.70165C22.8395 6.82548 18.8194 0.68736 12.6525 6.07788L12.2596 5.71106L13.239 4.96626L14.1886 4.01384L16.4323 3.0968L18.326 3.14521L19.838 3.44872L20.8807 4.12277L21.8294 5.12453L22.8321 6.70165Z" fill="#DB8F5D"/>
<path d="M7.3215 16.2966C8.35081 17.1491 9.63 17.6428 10.9652 17.7028C12.3003 17.7627 13.6186 17.3858 14.7202 16.629C14.7202 16.629 13.6272 16.9846 13.5173 17.0014C13.4075 17.0182 11.0204 17.1802 11.0204 17.1802L9.47213 16.9576L7.3215 16.2966Z" fill="#DB8F5D"/>
<path d="M4.48569 17.4399C4.48569 17.4399 10.0187 21.4386 16.4957 18.5897L16.5133 19.0496C16.5133 19.0496 15.4958 19.4612 15.4017 19.5049C15.3077 19.5487 13.5146 20.1641 13.5146 20.1641L10.5558 20.2832L7.98813 19.7851L6.18198 18.9472L4.93071 18.1L4.42703 17.7146L4.48569 17.4399Z" fill="#9B5729"/>
<path d="M11.1154 7.65318C11.1154 7.65318 8.14082 11.4079 15.5684 15.7445L11.6451 12.9608L10.0205 10.9564L9.83432 9.44164L10.6657 7.28729L11.1154 7.65318Z" fill="#9B5729"/>
<path d="M11.0204 12.7151C9.98324 13.1724 8.92223 13.5736 7.84197 13.917C5.97996 14.5147 3.98668 15.6552 4.05371 17.9268L5.11505 16.4931L6.23226 15.0593L7.84476 14.3825L9.68908 13.7708L11.5883 12.7979L11.1554 12.3538L11.0204 12.7151Z" fill="#9B5729"/>
<path d="M5.63921 12.7979C5.63921 12.7979 2.82385 15.2129 2.42538 17.4399C2.02691 19.6669 3.43738 18.8615 3.43738 18.8615C3.23037 19.0015 3.0091 19.1192 2.7773 19.2125C2.69071 19.2004 2.04273 19.0896 2.04273 19.0896L1.74481 18.1009L2.0688 16.8729L3.23442 14.807L4.43262 13.4338L5.63921 12.7979Z" fill="#DB8F5D"/>
<path d="M18.6342 17.1848C18.6342 17.1848 22.7017 13.4766 22.8321 11.7198C22.8321 11.7198 22.0975 13.7177 22.0817 13.8667C22.0658 14.0156 20.1536 16.1467 20.1703 16.2966C19.7744 16.8065 19.3346 17.2806 18.8557 17.7136L18.6342 17.1848Z" fill="#9B5729"/>
<path d="M12.4514 5.79117C13.1248 4.88696 14.0177 4.16944 15.0456 3.70645C16.0736 3.24347 17.2026 3.05031 18.326 3.14525C22.8619 3.72806 23.305 8.47619 23.305 8.47619C23.305 8.47619 24.0722 13.336 18.7897 17.5377" stroke="#641926" stroke-width="0.4" stroke-miterlimit="10"/>
<path d="M4.4205 17.6522C6.05319 19.0859 8.08543 19.9859 10.2444 20.2312C12.4034 20.4765 14.5857 20.0554 16.4984 19.0245" stroke="#641926" stroke-width="0.4" stroke-miterlimit="10"/>
<path d="M2.77728 15.5016C2.889 15.3154 3.00631 15.1376 3.13106 14.956C3.56098 14.2622 4.1197 13.657 4.77708 13.1731C5.83918 12.5499 7.03281 12.1847 8.26184 12.1071C8.64136 12.0542 9.00627 11.9251 9.33458 11.7275C9.6629 11.5299 9.94784 11.2679 10.1723 10.9573" stroke="#641926" stroke-width="0.4" stroke-miterlimit="10"/>
<path d="M13.4382 11.0541C13.8286 10.0545 13.8566 8.94969 13.5174 7.93155C13.288 7.1624 12.9287 6.43818 12.4551 5.79023C11.6292 4.54459 10.3706 3.64959 8.92288 3.27845C7.47513 2.90732 5.94118 3.08643 4.61789 3.78112C-2.21104 7.12157 2.72422 15.3954 2.72422 15.3954C2.74191 15.4308 2.75867 15.4662 2.77729 15.5015C1.71222 17.2435 1.29141 18.9137 2.3751 19.1827C3.57144 19.4816 4.36931 17.7862 4.36931 17.7862C4.36931 17.7862 4.38607 17.7369 4.42052 17.6503C4.79666 16.6864 5.40414 15.8299 6.18943 15.1561C6.57908 14.8439 7.03727 14.6285 7.52635 14.5277C8.97372 14.179 10.3582 13.6077 11.6302 12.8342" stroke="#641926" stroke-width="0.4" stroke-miterlimit="10"/>
<path d="M6.18475 15.1581C8.59233 17.5871 12.3229 17.7267 15.6689 16.1431" stroke="#641926" stroke-width="0.4" stroke-miterlimit="10"/>
<path d="M13.5174 7.93159C14.2519 7.13092 16.1661 4.98775 18.8306 6.17385C21.5659 7.39254 21.3993 12.5726 17.3755 15.1553" stroke="#641926" stroke-width="0.4" stroke-miterlimit="10"/>
<path d="M4.77707 13.1731C4.17006 11.9926 2.59852 8.34306 5.25002 6.48384C7.67064 4.78289 9.7924 6.2576 10.8826 7.3925" stroke="#641926" stroke-width="0.4" stroke-miterlimit="10"/>
<path d="M17.3754 15.1553C17.0077 14.6572 16.7237 14.3267 16.7237 14.3267C16.7237 14.3267 14.5657 12.1779 14.0341 11.6687C13.8105 11.4896 13.6103 11.2832 13.4382 11.0542C12.8396 10.2163 11.9328 8.79279 11.5855 8.26119C11.4877 8.11294 11.382 7.96998 11.269 7.83293C11.1601 7.69979 11.0316 7.55363 10.8826 7.39722C10.54 7.82245 10.2864 8.31228 10.137 8.83754C9.98766 9.3628 9.94549 9.91274 10.0131 10.4546C10.0432 10.6292 10.0952 10.7994 10.1676 10.9611C10.5311 11.6742 11.0275 12.3113 11.6302 12.838C12.6065 13.6904 13.6467 14.4667 14.7416 15.1599C15.1969 15.5119 15.4213 15.605 15.6726 16.1477C15.8132 16.5872 15.9068 17.0404 15.9519 17.4996C16.0376 18.0392 16.2236 18.558 16.5003 19.0292C16.5871 19.1962 16.7061 19.3443 16.8506 19.4649C16.9951 19.5855 17.1621 19.6762 17.3419 19.7317C17.5217 19.7872 17.7108 19.8065 17.8981 19.7883C18.0854 19.7702 18.2673 19.715 18.4331 19.626C19.2105 19.2917 19.1583 18.4557 18.7915 17.5442C18.4152 16.6968 17.9406 15.8965 17.3773 15.1599" stroke="#641926" stroke-width="0.4" stroke-miterlimit="10"/>
<path d="M2.97341 9.76868C2.98421 9.6918 2.87945 9.61352 2.73943 9.59385C2.5994 9.57418 2.47713 9.62057 2.46633 9.69745C2.45553 9.77434 2.56029 9.85261 2.70031 9.87228C2.84034 9.89195 2.96261 9.84557 2.97341 9.76868Z" fill="#EDC7AB"/>
<path d="M4.83657 5.42592C5.00618 5.35845 5.11363 5.22824 5.07657 5.13507C5.03951 5.04191 4.87198 5.02107 4.70237 5.08854C4.53276 5.156 4.42531 5.28622 4.46236 5.37938C4.49942 5.47255 4.66696 5.49338 4.83657 5.42592Z" fill="#EDC7AB"/>
<path d="M14.1003 6.40269C14.2843 6.32952 14.4009 6.18849 14.3608 6.08768C14.3207 5.98687 14.1391 5.96446 13.9551 6.03763C13.7712 6.11079 13.6546 6.25183 13.6947 6.35264C13.7348 6.45345 13.9164 6.47586 14.1003 6.40269Z" fill="#EDC7AB"/>
<path d="M11.3328 18.8461C11.5326 18.7666 11.659 18.6132 11.6153 18.5033C11.5716 18.3934 11.3743 18.3687 11.1746 18.4481C10.9749 18.5276 10.8484 18.6811 10.8921 18.7909C10.9358 18.9008 11.1331 18.9255 11.3328 18.8461Z" fill="#EDC7AB"/>
<path d="M18.4735 15.4474C18.6622 15.3723 18.7818 15.2274 18.7405 15.1237C18.6993 15.02 18.5129 14.9968 18.3242 15.0719C18.1354 15.147 18.0159 15.2919 18.0571 15.3955C18.0984 15.4992 18.2848 15.5224 18.4735 15.4474Z" fill="#EDC7AB"/>
<path d="M3.37831 17.1448C3.57545 17.0659 3.70011 16.9141 3.65673 16.8057C3.61335 16.6974 3.41837 16.6735 3.22122 16.7524C3.02408 16.8313 2.89942 16.9832 2.9428 17.0915C2.98618 17.1999 3.18116 17.2237 3.37831 17.1448Z" fill="#EDC7AB"/>
<path d="M12.857 12.6528C13.0183 12.5881 13.1202 12.4638 13.0846 12.375C13.049 12.2862 12.8894 12.2667 12.7281 12.3313C12.5668 12.396 12.4649 12.5204 12.5004 12.6092C12.536 12.6979 12.6956 12.7175 12.857 12.6528Z" fill="#EDC7AB"/>
<path d="M21.5857 9.51098C21.7604 9.44104 21.8709 9.30656 21.8325 9.21062C21.7941 9.11467 21.6213 9.09358 21.4466 9.16352C21.2719 9.23346 21.1614 9.36794 21.1998 9.46389C21.2382 9.55984 21.411 9.58092 21.5857 9.51098Z" fill="#EDC7AB"/>
<path d="M2.4766 7.28733C2.6432 7.28733 2.77825 7.19812 2.77825 7.08809C2.77825 6.97806 2.6432 6.88885 2.4766 6.88885C2.31001 6.88885 2.17496 6.97806 2.17496 7.08809C2.17496 7.19812 2.31001 7.28733 2.4766 7.28733Z" fill="#EDC7AB"/>
<path d="M21.3183 5.91031C21.4849 5.91031 21.6199 5.82111 21.6199 5.71108C21.6199 5.60104 21.4849 5.51184 21.3183 5.51184C21.1517 5.51184 21.0166 5.60104 21.0166 5.71108C21.0166 5.82111 21.1517 5.91031 21.3183 5.91031Z" fill="#EDC7AB"/>
<path d="M16.4463 4.55576C16.6129 4.55576 16.748 4.46656 16.748 4.35652C16.748 4.24649 16.6129 4.15729 16.4463 4.15729C16.2797 4.15729 16.1447 4.24649 16.1447 4.35652C16.1447 4.46656 16.2797 4.55576 16.4463 4.55576Z" fill="#EDC7AB"/>
<path d="M20.7457 12.5531C20.9123 12.5531 21.0474 12.4639 21.0474 12.3538C21.0474 12.2438 20.9123 12.1546 20.7457 12.1546C20.5791 12.1546 20.4441 12.2438 20.4441 12.3538C20.4441 12.4639 20.5791 12.5531 20.7457 12.5531Z" fill="#EDC7AB"/>
<path d="M14.4195 17.5833C14.5861 17.5833 14.7212 17.4941 14.7212 17.3841C14.7212 17.2741 14.5861 17.1849 14.4195 17.1849C14.2529 17.1849 14.1179 17.2741 14.1179 17.3841C14.1179 17.4941 14.2529 17.5833 14.4195 17.5833Z" fill="#EDC7AB"/>
<path d="M15.669 15.1431C15.8355 15.1431 15.9706 15.0539 15.9706 14.9439C15.9706 14.8338 15.8355 14.7446 15.669 14.7446C15.5024 14.7446 15.3673 14.8338 15.3673 14.9439C15.3673 15.0539 15.5024 15.1431 15.669 15.1431Z" fill="#EDC7AB"/>
<path d="M11.3221 6.10965C11.4887 6.10965 11.6237 6.02045 11.6237 5.91042C11.6237 5.80038 11.4887 5.71118 11.3221 5.71118C11.1555 5.71118 11.0204 5.80038 11.0204 5.91042C11.0204 6.02045 11.1555 6.10965 11.3221 6.10965Z" fill="#EDC7AB"/>
<path d="M8.27305 18.6689C8.43964 18.6689 8.5747 18.5797 8.5747 18.4697C8.5747 18.3596 8.43964 18.2704 8.27305 18.2704C8.10646 18.2704 7.97141 18.3596 7.97141 18.4697C7.97141 18.5797 8.10646 18.6689 8.27305 18.6689Z" fill="#EDC7AB"/>
<path d="M17.3848 18.6689C17.5514 18.6689 17.6864 18.5797 17.6864 18.4697C17.6864 18.3596 17.5514 18.2704 17.3848 18.2704C17.2182 18.2704 17.0831 18.3596 17.0831 18.4697C17.0831 18.5797 17.2182 18.6689 17.3848 18.6689Z" fill="#EDC7AB"/>
<path d="M20.445 15.0389C20.6116 15.0389 20.7467 14.9497 20.7467 14.8397C20.7467 14.7296 20.6116 14.6404 20.445 14.6404C20.2784 14.6404 20.1434 14.7296 20.1434 14.8397C20.1434 14.9497 20.2784 15.0389 20.445 15.0389Z" fill="#EDC7AB"/>
<path d="M4.88047 14.8396C5.04707 14.8396 5.18212 14.7504 5.18212 14.6403C5.18212 14.5303 5.04707 14.4411 4.88047 14.4411C4.71388 14.4411 4.57883 14.5303 4.57883 14.6403C4.57883 14.7504 4.71388 14.8396 4.88047 14.8396Z" fill="#EDC7AB"/>
<path d="M9.68348 12.5866C9.8218 12.5866 9.93393 12.5124 9.93393 12.4209C9.93393 12.3294 9.8218 12.2552 9.68348 12.2552C9.54517 12.2552 9.43304 12.3294 9.43304 12.4209C9.43304 12.5124 9.54517 12.5866 9.68348 12.5866Z" fill="#EDC7AB"/>
<path d="M2.15159 11.8021C2.17979 11.7134 2.09381 11.6069 1.95954 11.5642C1.82528 11.5215 1.69358 11.5588 1.66538 11.6475C1.63718 11.7362 1.72316 11.8427 1.85742 11.8854C1.99169 11.9281 2.12339 11.8908 2.15159 11.8021Z" fill="#EDC7AB"/>
<path d="M14.4984 19.0453C14.5265 18.9566 14.4405 18.8502 14.3062 18.8075C14.1719 18.7649 14.0402 18.8023 14.0121 18.891C13.9839 18.9797 14.0699 19.0861 14.2042 19.1288C14.3385 19.1714 14.4702 19.134 14.4984 19.0453Z" fill="#EDC7AB"/>
<path d="M7.00742 13.0366C7.03558 12.9479 6.94955 12.8414 6.81527 12.7988C6.68099 12.7562 6.5493 12.7935 6.52114 12.8822C6.49298 12.9709 6.57901 13.0774 6.71329 13.12C6.84757 13.1627 6.97926 13.1253 7.00742 13.0366Z" fill="#EDC7AB"/>
<path d="M11.5651 10.3954C11.5933 10.3067 11.5073 10.2002 11.373 10.1576C11.2387 10.1149 11.107 10.1523 11.0789 10.241C11.0507 10.3297 11.1367 10.4362 11.271 10.4788C11.4053 10.5214 11.537 10.4841 11.5651 10.3954Z" fill="#EDC7AB"/>
<path d="M8.27303 4.35655C8.36199 4.35655 8.4341 4.28444 8.4341 4.19549C8.4341 4.10653 8.36199 4.03442 8.27303 4.03442C8.18408 4.03442 8.11197 4.10653 8.11197 4.19549C8.11197 4.28444 8.18408 4.35655 8.27303 4.35655Z" fill="#EDC7AB"/>
<path d="M3.53237 13.1201C3.62132 13.1201 3.69344 13.048 3.69344 12.959C3.69344 12.8701 3.62132 12.798 3.53237 12.798C3.44342 12.798 3.37131 12.8701 3.37131 12.959C3.37131 13.048 3.44342 13.1201 3.53237 13.1201Z" fill="#EDC7AB"/>
<path d="M18.826 5.53142C18.9149 5.53142 18.987 5.45931 18.987 5.37035C18.987 5.2814 18.9149 5.20929 18.826 5.20929C18.737 5.20929 18.6649 5.2814 18.6649 5.37035C18.6649 5.45931 18.737 5.53142 18.826 5.53142Z" fill="#EDC7AB"/>
<path d="M5.91201 17.1634C6.00096 17.1634 6.07307 17.0913 6.07307 17.0023C6.07307 16.9134 6.00096 16.8412 5.91201 16.8412C5.82306 16.8412 5.75095 16.9134 5.75095 17.0023C5.75095 17.0913 5.82306 17.1634 5.91201 17.1634Z" fill="#EDC7AB"/>
<path d="M17.3848 17.0229C17.4737 17.0229 17.5459 16.9508 17.5459 16.8618C17.5459 16.7729 17.4737 16.7007 17.3848 16.7007C17.2958 16.7007 17.2237 16.7729 17.2237 16.8618C17.2237 16.9508 17.2958 17.0229 17.3848 17.0229Z" fill="#EDC7AB"/>
<path d="M15.0256 13.7504C15.1145 13.7504 15.1867 13.6783 15.1867 13.5893C15.1867 13.5004 15.1145 13.4283 15.0256 13.4283C14.9366 13.4283 14.8645 13.5004 14.8645 13.5893C14.8645 13.6783 14.9366 13.7504 15.0256 13.7504Z" fill="#EDC7AB"/>
<path d="M22.5379 11.1175C22.6268 11.1175 22.699 11.0454 22.699 10.9564C22.699 10.8675 22.6268 10.7953 22.5379 10.7953C22.4489 10.7953 22.3768 10.8675 22.3768 10.9564C22.3768 11.0454 22.4489 11.1175 22.5379 11.1175Z" fill="#EDC7AB"/>
<path d="M12.8629 8.64476C12.9519 8.64476 13.024 8.57265 13.024 8.4837C13.024 8.39474 12.9519 8.32263 12.8629 8.32263C12.774 8.32263 12.7018 8.39474 12.7018 8.4837C12.7018 8.57265 12.774 8.64476 12.8629 8.64476Z" fill="#EDC7AB"/>
<path d="M8.4341 13.4989C8.52306 13.4989 8.59517 13.4268 8.59517 13.3379C8.59517 13.2489 8.52306 13.1768 8.4341 13.1768C8.34515 13.1768 8.27304 13.2489 8.27304 13.3379C8.27304 13.4268 8.34515 13.4989 8.4341 13.4989Z" fill="#EDC7AB"/>
</svg>
