<svg width="24" height="24" viewBox="0 0 24 24" fill="none" xmlns="http://www.w3.org/2000/svg">
<path d="M1 18.4767L11.9993 3.00073L13.4457 4.68729L22.9986 18.9497L22.7291 19.4419L20.5136 19.5281L20.641 19.9625H2.198L2.03118 19.3475L1.13199 18.9763L1 18.4767Z" fill="#D89A4B"/>
<path d="M2.03118 19.3474L11.1578 5.46539C11.8077 4.49104 12.1102 3.73392 12.9599 4.02999L13.0717 4.18123L12.2229 3.02814L11.6638 3.28937L1 18.2566L1.13199 18.9762L2.03118 19.3474Z" fill="#BC7C3C"/>
<path d="M8.60782 9.78075L8.81589 9.68176C8.87646 9.65294 8.94293 9.63873 9.00999 9.64027C9.07704 9.6418 9.1428 9.65904 9.20199 9.69059C9.26117 9.72215 9.31214 9.76714 9.35078 9.82196C9.38943 9.87677 9.41468 9.93989 9.42451 10.0062C9.66833 11.668 10.958 16.4014 17.7656 18.1356L15.5273 16.6159L12.1688 14.1951L10.639 11.2803L10.0075 8.58183C10.0075 8.58183 9.49601 8.2766 9.40802 8.42967C9.32002 8.58275 8.60782 9.78075 8.60782 9.78075Z" fill="#E1A95A"/>
<path d="M13.1395 4.56799C13.2724 4.62207 21.8803 18.4032 21.96 19.4711L22.7291 19.4418L22.9985 18.736L13.5373 4.82373L13.1395 4.56799Z" fill="#E1A95A"/>
<path d="M20.2414 19.4713L2.03119 19.3475L2.27776 19.749C2.27776 19.749 4.06422 20.0689 4.22371 20.0423C4.3832 20.0157 20.455 20.0423 20.455 20.0423L20.5622 19.694L20.2414 19.4713Z" fill="#BC7C3C"/>
<path d="M12.7656 7.80183C12.9974 7.80183 13.1854 7.61388 13.1854 7.38202C13.1854 7.15017 12.9974 6.96222 12.7656 6.96222C12.5337 6.96222 12.3458 7.15017 12.3458 7.38202C12.3458 7.61388 12.5337 7.80183 12.7656 7.80183Z" fill="#BC7C3C"/>
<path d="M5.92951 17.8012C6.16136 17.8012 6.34932 17.6132 6.34932 17.3814C6.34932 17.1495 6.16136 16.9615 5.92951 16.9615C5.69766 16.9615 5.5097 17.1495 5.5097 17.3814C5.5097 17.6132 5.69766 17.8012 5.92951 17.8012Z" fill="#BC7C3C"/>
<path d="M13.7317 12.9092C13.8992 12.9092 14.035 12.7733 14.035 12.6058C14.035 12.4382 13.8992 12.3024 13.7317 12.3024C13.5641 12.3024 13.4283 12.4382 13.4283 12.6058C13.4283 12.7733 13.5641 12.9092 13.7317 12.9092Z" fill="#BC7C3C"/>
<path d="M8.14495 14.306C8.31251 14.306 8.44835 14.1702 8.44835 14.0026C8.44835 13.8351 8.31251 13.6992 8.14495 13.6992C7.97739 13.6992 7.84155 13.8351 7.84155 14.0026C7.84155 14.1702 7.97739 14.306 8.14495 14.306Z" fill="#BC7C3C"/>
<path d="M18.3 15.9505C18.4185 15.9505 18.5145 15.8545 18.5145 15.736C18.5145 15.6176 18.4185 15.5215 18.3 15.5215C18.1816 15.5215 18.0855 15.6176 18.0855 15.736C18.0855 15.8545 18.1816 15.9505 18.3 15.9505Z" fill="#BC7C3C"/>
<path d="M11.2972 17.176C11.4156 17.176 11.5116 17.08 11.5116 16.9616C11.5116 16.8431 11.4156 16.7471 11.2972 16.7471C11.1787 16.7471 11.0827 16.8431 11.0827 16.9616C11.0827 17.08 11.1787 17.176 11.2972 17.176Z" fill="#BC7C3C"/>
<path d="M15.3458 10.4866C15.4643 10.4866 15.5603 10.3906 15.5603 10.2721C15.5603 10.1536 15.4643 10.0576 15.3458 10.0576C15.2273 10.0576 15.1313 10.1536 15.1313 10.2721C15.1313 10.3906 15.2273 10.4866 15.3458 10.4866Z" fill="#BC7C3C"/>
<path d="M2.05509 19.3511L1.60596 19.275C1.48482 19.2545 1.37087 19.2036 1.27476 19.1271C1.17866 19.0505 1.10356 18.9509 1.05648 18.8374C1.0094 18.7239 0.991895 18.6003 1.0056 18.4783C1.0193 18.3562 1.06376 18.2396 1.13482 18.1393L11.7436 3.1739C11.782 3.11962 11.833 3.07544 11.8922 3.04516C11.9514 3.01488 12.017 2.99939 12.0835 3.00002C12.15 3.00065 12.2154 3.01738 12.274 3.04878C12.3326 3.08018 12.3827 3.12531 12.4201 3.18032L22.885 18.5518C22.9524 18.6486 22.9918 18.762 22.9989 18.8797C23.006 18.9974 22.9806 19.1148 22.9254 19.219C22.8702 19.3231 22.7873 19.4101 22.6859 19.4703C22.5845 19.5304 22.4685 19.5615 22.3506 19.5601H20.5815" stroke="#641926" stroke-width="0.4" stroke-miterlimit="10"/>
<path d="M2.63155 19.9624H2.56739C2.50414 19.9624 1.6352 19.8753 2.25116 18.9541C2.78004 18.1613 7.67197 10.9439 9.31911 8.58732C9.36005 8.52899 9.41745 8.48418 9.48398 8.45864C9.55052 8.43309 9.62316 8.42795 9.69262 8.44389C9.76208 8.45983 9.82522 8.49612 9.87395 8.54812C9.92269 8.60012 9.95482 8.66547 9.96623 8.73581C10.2746 11.2691 11.5381 13.5892 13.4988 15.2226C15.7028 16.8667 18.0506 18.3085 20.5136 19.5307C20.56 19.5537 20.5972 19.5917 20.6193 19.6385C20.6413 19.6854 20.6468 19.7383 20.6349 19.7887C20.623 19.8391 20.5944 19.884 20.5537 19.916C20.513 19.948 20.4627 19.9654 20.411 19.9652L2.63155 19.9624Z" stroke="#641926" stroke-width="0.4" stroke-miterlimit="10"/>
</svg>
