<svg width="24" height="24" viewBox="0 0 24 24" fill="none" xmlns="http://www.w3.org/2000/svg">
<path d="M2.19077 17.8128C2.05552 17.9443 1.36425 18.8225 1.36425 18.8225L1.18204 19.8331H1.86955C2.70391 19.7132 3.52631 19.5212 4.32751 19.2592C4.28243 19.1202 3.8748 18.9915 3.8748 18.9915L3.0511 18.6365L2.50259 18.1969L2.19077 17.8128Z" fill="#FFCD5C"/>
<path d="M8.84518 17.6307L10.394 16.4472L11.7962 16.3101L13.8456 15.7109L14.4007 15.1981L15.9335 15.4657L17.0785 15.5089L15.6039 15.7973L8.62634 18.012L8.84518 17.6307Z" fill="#FFCD5C"/>
<path d="M21.2684 13.6793L22.4997 11.9267L23.1675 12.8622L22.8622 13.3525L21.2684 13.6793Z" fill="#FFCD5C"/>
<path d="M1.0834 19.5701V20.9883L1.36517 21.2429L5.30523 20.2999L16.2209 16.8153L23.3027 14.5556L23.1675 13.157L20.9932 13.8671L19.9544 14.7293L18.6723 15.3548L17.4626 16.2302L17.1395 15.9043L16.947 15.3548L15.9335 15.6535L8.31358 18.0269L6.19562 18.9502L4.71728 19.1662L3.23236 19.5926L1.86954 19.8331L1.0834 19.5701Z" fill="#D88D4A"/>
<path d="M1.89304 18.2693C1.89304 18.2693 2.32414 19.5062 2.94967 19.464C3.47219 19.406 3.98939 19.3074 4.49658 19.1691L2.84635 18.5961L2.18889 17.8128L1.89304 18.2693Z" fill="#E0AD48"/>
<path d="M22.6725 12.2591C22.6725 12.2591 22.4678 13.4548 22.0385 13.5215C21.6093 13.5882 21.4919 13.5966 21.4919 13.5966L22.0385 12.6884L22.3842 12.0103L22.6725 12.2591Z" fill="#E0AD48"/>
<path d="M8.62634 17.8129L10.394 16.4472L11.5943 16.312C11.5943 16.312 12.6791 16.0668 12.8519 16.0086C13.0247 15.9504 14.4007 15.1981 14.4007 15.1981C14.4007 15.1981 16.2266 15.4939 16.3111 15.4967C16.3956 15.4996 14.1885 16.2303 14.1885 16.2303L8.62634 18.0092V17.8129Z" fill="#E0AD48"/>
<path d="M3.19482 19.4649C3.19482 19.4649 4.10681 20.6859 4.47124 20.561C4.83566 20.4361 21.1895 15.0712 21.1895 15.0712L22.2659 13.3871L21.0665 13.7854L19.9281 14.6476L18.6461 15.2731L17.4363 16.1475L17.1132 15.8226L16.9076 15.4957L15.9101 15.5671L7.63456 18.1866L6.1703 19.0864L4.32847 19.1286L3.19482 19.4649Z" fill="#BF7436"/>
<path d="M16.3966 15.4995C13.6484 16.4153 10.4983 17.4437 7.79047 18.2693" stroke="#641926" stroke-width="0.4" stroke-miterlimit="10"/>
<path d="M22.4621 11.7717C22.6444 12.184 22.9374 12.5099 23.037 12.7212C23.0647 12.7798 23.0798 12.8436 23.0811 12.9084C23.0824 12.9732 23.07 13.0376 23.0446 13.0972C23.0192 13.1569 22.9815 13.2105 22.9338 13.2544C22.8862 13.2984 22.8298 13.3318 22.7683 13.3524L20.9932 13.9535" stroke="#641926" stroke-width="0.4" stroke-miterlimit="10"/>
<path d="M2.19077 17.8128C2.19077 17.8128 0.702097 19.1691 1.34547 19.7795C1.53331 19.9561 2.83321 19.6856 4.72105 19.1662" stroke="#641926" stroke-width="0.4" stroke-miterlimit="10"/>
<path d="M1.2431 19.0855C1.09387 19.4146 1.01163 19.7701 1.00115 20.1313C0.990665 20.4925 1.05216 20.8522 1.18205 21.1894C1.59437 21.875 19.1044 15.7672 22.6716 14.7294C23.0811 14.611 23.2661 14.5368 23.2934 14.1104C23.3479 13.67 23.2742 13.2232 23.0811 12.8237" stroke="#641926" stroke-width="0.4" stroke-miterlimit="10"/>
<path d="M1.99823 16.3542C1.99823 16.3542 2.19171 17.9509 2.5026 18.1988C2.81348 18.4468 3.66066 18.9915 3.66066 18.9915L5.26862 19.078L6.5084 18.8225L8.3136 18.027L10.0718 16.605L8.32487 16.2293L6.03503 17.7076L4.63934 18.5961L4.17818 17.9199L3.12718 16.6707L1.99823 16.3542Z" fill="#F7B7BA"/>
<path d="M2.31569 16.3186C2.31569 16.3186 2.69608 21.8375 10.1573 16.4482L9.80415 16.9366C9.80415 16.9366 7.39128 18.6272 7.32741 18.5971C7.26354 18.5671 5.49404 19.1522 5.49404 19.1522C5.49404 19.1522 4.11619 19.1137 4.04669 19.1522C3.60152 18.9607 3.17002 18.7388 2.75525 18.4882C2.75525 18.4882 2.24619 17.5189 2.1842 17.4137C2.12221 17.3085 1.89304 16.1674 1.89304 16.1674L2.31569 16.3186Z" fill="#FCD6D9"/>
<path d="M9.80508 16.822C8.28894 16.8021 6.7999 17.2248 5.52032 18.0383L6.84558 17.193L7.98862 16.4463L8.9795 16.2585L10.0728 16.436L9.80508 16.822Z" fill="#D69297"/>
<path d="M2.01516 16.0922C1.96342 16.4401 1.98115 16.7949 2.06734 17.1359C2.15353 17.4769 2.30646 17.7975 2.51729 18.0791C2.72812 18.3607 2.99267 18.5976 3.29565 18.7764C3.59863 18.9551 3.93403 19.072 4.28245 19.1203C6.91981 19.5899 10.394 16.4472 10.394 16.4472" stroke="#641926" stroke-width="0.4" stroke-miterlimit="10"/>
<path d="M14.5952 15.0974L15.3813 14.5602L16.7986 15.2026C16.7986 15.2026 17.2137 15.5642 17.1236 15.5661C17.0334 15.568 16.1374 15.5163 16.1374 15.5163L14.5952 15.0974Z" fill="#F7B7BA"/>
<path d="M19.0499 15.1529C19.2496 14.5218 19.4825 13.9017 19.7477 13.2951L22.4997 11.551L22.3569 12.4066L21.4909 13.5948L19.5111 15.0553L19.0499 15.1529Z" fill="#F7B7BA"/>
<path d="M14.5952 15.0975C14.6891 15.0336 15.3991 14.5414 15.4489 14.4888C15.9508 14.7174 16.4374 14.9781 16.9057 15.2693C16.9057 15.2693 17.0165 15.63 16.931 15.5821C16.8455 15.5342 14.6609 15.1576 14.6609 15.1576L14.5952 15.0975Z" fill="#D69297"/>
<path d="M19.3852 14.5555C20.2828 14.0585 21.1085 13.4413 21.8394 12.7212C21.8394 12.7212 20.5949 14.3987 20.5301 14.44C20.4653 14.4813 19.3382 15.0298 19.3382 15.0298H19.0715L19.3805 14.4832L19.3852 14.5555Z" fill="#D69297"/>
<path d="M22.4922 11.4392C22.6039 11.9661 21.4957 14.0973 19.3561 15.0468C19.1615 15.1329 18.9613 15.2057 18.7569 15.2647" stroke="#641926" stroke-width="0.4" stroke-miterlimit="10"/>
<path d="M14.4007 15.198C15.2753 15.4214 16.176 15.526 17.0785 15.5089" stroke="#641926" stroke-width="0.4" stroke-miterlimit="10"/>
<path d="M3.12439 16.5282L4.63655 18.5964L6.84467 17.1941L8.32489 16.2305L7.65992 15.804L6.30931 16.5263L3.63909 16.671L3.12439 16.5282Z" fill="#FEBF22"/>
<path d="M7.65989 15.804C7.65989 15.804 4.25425 18.5795 4.63934 18.5964C4.74077 18.5964 6.32995 17.4627 6.42387 17.4608C7.13572 17.1231 7.81484 16.7204 8.4526 16.2577C8.20074 16.0858 7.93568 15.9341 7.65989 15.804Z" fill="#D8A023"/>
<path d="M4.04669 17.2006C4.04669 17.2006 4.60365 17.8093 4.61023 18.0121C4.6168 18.215 5.38509 17.1997 5.38509 17.1997L4.04669 17.2006Z" fill="#FFDB92"/>
<path d="M3.05112 16.5329C3.6007 17.1441 4.1004 17.7983 4.54543 18.4893C4.55853 18.5146 4.57694 18.5368 4.59939 18.5544C4.62185 18.5719 4.64782 18.5844 4.67555 18.591C4.70328 18.5976 4.7321 18.5982 4.76005 18.5926C4.78801 18.587 4.81443 18.5755 4.83753 18.5588C5.60488 18.0019 8.20654 16.146 8.62543 16.2333" stroke="#641926" stroke-width="0.4" stroke-miterlimit="10"/>
<path d="M15.3108 14.5416L16.8793 15.1991L17.2625 16.0932L17.9576 15.9486C17.9576 15.9486 19.0001 14.9671 19.0546 14.8835C19.1091 14.7999 19.5364 13.2455 19.5364 13.2455L17.9764 13.3788L16.4736 13.0201L16.0876 13.5836L15.3108 14.5416Z" fill="#FEBF22"/>
<path d="M15.3409 14.4403C15.3409 14.4403 18.7851 14.2525 19.6388 13.4682H17.8336L16.3966 12.8906L16.0932 13.8054L15.3841 14.5568L15.3409 14.4403Z" fill="#D8A023"/>
<path d="M16.9921 14.7427C16.9921 14.7427 17.5378 15.3203 17.4899 15.6509C17.442 15.9815 18.8743 14.754 18.8574 14.5107C18.8405 14.2675 16.9921 14.7427 16.9921 14.7427Z" fill="#FFDB92"/>
<path d="M15.2423 14.5341C15.2592 14.5191 17.2015 14.8901 17.2353 16.0068C17.2357 16.0329 17.2423 16.0586 17.2546 16.0817C17.2669 16.1047 17.2846 16.1245 17.3061 16.1393C17.3276 16.1541 17.3524 16.1635 17.3783 16.1668C17.4042 16.17 17.4306 16.167 17.4551 16.158C18.0562 15.9215 18.5813 15.5253 18.9738 15.0121C19.3662 14.499 19.6111 13.8885 19.682 13.2464" stroke="#641926" stroke-width="0.4" stroke-miterlimit="10"/>
<path d="M2.05836 14.5877C2.05836 14.5877 1.69112 15.7993 1.99731 16.0557C2.51449 16.3335 3.0667 16.5404 3.63908 16.6709C3.71421 16.6766 6.8024 16.3976 6.8024 16.3976L7.78953 15.7758L8.62638 16.2332C8.62638 16.2332 11.4018 16.4652 11.4337 16.4474C11.4657 16.4295 14.4008 15.3006 14.4008 15.3006L16.221 13.3789V12.8238L17.5359 13.332L19.1617 13.4259L21.6638 12.1889L22.6725 11.1229L22.5007 9.56754L22.0386 9.62201L21.2693 10.2907L20.2794 10.3941L19.3787 11.1332L18.199 11.0046L16.8268 11.8198L15.741 11.5089L14.52 12.3026L13.1798 12.1786L11.5934 13.1573L10.3931 12.9243L8.62544 14.0138L6.92356 13.8063L5.25173 14.4844L3.63814 14.1087L2.75432 14.8047L2.05836 14.5877Z" fill="#C92F29"/>
<path d="M3.33945 14.3387C3.33945 14.3387 5.70724 15.8245 6.92448 13.8061L5.48464 14.4251L4.42613 14.3312L3.64 14.1048L3.33945 14.3387Z" fill="#8C1F1F"/>
<path d="M7.767 13.7179C8.12526 13.7957 8.4888 13.8469 8.85462 13.871C10.1851 13.9788 11.5237 13.8232 12.794 13.4132C14.0643 13.0032 15.2413 12.3468 16.2576 11.4816L14.6262 12.139C14.6262 12.139 13.3488 12.1287 13.2173 12.1071C12.7266 12.3881 12.2604 12.7098 11.8235 13.0689L10.5903 12.7749L8.64518 13.9611L7.767 13.7179Z" fill="#8C1F1F"/>
<path d="M16.8258 11.8196C18.9263 11.773 20.94 10.973 22.4997 9.56549L20.9969 10.3958L20.0248 10.4343L19.45 11.1406L18.2018 11.0025L16.8258 11.8196Z" fill="#8C1F1F"/>
<path opacity="0.47" d="M10.2841 14.04C10.5497 14.04 10.765 13.8915 10.765 13.7084C10.765 13.5253 10.5497 13.3769 10.2841 13.3769C10.0185 13.3769 9.80322 13.5253 9.80322 13.7084C9.80322 13.8915 10.0185 14.04 10.2841 14.04Z" fill="#EA6565"/>
<path opacity="0.47" d="M14.0598 12.9354C14.3933 12.9354 14.6637 12.7487 14.6637 12.5184C14.6637 12.2881 14.3933 12.1013 14.0598 12.1013C13.7263 12.1013 13.4559 12.2881 13.4559 12.5184C13.4559 12.7487 13.7263 12.9354 14.0598 12.9354Z" fill="#EA6565"/>
<path d="M19.682 11.7595C19.8485 11.7595 19.9835 11.6661 19.9835 11.5509C19.9835 11.4358 19.8485 11.3424 19.682 11.3424C19.5155 11.3424 19.3805 11.4358 19.3805 11.5509C19.3805 11.6661 19.5155 11.7595 19.682 11.7595Z" fill="#EA6565"/>
<path d="M5.01972 15.0807C5.18623 15.0807 5.32122 14.9873 5.32122 14.8721C5.32122 14.757 5.18623 14.6636 5.01972 14.6636C4.85321 14.6636 4.71823 14.757 4.71823 14.8721C4.71823 14.9873 4.85321 15.0807 5.01972 15.0807Z" fill="#EA6565"/>
<path opacity="0.47" d="M6.82023 14.2597C6.98674 14.2597 7.12172 14.1663 7.12172 14.0512C7.12172 13.936 6.98674 13.8427 6.82023 13.8427C6.65372 13.8427 6.51874 13.936 6.51874 14.0512C6.51874 14.1663 6.65372 14.2597 6.82023 14.2597Z" fill="#EA6565"/>
<path d="M12.1936 14.2814C12.4228 14.2814 12.6087 14.1531 12.6087 13.9949C12.6087 13.8367 12.4228 13.7085 12.1936 13.7085C11.9643 13.7085 11.7784 13.8367 11.7784 13.9949C11.7784 14.1531 11.9643 14.2814 12.1936 14.2814Z" fill="#EA6565"/>
<path opacity="0.47" d="M3.75459 14.7275C3.98386 14.7275 4.16972 14.5992 4.16972 14.441C4.16972 14.2828 3.98386 14.1545 3.75459 14.1545C3.52531 14.1545 3.33945 14.2828 3.33945 14.441C3.33945 14.5992 3.52531 14.7275 3.75459 14.7275Z" fill="#EA6565"/>
<path opacity="0.47" d="M20.6288 10.8972C20.858 10.8972 21.0439 10.769 21.0439 10.6107C21.0439 10.4525 20.858 10.3243 20.6288 10.3243C20.3995 10.3243 20.2136 10.4525 20.2136 10.6107C20.2136 10.769 20.3995 10.8972 20.6288 10.8972Z" fill="#EA6565"/>
<path opacity="0.47" d="M18.2403 11.7483C18.4037 11.7483 18.5362 11.66 18.5362 11.551C18.5362 11.4421 18.4037 11.3538 18.2403 11.3538C18.0769 11.3538 17.9445 11.4421 17.9445 11.551C17.9445 11.66 18.0769 11.7483 18.2403 11.7483Z" fill="#EA6565"/>
<path d="M5.97963 15.8273C5.62248 16.1239 5.16435 16.2707 4.70134 16.2369C4.23024 16.2236 3.78296 16.0268 3.45499 15.6883C3.45968 15.5775 4.10681 15.8067 4.71919 15.833C5.33156 15.8593 5.98433 15.7156 5.97963 15.8273Z" fill="#EA6565"/>
<path d="M16.5751 11.7473L16.7319 13.02L16.2482 12.9354L16.0932 11.6102L16.5751 11.7473Z" fill="#8C1F1F"/>
<path d="M7.14429 14.8654L7.31147 15.9484C7.31147 15.9484 7.7886 15.8357 7.767 15.6582C7.74539 15.4806 7.65992 14.44 7.65992 14.44L7.14429 14.8654Z" fill="#8C1F1F"/>
<path d="M7.81299 15.6404C6.5563 17.1704 2.33729 16.7083 2.01513 16.0922C1.83362 15.6194 1.83362 15.0961 2.01513 14.6232C2.86855 15.172 3.86693 15.4522 4.88125 15.4275C5.89556 15.4029 6.87918 15.0747 7.70498 14.4852" stroke="#641926" stroke-width="0.4" stroke-miterlimit="10"/>
<path d="M7.81301 13.9705C7.72159 14.1273 7.66939 14.3038 7.66086 14.4852C7.67007 14.5989 7.70765 14.7086 7.77016 14.804C7.83267 14.8995 7.91812 14.9778 8.0187 15.0318C8.63014 15.4178 15.1644 15.4526 15.9336 11.5566" stroke="#641926" stroke-width="0.4" stroke-miterlimit="10"/>
<path d="M7.65991 14.7567L7.84212 15.8077C7.85216 15.8665 7.87774 15.9215 7.91622 15.9671C7.9547 16.0127 8.00468 16.0471 8.06096 16.0669C9.49419 16.5526 11.0437 16.5765 12.4912 16.1352C13.9387 15.694 15.2114 14.8097 16.1299 13.607C16.174 13.5547 16.2069 13.4938 16.2266 13.4282C16.2463 13.3627 16.2524 13.2937 16.2445 13.2257L16.004 11.4816" stroke="#641926" stroke-width="0.4" stroke-miterlimit="10"/>
<path d="M16.5215 11.7379C16.5215 11.7379 17.7641 13.1007 20.2249 11.8469C22.6857 10.593 22.5241 9.69135 22.5241 9.69135L22.6669 10.9123C22.6783 11.0079 22.6685 11.1048 22.6383 11.1961C22.6081 11.2875 22.5582 11.3711 22.4922 11.4411C21.7662 12.2132 19.2397 14.5133 16.221 12.8255" stroke="#641926" stroke-width="0.4" stroke-miterlimit="10"/>
<path d="M2.03111 12.9664L1.48166 13.6793L1.89304 14.5537L2.63033 14.705L3.63907 14.1095L4.97183 14.4842L6.19564 14.0466L6.87752 13.6793L8.41974 14.0494L9.5609 13.3525L10.178 12.9664L11.5943 13.1571L12.852 12.1737L14.5087 12.201L15.5823 11.5585L16.7479 11.9267L18.0196 11.1425H19.4463L20.4343 10.3507L21.4684 10.2211L22.2179 9.6228L23.3027 9.51572L23.4615 8.72489L22.8726 7.88522L22.2179 7.9613L22.0376 8.63567L5.83874 12.803L3.75271 13.0895L2.03111 12.9664Z" fill="#36CE36"/>
<path d="M2.03111 12.9664L2.1363 13.8032C2.14244 13.8522 2.16014 13.8989 2.18793 13.9397C2.21571 13.9804 2.25279 14.014 2.2961 14.0376C2.33941 14.0611 2.38771 14.0741 2.437 14.0753C2.4863 14.0765 2.53518 14.066 2.57962 14.0446L2.79094 13.9432C3.14492 13.7728 3.5475 13.7323 3.92835 13.8286L4.59426 13.9977C4.87569 14.069 5.17383 14.0279 5.42548 13.8831L6.04255 13.5281C6.35966 13.345 6.73187 13.2817 7.09167 13.3496L8.0309 13.5271C8.15146 13.5499 8.27542 13.5478 8.39513 13.5208C8.51483 13.4938 8.62773 13.4426 8.72686 13.3703L9.47825 12.8227C9.80562 12.5853 10.2124 12.4842 10.6128 12.5409L11.228 12.6283C11.364 12.6474 11.5024 12.6374 11.6342 12.599C11.766 12.5607 11.8881 12.4948 11.9926 12.4057L12.2743 12.1615C12.418 12.0382 12.585 11.9452 12.7654 11.8879C12.9458 11.8306 13.1359 11.8102 13.3244 11.8281L13.9659 11.8891C14.0966 11.9013 14.2284 11.8874 14.3537 11.8482C14.4789 11.809 14.5952 11.7454 14.6957 11.6609L14.8967 11.4909C15.0549 11.3576 15.243 11.2644 15.4449 11.2193C15.6468 11.1742 15.8567 11.1784 16.0566 11.2316L16.4548 11.3368C16.5757 11.369 16.7024 11.3724 16.8248 11.347C16.9473 11.3216 17.0621 11.2679 17.1602 11.1903C17.4377 10.9829 17.7469 10.8217 18.0759 10.7132C18.3615 10.6468 18.6547 10.6193 18.9475 10.6315C19.0352 10.6444 19.1246 10.6386 19.2097 10.6143C19.2949 10.59 19.374 10.5478 19.4416 10.4906L19.853 10.1412C20.0847 9.94493 20.3786 9.83712 20.6823 9.83689H20.8391C21.0798 9.83607 21.3126 9.75062 21.4966 9.59551L21.6891 9.43208C22.0527 9.12772 22.5121 8.96141 22.9862 8.96247H23.4089L23.2971 9.52131L22.2508 9.69694L21.2627 10.4051L20.2728 10.3995L19.4406 11.1509L18.1924 11.0128L16.9939 11.7802L15.7344 11.5172L14.5031 12.2094L13.1215 12.2573L11.6958 13.1655L10.3611 12.8621C10.3611 12.8621 8.95228 13.776 8.95228 13.8108C8.74793 13.8985 8.53726 13.9707 8.32206 14.0268L6.79957 13.8577L5.25454 14.4842L3.64094 14.1085L2.75713 14.6626L1.68265 14.5556L1.39337 13.8568L2.03111 12.9664Z" fill="#5FF25F"/>
<path d="M2.15601 13.02C2.49878 13.2918 2.91839 13.4488 3.3554 13.4689C4.02037 13.4858 21.6224 10.206 22.2179 8.46939L21.5605 8.79061L4.71822 13.0171L2.15601 13.02Z" fill="#26B526"/>
<path d="M2.0311 12.9665C2.0311 12.9665 0.893696 13.9057 1.89304 14.5538C2.08745 14.6923 2.32764 14.7508 2.56397 14.7172C2.8003 14.6837 3.01471 14.5606 3.16287 14.3734C3.27289 14.2579 3.41489 14.1779 3.57067 14.1436C3.72646 14.1093 3.88893 14.1223 4.03729 14.1809L4.55856 14.3894C4.75326 14.4668 4.9631 14.4985 5.17198 14.4823C5.38086 14.466 5.58323 14.4021 5.76359 14.2955L6.19094 14.0456C6.42585 13.9082 6.68809 13.824 6.95912 13.799C7.23015 13.774 7.50336 13.8088 7.75945 13.901L8.00271 13.9884C8.16925 14.0483 8.34852 14.0639 8.52291 14.0336C8.69731 14.0033 8.86081 13.9282 8.99736 13.8155L9.75437 13.1881C9.89354 13.0732 10.0569 12.9911 10.2322 12.9482C10.4076 12.9053 10.5903 12.9025 10.7669 12.9402L11.3952 13.0745C11.5097 13.0986 11.6283 13.0947 11.741 13.0631C11.8536 13.0316 11.957 12.9733 12.0423 12.8932L12.3457 12.6114C12.5435 12.4256 12.7844 12.2919 13.0467 12.2222C13.309 12.1525 13.5845 12.1491 13.8485 12.2123C14.0655 12.2641 14.2921 12.2601 14.5072 12.2009C14.7224 12.1416 14.919 12.0289 15.0789 11.8732C15.2357 11.7198 15.4341 11.6159 15.6495 11.5743C15.8649 11.5327 16.0878 11.5553 16.2905 11.6393L16.5253 11.7333C16.6248 11.7745 16.7333 11.7894 16.8403 11.7764C16.9472 11.7634 17.049 11.723 17.1358 11.6591L17.4466 11.4299C17.6705 11.2647 17.9271 11.1493 18.1993 11.0914C18.4715 11.0336 18.7528 11.0347 19.0246 11.0946C19.1446 11.1206 19.2695 11.1129 19.3855 11.0725C19.5015 11.032 19.6041 10.9604 19.682 10.8654L19.7421 10.7912C19.8814 10.6214 20.0603 10.4886 20.2631 10.4044C20.4659 10.3202 20.6863 10.2872 20.9049 10.3085H20.9171C21.0963 10.3261 21.2771 10.2981 21.4426 10.2272C21.6081 10.1562 21.753 10.0446 21.8638 9.90271L21.8986 9.85763C21.986 9.74639 22.1024 9.66129 22.2349 9.6116C22.3673 9.56192 22.5109 9.54955 22.65 9.57586L22.8641 9.61719C22.945 9.63272 23.0283 9.63 23.1079 9.60925C23.1876 9.58849 23.2616 9.55021 23.3246 9.49721C23.3876 9.4442 23.438 9.3778 23.4721 9.30285C23.5061 9.2279 23.5231 9.1463 23.5216 9.06398C23.5134 8.75076 23.3845 8.4528 23.1619 8.23229C22.9393 8.01179 22.6402 7.88577 22.3269 7.88055" stroke="#641926" stroke-width="0.4" stroke-miterlimit="10"/>
<path d="M2.19077 11.6159L6.89818 6.86337L10.394 3.91795L12.8717 2.22828L13.4174 2.00192L14.8713 2.33911L18.2534 4.41292L21.9296 7.00613L21.7333 7.45038L19.0959 8.29475L9.80039 10.8297L4.00348 12.0103L2.60872 11.9944L2.19077 11.6159Z" fill="#FFCD5C"/>
<path d="M2.19078 11.616L1.86957 12.4416L2.19078 13.0896L4.38294 13.0079L12.2969 11.4394L18.7569 9.41818L20.7124 8.96829L21.9296 8.55879L22.2565 8.0779L21.9296 7.09265L21.6074 7.52094L17.7322 8.59823L7.7219 11.3079L3.98283 11.9109L2.60874 11.9945L2.19078 11.616Z" fill="#D88D4A"/>
<path d="M14.8046 2.54294C14.8046 2.54294 22.6537 7.48985 20.4184 7.72841L21.7455 7.42692L21.785 6.98173L16.4116 3.05763L14.3068 2.202L14.8046 2.54294Z" fill="#E0AD48"/>
<path d="M20.6288 7.79322C20.6288 7.79322 20.4926 8.87145 20.2136 9.06399L22.0151 8.42908L22.2151 7.95946L22.0526 7.2851L20.6288 7.79322Z" fill="#BF7436"/>
<path d="M13.7818 2.00192C13.7818 2.00192 2.27719 11.4393 3.12437 11.4393C3.83255 11.4393 5.59079 11.5511 5.59079 11.5511L4.32846 11.8554L2.84636 12.0103L2.36266 11.7718C2.36266 11.7718 2.25653 11.5501 2.36266 11.4393C2.46879 11.3285 4.67316 8.90337 4.67316 8.90337L10.1808 3.99684L13.0097 2.13623L13.7818 2.00192Z" fill="#FFD683"/>
<path d="M6.03504 10.3996C6.25031 10.3996 6.42482 10.2251 6.42482 10.0098C6.42482 9.79454 6.25031 9.62003 6.03504 9.62003C5.81977 9.62003 5.64526 9.79454 5.64526 10.0098C5.64526 10.2251 5.81977 10.3996 6.03504 10.3996Z" fill="#EFAA30"/>
<path d="M12.1936 4.82149C12.3694 4.82149 12.512 4.67894 12.512 4.50309C12.512 4.32724 12.3694 4.18469 12.1936 4.18469C12.0177 4.18469 11.8752 4.32724 11.8752 4.50309C11.8752 4.67894 12.0177 4.82149 12.1936 4.82149Z" fill="#EFAA30"/>
<path d="M10.9003 9.35048C10.975 9.35048 11.0355 9.28993 11.0355 9.21524C11.0355 9.14054 10.975 9.07999 10.9003 9.07999C10.8256 9.07999 10.765 9.14054 10.765 9.21524C10.765 9.28993 10.8256 9.35048 10.9003 9.35048Z" fill="#EFAA30"/>
<path d="M8.62639 7.65148C8.74621 7.65148 8.84335 7.55435 8.84335 7.43452C8.84335 7.3147 8.74621 7.21756 8.62639 7.21756C8.50656 7.21756 8.40942 7.3147 8.40942 7.43452C8.40942 7.55435 8.50656 7.65148 8.62639 7.65148Z" fill="#EFAA30"/>
<path d="M14.598 7.85049C14.7178 7.85049 14.815 7.75335 14.815 7.63353C14.815 7.5137 14.7178 7.41656 14.598 7.41656C14.4782 7.41656 14.381 7.5137 14.381 7.63353C14.381 7.75335 14.4782 7.85049 14.598 7.85049Z" fill="#EFAA30"/>
<path d="M18.647 6.9732C18.7077 6.9732 18.7569 6.924 18.7569 6.86331C18.7569 6.80262 18.7077 6.75342 18.647 6.75342C18.5863 6.75342 18.5371 6.80262 18.5371 6.86331C18.5371 6.924 18.5863 6.9732 18.647 6.9732Z" fill="#EFAA30"/>
<path d="M15.7401 4.984C15.8381 4.984 15.9176 4.90452 15.9176 4.80648C15.9176 4.70844 15.8381 4.62897 15.7401 4.62897C15.6421 4.62897 15.5626 4.70844 15.5626 4.80648C15.5626 4.90452 15.6421 4.984 15.7401 4.984Z" fill="#EFAA30"/>
<path d="M2.27251 11.4262C3.67008 9.79945 9.6755 3.69353 13.1272 2.10435C13.4384 1.98282 13.781 1.96698 14.1021 2.05927C15.0873 2.28844 17.1076 3.45308 21.7098 6.93762C21.7588 6.97888 21.7956 7.03263 21.8164 7.09315C21.8372 7.15368 21.8413 7.21872 21.8281 7.28135C21.8149 7.34397 21.7849 7.40186 21.7414 7.44883C21.698 7.4958 21.6426 7.53012 21.5812 7.54812C18.5935 8.46386 5.54102 12.3927 2.48383 11.9803C2.4236 11.9724 2.36664 11.9482 2.31898 11.9106C2.27132 11.8729 2.23473 11.823 2.21308 11.7662C2.19143 11.7094 2.18552 11.6479 2.19598 11.588C2.20644 11.5282 2.23288 11.4723 2.27251 11.4262Z" stroke="#641926" stroke-width="0.4" stroke-miterlimit="10"/>
<path d="M2.19076 11.616C2.01772 11.7913 1.90807 12.0193 1.87915 12.2639C1.85023 12.5085 1.9037 12.7558 2.03109 12.9666C2.41711 13.8889 12.9261 11.1548 12.9261 11.1548L21.6215 8.71284C21.7467 8.67862 21.8632 8.61803 21.9631 8.53513C22.0631 8.45223 22.1441 8.34893 22.2009 8.23216C22.2576 8.11538 22.2887 7.98783 22.2922 7.85804C22.2956 7.72826 22.2712 7.59924 22.2207 7.47963C22.1465 7.30775 21.8 6.90106 21.6102 6.86349" stroke="#641926" stroke-width="0.4" stroke-miterlimit="10"/>
</svg>
