<svg width="24" height="24" viewBox="0 0 24 24" fill="none" xmlns="http://www.w3.org/2000/svg">
<path d="M5.9476 9.16122L10.3601 19.5877C10.3601 19.5877 11.027 18.9414 11.6155 18.4088C12.2041 17.8763 13.5984 16.3905 13.5984 16.3905L15.0292 14.3572L15.8387 12.7614L16.5028 10.8447L17.0037 8.67903L16.5597 6.30814L15.8257 7.10838L13.9333 8.05506L11.4001 8.88328L9.39668 9.3403L7.57794 9.43357L5.9476 9.16122Z" fill="#F9765D"/>
<path d="M10.7006 20.3926L11.2294 21.606L12.2078 21.7739L14.8025 21.3561L17.0009 20.5903L18.7674 19.4086L18.6517 18.1308L17.6491 12.78L17.1837 14.1921L15.9656 16.0668L14.0788 18.1215L11.8711 19.6987L10.7006 20.3926Z" fill="#3B30A0"/>
<path opacity="0.47" d="M15.8005 18.1626C15.8387 17.3399 16.2444 16.5994 16.4161 16.6068C16.6303 16.801 16.7954 17.0433 16.8975 17.3138C16.9997 17.5843 17.0361 17.8752 17.0036 18.1626C16.9645 18.9861 16.4515 19.5998 16.2799 19.5914C16.1083 19.583 15.7613 18.9852 15.8005 18.1626Z" fill="#7873D8"/>
<path d="M11.2294 21.606C11.2294 21.606 10.7733 22.8185 11.6025 23.0983L12.4298 23.3781L14.9116 22.9118L17.7666 21.9996L19.2869 20.9047L19.3531 19.972L18.8392 19.195L18.4223 19.8386L15.3444 21.1984L12.5669 21.7693L11.2294 21.606Z" fill="white"/>
<path opacity="0.41" d="M14.4182 7.86105C14.4182 7.86105 16.0197 7.64187 16.1652 8.51393C16.3107 9.38599 19.0406 21.1985 18.4036 21.6014L19.3531 20.7722C19.3531 20.7722 19.2384 19.6316 19.2151 19.5859C19.1917 19.5402 18.842 19.1988 18.842 19.1988L16.5373 6.22418L15.5263 7.25014L14.4182 7.86105Z" fill="white"/>
<path opacity="0.22" d="M13.036 8.51578C12.1712 9.5501 11.5864 10.7891 11.3377 12.1142C11.089 13.4393 11.1847 14.8061 11.6155 16.0836C12.6545 19.292 13.9407 22.5798 14.629 22.6656C15.8462 22.8195 19.3428 21.7385 19.286 20.9084L18.2022 21.7357L15.6317 22.7327L13.0481 23.27L11.6015 23.1058C11.6015 23.1058 11.1706 22.4986 11.1436 22.4921C11.1165 22.4856 11.2294 21.6098 11.2294 21.6098L5.90469 9.10524L6.97635 9.41302L9.26237 9.30203L11.7871 8.78159L13.036 8.51578Z" fill="black"/>
<path d="M18.8224 19.111C19.009 19.6053 17.4299 20.5809 15.3043 21.2142C13.4035 21.7804 11.7014 21.9305 11.2266 21.6032H11.2192" stroke="#641926" stroke-width="0.3" stroke-miterlimit="10"/>
<path d="M11.2294 21.606C11.1071 21.823 11.0603 22.0745 11.0964 22.321C11.1325 22.5675 11.2495 22.795 11.429 22.9678C12.2265 23.9004 17.456 22.4688 19.0444 21.1779C19.2054 21.0509 19.3235 20.8775 19.3828 20.6812C19.442 20.4848 19.4395 20.275 19.3755 20.0802C19.3242 19.7082 19.129 19.3713 18.8318 19.1419" stroke="#641926" stroke-width="0.3" stroke-miterlimit="10"/>
<path d="M16.6744 4.9417L16.5597 6.15419L15.8742 6.94977L14.0405 8.0149L10.7006 9.04085L7.57795 9.42699L6.41768 9.20874L5.90471 9.10521L5.82916 9.09122C5.72194 9.0186 5.62171 8.93617 5.52977 8.84499C5.48609 8.80047 5.44469 8.75378 5.40572 8.70509C5.24838 8.50801 5.14318 8.27451 5.0998 8.02609C5.03801 7.46816 5.16157 6.9054 5.45142 6.42467C5.45142 6.42467 5.45795 6.40695 5.46541 6.38176C5.485 6.31554 5.50925 6.19523 5.44116 6.15326C5.70332 5.88479 6.00077 5.65323 6.32535 5.46493C6.71987 5.19259 7.09854 4.94356 7.09854 4.94356L9.53192 3.9801L9.80613 3.8719H9.81173V3.87937L9.8537 3.96237L9.87236 3.99782L9.99174 4.36156L10.2837 5.24855L10.3536 5.4612L10.6334 5.46866L10.9412 5.47799L11.0988 5.34462L11.2238 5.23829L11.3992 5.08906L11.373 5.01165L11.0391 4.00621L10.9701 3.79915L10.931 3.68164L11.2266 3.61728L12.9633 3.28711L15.0441 3.36732L15.8975 3.78516L16.6744 4.9417Z" fill="white"/>
<path opacity="0.22" d="M13.036 8.26111C12.8332 8.26758 12.6319 8.22502 12.4491 8.13706C12.2663 8.04909 12.1074 7.9183 11.9859 7.75581C11.8644 7.59331 11.7839 7.40391 11.7513 7.20366C11.7186 7.00342 11.7348 6.79826 11.7984 6.60559C11.7984 6.60559 4.46091 7.66233 7.09295 4.94168L5.43836 6.15138L5.12032 7.25008L5 8.26111L5.90471 9.26748L6.97636 9.41298L8.40431 9.38873L10.7006 9.16116L13.036 8.26111Z" fill="black"/>
<path d="M10.931 3.67695C13.5686 3.08097 15.7595 3.16397 15.9516 3.90453C16.1577 4.70198 13.9743 5.95644 11.0746 6.70819C8.17487 7.45993 5.65568 7.42262 5.44956 6.62611C5.2537 5.8725 7.19742 4.70944 9.8621 3.9493" stroke="#641926" stroke-width="0.3" stroke-miterlimit="10"/>
<path d="M5.48409 6.29878C5.31542 6.49088 5.1875 6.71522 5.10809 6.95822C5.02868 7.20121 4.99942 7.4578 5.02209 7.71243C5.04476 7.96707 5.11889 8.21445 5.23999 8.43959C5.36109 8.66473 5.52663 8.86295 5.72659 9.02222C7.06033 10.1582 13.729 8.7704 15.9778 6.92554C16.2392 6.71431 16.4432 6.44065 16.571 6.1298C16.6988 5.81895 16.7462 5.48093 16.709 5.14691C16.6756 4.87606 16.5862 4.61513 16.4465 4.38069C16.3068 4.14626 16.1199 3.94346 15.8975 3.78519" stroke="#641926" stroke-width="0.3" stroke-miterlimit="10"/>
<path d="M10.3601 19.4087L10.7006 20.3926L13.1423 18.7903L15.4377 16.7468L16.0999 15.9381L17.1837 14.1073L17.6491 12.7801L17.0009 8.78256L16.7229 9.8878L15.9469 12.5543L14.5274 15.2834L11.4747 18.5944L10.3601 19.4087Z" fill="white"/>
<path d="M10.3601 19.4086C17.2452 14.3656 16.8889 8.01492 16.8889 8.01492" stroke="#641926" stroke-width="0.3" stroke-miterlimit="10"/>
<path d="M17.6491 12.3874C17.6491 12.3874 17.7172 16.2636 10.7006 20.3926" stroke="#641926" stroke-width="0.3" stroke-miterlimit="10"/>
<path d="M5.9476 9.16122L10.917 20.9028L11.2266 21.6033" stroke="#641926" stroke-width="0.3" stroke-miterlimit="10"/>
<path d="M18.8747 19.4086L16.5597 6.15143" stroke="#641926" stroke-width="0.3" stroke-miterlimit="10"/>
<path d="M9.16258 10.8438L10.0794 11.1515L10.2212 11.7177L10.0794 12.3873L9.32393 12.753L8.67758 12.559L8.3045 11.7979L8.58711 11.1226L9.26237 10.8438H9.16258Z" fill="white"/>
<path d="M9.26237 12.7595C9.79139 12.7595 10.2202 12.3306 10.2202 11.8016C10.2202 11.2726 9.79139 10.8438 9.26237 10.8438C8.73336 10.8438 8.3045 11.2726 8.3045 11.8016C8.3045 12.3306 8.73336 12.7595 9.26237 12.7595Z" stroke="#641926" stroke-width="0.3" stroke-miterlimit="10"/>
<path d="M10.9703 3.7945L10.9312 3.67698L10.6803 2.92523L9.95743 1.25013L9.39688 1.0011L5.65587 2.15763L5.43576 2.49526L5.60271 3.12389L5.94874 3.32909L9.03313 2.28168H9.26257L9.81193 3.86911L9.8567 3.99875L9.98354 4.36343L10.2885 5.24576L10.2904 5.25042L10.296 5.26534L10.3603 5.46307L10.6103 5.478L10.6392 5.47053L11.099 5.34462L11.1681 5.32597L11.224 5.2383L11.2249 5.23736L11.3732 5.00699L11.0384 4.00155L10.9703 3.7945Z" fill="white"/>
<path opacity="0.22" d="M5.43835 3.00637L8.94992 1.82092C9.34445 1.74444 9.62239 1.88061 9.71099 2.13617L10.8479 5.41363L10.3611 5.46306L9.19522 2.25742L5.94853 3.33281L5.70417 3.23954L5.43835 3.00637Z" fill="black"/>
<path d="M10.0794 5.39315C10.3499 5.49405 10.6459 5.5045 10.9229 5.42294C11.1998 5.34138 11.4429 5.17221 11.6155 4.9408" stroke="#641926" stroke-width="0.3" stroke-miterlimit="10" stroke-linecap="round"/>
<path d="M10.3602 5.46307L9.42747 2.63516C9.40595 2.5696 9.3714 2.50906 9.3259 2.45718C9.28039 2.40531 9.22488 2.36316 9.16268 2.33328C9.10048 2.3034 9.03288 2.2864 8.96394 2.2833C8.89501 2.2802 8.82616 2.29107 8.76153 2.31525L6.11176 3.30297C6.05973 3.32246 6.00435 3.33145 5.94882 3.32942C5.89329 3.32739 5.83872 3.31438 5.78825 3.29114C5.73777 3.2679 5.69241 3.23489 5.65477 3.19402C5.61712 3.15314 5.58795 3.10522 5.56894 3.05301L5.45981 2.75641C5.4361 2.69238 5.42555 2.62423 5.4288 2.55603C5.43205 2.48782 5.44903 2.42098 5.47872 2.3595C5.50842 2.29802 5.55022 2.24316 5.60162 2.19821C5.65302 2.15327 5.71297 2.11916 5.77786 2.09793L8.93874 1.05519C9.07168 1.01064 9.21211 0.992783 9.35197 1.00263C9.49183 1.01248 9.62837 1.04984 9.75375 1.11258C9.87914 1.17532 9.99091 1.26219 10.0826 1.36822C10.1744 1.47425 10.2443 1.59735 10.2883 1.73046L11.4076 5.08813" stroke="#641926" stroke-width="0.3" stroke-miterlimit="10"/>
</svg>
