<svg width="41" height="41" viewBox="0 0 41 41" fill="none" xmlns="http://www.w3.org/2000/svg">
<path fill-rule="evenodd" clip-rule="evenodd" d="M20.2312 0.428589C17.7065 0.428589 16.2337 2.11173 15.8129 2.9533C12.4467 10.9482 5.58788 28.4528 5.08294 34.5121C4.578 40.5714 9.92196 40.8239 12.6571 40.1927L20.2312 36.4057L27.8053 40.1927C30.5404 40.8239 35.8844 40.5714 35.3794 34.5121C34.8745 28.4528 28.0157 10.9482 24.6494 2.9533C24.2286 2.11173 22.7559 0.428589 20.2312 0.428589Z" fill="#0AAFD9"/>
<path d="M34.3515 22.7529L31.3183 14.1588C31.1134 13.5783 31.4768 12.9529 32.0907 12.9071C34.626 12.7176 38.4699 13.188 39.7641 16.208C41.0846 19.2889 38.0249 21.9543 35.6851 23.2844C35.1751 23.5743 34.5468 23.3062 34.3515 22.7529Z" fill="#0AAFD9"/>
<path d="M5.73148 22.7529L8.76469 14.1588C8.96958 13.5783 8.60622 12.9529 7.99231 12.9071C5.45697 12.7176 1.61311 13.188 0.318828 16.208C-1.00159 19.2889 2.05804 21.9543 4.39785 23.2844C4.90791 23.5743 5.53621 23.3062 5.73148 22.7529Z" fill="#0AAFD9"/>
<path d="M15.5427 22.7086C14.7427 22.7086 14.2093 23.3753 14.0427 23.7086C13.5427 28.7086 17.5427 31.2086 20.5427 31.2086C23.5427 31.2086 25.6591 27.7425 26.0426 26.2086C26.5426 24.2086 26.5426 23.7086 25.5426 22.7086C24.5426 21.7086 21.5427 23.7086 20.0427 23.7086C18.5427 23.7086 16.5427 22.7086 15.5427 22.7086Z" fill="#00263E"/>
<mask id="mask0_1_423" style="mask-type:alpha" maskUnits="userSpaceOnUse" x="14" y="22" width="13" height="10">
<path d="M15.5427 22.7086C14.7427 22.7086 14.2093 23.3753 14.0427 23.7086C13.5427 28.7086 17.5427 31.2086 20.5427 31.2086C23.5427 31.2086 25.6591 27.7425 26.0426 26.2086C26.5426 24.2086 26.5426 23.7086 25.5426 22.7086C24.5426 21.7086 21.5427 23.7086 20.0427 23.7086C18.5427 23.7086 16.5427 22.7086 15.5427 22.7086Z" fill="#BDE1EC"/>
</mask>
<g mask="url(#mask0_1_423)">
<path d="M15.5427 17.9886C14.7427 17.9886 14.2093 18.6553 14.0427 18.9886C13.5427 23.9886 17.5427 26.4886 20.5427 26.4886C23.5427 26.4886 25.6591 23.0226 26.0426 21.4886C26.5426 19.4886 26.5426 18.9886 25.5426 17.9886C24.5426 16.9886 21.5427 18.9886 20.0427 18.9886C18.5427 18.9886 16.5427 17.9886 15.5427 17.9886Z" fill="#BDE1EC"/>
</g>
<path d="M19 28.7086C17.8 27.9086 15.8333 28.0419 15 28.2086L15 28.2086C15.3333 28.7086 15.8 29.4086 17 30.2086C18.2 31.0086 20.1667 31.542 21 31.2086C20.6667 30.8753 20.2 29.5086 19 28.7086Z" fill="#405C70"/>
<path d="M14 11.4286C14.4 10.8329 15.56 9.87984 17 10.8329" stroke="#00263E" stroke-linecap="round"/>
<path d="M26 11.4286C25.6 10.8329 24.44 9.87984 23 10.8329" stroke="#00263E" stroke-linecap="round"/>
<path d="M19 16.4286C19 18.6377 16.3137 20.4286 13 20.4286C9.68629 20.4286 7 17.6377 7 15.4286C7 13.2194 9.68629 12.4286 13 12.4286C16.3137 12.4286 19 13.2217 19 16.4286Z" fill="#00263E"/>
<path d="M12.5 12.9286C7.68336 12.9286 7 13.9286 7 14.9286C7 16.4286 9.95862 20.4286 13 20.4286C16.5 20.4286 19 18.4286 19 15.9286C19 13.4286 18.5 12.9286 12.5 12.9286Z" stroke="#45D3E7" stroke-linecap="round"/>
<ellipse cx="10.5" cy="15.4286" rx="1.5" ry="1" fill="#405C70"/>
<path d="M21 16.4286C21 18.6377 23.6863 20.4286 27 20.4286C30.3137 20.4286 33 17.6377 33 15.4286C33 13.2194 30.3137 12.4286 27 12.4286C23.6863 12.4286 21 13.2217 21 16.4286Z" fill="#00263E"/>
<path d="M27.5 12.9286C32.3166 12.9286 33 13.9286 33 14.9286C33 16.4286 30.0414 20.4286 27 20.4286C23.5 20.4286 21 18.4286 21 15.9286C21 13.4286 21.5 12.9286 27.5 12.9286Z" stroke="#45D3E7" stroke-linecap="round"/>
<ellipse cx="1.5" cy="1" rx="1.5" ry="1" transform="matrix(-1 0 0 1 31 14.4286)" fill="#405C70"/>
<path d="M22.5 2.92859C22.8333 3.26192 23.5 4.12859 23.5 4.92859" stroke="white" stroke-opacity="0.5" stroke-linecap="round"/>
<path d="M38 15.4286C38.3333 15.7619 39 16.6286 39 17.4286" stroke="white" stroke-opacity="0.5" stroke-linecap="round"/>
</svg>
