<svg width="24" height="24" viewBox="0 0 24 24" fill="none" xmlns="http://www.w3.org/2000/svg">
<path d="M14.2961 5.13501L15.3169 5.34668L16.1003 5.92212L16.8517 6.39036L17.5087 7.39006L18.8227 7.95084L19.575 9.12006L20.1623 9.58005L20.5197 10.6622L21.7879 11.7242L21.5661 12.9924L22.0728 14.1277L21.7879 15.2704L21.4259 14.9515L20.8523 14.3055L21.0493 12.8669L20.5463 12.4838L20.374 11.5556L19.5997 10.8262L19.1425 10.6622L18.5267 9.15213L17.9109 8.4768L17.4226 8.04797L17.0973 7.46611H16.6996L16.2029 6.96764L15.7155 6.63776L14.6544 5.59592L14.0194 5.25688L14.2961 5.13501Z" fill="#36CE36"/>
<path d="M14.1376 5.27893L14.779 5.4622C14.9867 5.52253 15.1759 5.63443 15.3288 5.78749L15.4506 5.90936C15.6472 6.11987 15.8936 6.27744 16.1672 6.36751L16.2909 6.44723C16.4308 6.49976 16.5542 6.58864 16.6483 6.70472L16.991 7.12897C17.2216 7.41389 17.5035 7.65319 17.8221 7.83453L18.2106 8.05628C18.4385 8.18712 18.6268 8.37707 18.7558 8.60607L18.907 8.87363C19.0262 9.14582 19.216 9.38119 19.4568 9.55537L19.6474 9.70931C19.7244 9.76673 19.7854 9.84312 19.8242 9.93106L20.0524 10.446C20.2093 10.8008 20.4355 11.1208 20.7176 11.3871L20.9329 11.5905C21.1146 11.7617 21.2262 11.9941 21.2463 12.2429L21.2848 12.7166C21.3043 12.9604 21.3596 13.2 21.4488 13.4277L21.5734 13.7448C21.6656 13.9797 21.7239 14.2265 21.7466 14.4778L21.8135 15.1944L22.1086 14.2203L21.6651 13.2032L21.7943 11.727L20.6388 10.764L20.1687 9.58286L19.5273 9.03307L18.8309 7.94999L17.6809 7.56239L16.8563 6.3895L15.9491 5.83422L15.0557 5.13416L14.1376 5.27893Z" fill="#5FF25F"/>
<path d="M13.6849 5.13516H14.5527C14.8861 5.133 15.21 5.24668 15.469 5.45679L15.8227 5.74451C15.9537 5.85067 16.101 5.93513 16.2588 5.99466L16.3221 6.01849C16.5901 6.11846 16.8163 6.30649 16.9635 6.55178L17.33 7.16388C17.4236 7.3199 17.5507 7.45309 17.7023 7.55375C17.8538 7.6544 18.0259 7.71999 18.206 7.74574L18.3764 7.76956C18.5317 7.7925 18.6792 7.8522 18.8067 7.94368C18.9342 8.03517 19.038 8.1558 19.1095 8.29553L19.4329 8.9287C19.5169 9.09304 19.6524 9.22532 19.8187 9.3053C19.9512 9.36866 20.0665 9.46294 20.155 9.5802C20.2052 9.64695 20.2459 9.72034 20.2759 9.79828" stroke="#641926" stroke-width="0.4" stroke-miterlimit="10"/>
<path d="M20.9183 14.0984L21.1043 12.9439L20.5389 12.4463L20.374 11.5557L19.1214 10.6091L18.6165 9.29422L18.0465 8.56575L17.4225 8.04803L17.1788 7.55139L16.5685 7.34613L16.0242 6.77252V7.28291L16.4998 8.39989L16.8883 8.94968L18.7576 11.1039L19.421 12.5526L19.6446 13.9903L20.2182 14.2918L20.8523 14.3055L20.888 14.0609L20.9183 14.0984Z" fill="#914527"/>
<path d="M16.1883 7.17108L16.5887 7.72087C16.6473 7.80061 16.7336 7.85553 16.8306 7.87481C16.8774 7.884 16.9213 7.90438 16.9584 7.93423C16.9956 7.96407 17.025 8.00248 17.0441 8.04616L17.166 8.32105C17.2349 8.47902 17.3633 8.60346 17.5233 8.66742H17.5325C17.573 8.68355 17.6094 8.7083 17.6393 8.73995C17.6692 8.7716 17.6919 8.80939 17.7057 8.85068L17.7973 9.12558C17.829 9.22043 17.8808 9.30733 17.9491 9.38038C18.0174 9.45343 18.1007 9.51091 18.1932 9.54891C18.2677 9.57942 18.3315 9.63141 18.3764 9.69827L18.9391 10.5358L18.5212 9.14849L18.1144 8.81953L17.7772 8.2844L17.2704 7.85282L16.9781 7.37634L16.1883 7.17108Z" fill="#BC6242"/>
<path d="M19.0829 10.8611L19.3322 10.983C19.4086 11.0209 19.4678 11.0864 19.498 11.1662L19.5044 11.1846C19.5266 11.2422 19.5613 11.2942 19.606 11.3368C19.6506 11.3794 19.7042 11.4116 19.7628 11.4311C19.8012 11.4435 19.8358 11.4654 19.8635 11.4947C19.8912 11.524 19.9111 11.5598 19.9213 11.5987L19.9314 11.6391C19.9544 11.7286 20.0039 11.8091 20.0735 11.87L20.1229 11.914C20.1889 11.9721 20.2297 12.0536 20.2366 12.1412L20.2631 12.4454C20.2699 12.5222 20.2927 12.5967 20.3301 12.6641C20.3675 12.7316 20.4187 12.7903 20.4803 12.8367L20.5948 12.921C20.6439 12.9572 20.6842 13.004 20.7128 13.058C20.7413 13.1119 20.7574 13.1716 20.7598 13.2325L20.801 14.1892L21.1043 12.998L20.604 12.5829L20.4537 11.6308L19.7152 10.9399L19.3486 10.687L19.0829 10.8611Z" fill="#BC6242"/>
<path d="M18.918 11.4695L19.0316 10.7145C19.0325 10.6971 19.0325 10.6797 19.0316 10.6623C19.0398 10.5069 19.0001 10.3527 18.918 10.2206L18.8795 10.1583C18.8212 10.0646 18.7782 9.96222 18.7521 9.855L18.644 9.41517C18.62 9.31881 18.576 9.22858 18.5148 9.15036C18.4529 9.07269 18.3755 9.00872 18.2875 8.96251C18.1885 8.91216 18.1078 8.83205 18.0566 8.73343L17.965 8.5685C17.8889 8.42494 17.7719 8.30724 17.6287 8.23038L17.5847 8.20655C17.4858 8.15362 17.4094 8.06674 17.3694 7.9619L17.2934 7.75848C17.2594 7.66923 17.1992 7.59237 17.1207 7.53805C17.0422 7.48374 16.949 7.45452 16.8535 7.45426C16.7831 7.45405 16.7137 7.43737 16.6508 7.40555C16.588 7.37373 16.5334 7.32765 16.4916 7.271L16.3743 7.11523C16.2351 6.92965 16.0289 6.80571 15.7998 6.76978" stroke="#641926" stroke-width="0.4" stroke-miterlimit="10"/>
<path d="M19.0353 10.6622H19.2286C19.2985 10.6621 19.3676 10.6766 19.4316 10.7049C19.4955 10.7331 19.5528 10.7745 19.5997 10.8263L19.7143 10.9518C19.7833 11.0268 19.8652 11.0889 19.9562 11.1351C20.0061 11.1605 20.0505 11.1956 20.0866 11.2384C20.1228 11.2812 20.1501 11.3308 20.1669 11.3843L20.1816 11.431C20.2019 11.4951 20.2371 11.5535 20.2842 11.6015L20.3438 11.6619C20.4508 11.7703 20.5107 11.9165 20.5105 12.0688V12.3244C20.5112 12.4057 20.5372 12.4847 20.585 12.5505C20.6329 12.6162 20.7 12.6653 20.7772 12.691C20.8556 12.7172 20.9237 12.7674 20.9721 12.8345C21.0204 12.9016 21.0464 12.9821 21.0466 13.0648V13.4048C21.0469 13.5835 21.0197 13.7612 20.9659 13.9316L20.8496 14.2982" stroke="#641926" stroke-width="0.4" stroke-miterlimit="10"/>
<path d="M16.9836 9.21179L18.6871 11.0664L19.509 13.1474L19.5741 13.9904L19.2332 14.2094L18.7311 14.5026L18.3636 14.3798L17.9907 13.4827L17.911 11.9534L17.1935 10.8813L16.9836 9.21179Z" fill="#C92F29"/>
<path d="M17.1165 9.43079C17.1165 9.43079 19.1626 11.7536 19.4504 14.0188L19.509 13.1474L19.0353 11.7023L18.1189 10.3691L17.1165 9.43079Z" fill="#EA6565"/>
<path d="M16.8535 8.94971C16.8957 8.98361 19.6299 11.1718 19.5759 13.9894" stroke="#641926" stroke-width="0.4" stroke-miterlimit="10"/>
<path d="M13.1489 5.13507L14.5197 5.48785L15.808 6.77252L16.4998 8.56575L15.808 8.16624L15.2051 7.1418L14.2613 6.4344L13.6849 5.87545L13.1489 5.13507Z" fill="#C92F29"/>
<path d="M13.1489 5.13507C13.1489 5.13507 14.7698 5.45853 16.4998 8.39989L15.6522 6.4115L14.1376 5.27893L13.1489 5.13507Z" fill="#EA6565"/>
<path d="M12.9729 4.98199C13.5493 5.04953 14.1032 5.24544 14.5938 5.5553C15.0844 5.86516 15.4994 6.28108 15.808 6.77247C16.133 7.28649 16.3737 7.84919 16.5209 8.43924C16.5374 8.49972 16.553 8.5602 16.5686 8.62251" stroke="#641926" stroke-width="0.4" stroke-miterlimit="10"/>
<path d="M18.623 14.6097L18.9336 14.3843H19.2021L19.5741 13.9903L20.4336 14.3275L21.1291 14.3L21.5717 15.2044L21.7247 15.6479V16.085L21.788 16.402L21.6652 17.1397L21.4654 17.8425L20.8973 18.8165L20.0424 19.2133L19.3212 19.0658L19.4211 18.0312L18.9126 16.7759L18.6661 16.1839L18.5726 14.7279L18.623 14.6097Z" fill="#914527"/>
<path d="M18.8099 14.7986C18.8976 14.753 18.9965 14.7335 19.0949 14.7427L19.1536 14.7492C19.1988 14.7534 19.2444 14.7459 19.286 14.7274C19.3275 14.709 19.3636 14.6802 19.3909 14.6438L19.4651 14.5439C19.4952 14.5031 19.5393 14.4747 19.589 14.4642C19.6387 14.4538 19.6904 14.4619 19.7345 14.4871L20.0351 14.6575C20.1965 14.7493 20.3829 14.7874 20.5674 14.7666L20.6591 14.7565C20.7294 14.7485 20.8003 14.7663 20.8586 14.8066C20.9169 14.8469 20.9586 14.9068 20.9761 14.9755L21.0027 15.0799C21.0344 15.2045 21.1012 15.3174 21.1951 15.4052L21.251 15.4584C21.2921 15.497 21.3212 15.5467 21.3347 15.6015C21.3482 15.6563 21.3455 15.7139 21.3271 15.7672C21.3044 15.8323 21.2965 15.9017 21.3038 15.9703C21.311 16.0389 21.3334 16.105 21.3692 16.1639L21.4132 16.2354C21.4425 16.284 21.4597 16.3389 21.4632 16.3956C21.4667 16.4522 21.4565 16.5089 21.4333 16.5607L21.3417 16.7623C21.2927 16.8721 21.2653 16.9903 21.2611 17.1105L21.2483 17.5393C21.2414 17.7536 21.1737 17.9614 21.0531 18.1386L20.6325 18.758L21.6698 17.8078L21.9227 16.273L21.787 15.2705L21.1291 14.3038L20.2999 14.3093L19.4504 14.0225L19.0839 14.389H18.809L18.5717 14.7354L18.8099 14.7986Z" fill="#BC6242"/>
<path d="M19.3963 19.0685L19.7344 18.3071C19.7878 18.1086 19.8006 17.9014 19.7721 17.6978C19.7436 17.4942 19.6744 17.2985 19.5686 17.1223L19.202 16.5157C19.137 16.4081 19.0818 16.295 19.0371 16.1776L18.5689 14.9579L18.7136 16.5413L19.3633 17.8847L19.3926 19.0685H19.3963Z" fill="#82371D"/>
<path d="M18.5533 14.6767C18.653 14.5902 18.7449 14.4951 18.8282 14.3927C18.8284 14.3846 18.8318 14.3769 18.8376 14.3712C18.8434 14.3656 18.8512 14.3624 18.8593 14.3624H18.8685L18.9785 14.3954C19.0162 14.4065 19.0566 14.4045 19.093 14.3896C19.1295 14.3748 19.1598 14.3481 19.1791 14.3139L19.2359 14.2121C19.2642 14.1616 19.3024 14.1172 19.3482 14.0817C19.394 14.0463 19.4466 14.0205 19.5026 14.0058C19.5587 13.9912 19.6171 13.988 19.6744 13.9966C19.7318 14.0051 19.7867 14.0251 19.8361 14.0555L20.111 14.2259C20.2446 14.3094 20.4026 14.3449 20.5591 14.3267L20.7194 14.3093C20.8643 14.2917 21.0107 14.3276 21.131 14.4103C21.2513 14.493 21.3372 14.6167 21.3728 14.7583L21.4003 14.8636C21.4326 14.9895 21.492 15.1068 21.5744 15.2073L21.7906 15.4702" stroke="#641926" stroke-width="0.4" stroke-miterlimit="10"/>
<path d="M3.51658 6.09989L3.85378 4.87661L4.64456 4.55315L5.22458 3.84942L6.02544 3.73672L6.9161 3.208L8.00468 3.32896L9.69345 3L10.9845 3.88607L12.2325 4.09683L13.1333 5.2358L13.8792 6.24741L15.0805 7.06568L15.5982 8.02048L16.7885 8.85158L17.1935 10.8812L17.9091 12.1173L18.0191 13.8052L18.5725 14.7279L18.699 16.3214L19.3935 17.8003L19.3706 18.9686L18.7356 18.5526L17.3722 14.3055L15.95 9.79813L13.9983 6.97772L11.494 5.13501L8.56088 4.31216L5.92465 4.66861L3.42128 6.14295L3.51658 6.09989Z" fill="#36CE36"/>
<path d="M3.59081 5.83149L4.00864 5.30736C4.09905 5.19382 4.21487 5.10311 4.34676 5.04255L4.54835 4.95092C4.72933 4.86698 4.89575 4.75469 5.04133 4.61829L5.06882 4.5908C5.27256 4.39921 5.51549 4.25414 5.78079 4.16564L5.88342 4.13265C6.0882 4.0648 6.28135 3.9659 6.45612 3.83943L6.54775 3.77529C6.66296 3.69284 6.79344 3.63417 6.93157 3.6027C7.0697 3.57124 7.21272 3.56761 7.35227 3.59202L7.83792 3.67449C8.14116 3.7263 8.45099 3.7263 8.75423 3.67449L9.14458 3.6076C9.49343 3.54773 9.85223 3.61261 10.158 3.79086L10.7023 4.10882C10.9227 4.23737 11.1621 4.33015 11.4115 4.38372L11.6095 4.42587C11.9195 4.4924 12.1991 4.65921 12.4048 4.90052L13.2112 5.84707C13.2954 5.94755 13.3873 6.0413 13.4861 6.12746L14.5096 7.01079C14.6767 7.15539 14.814 7.33125 14.9137 7.52851L15.0612 7.82173C15.1676 8.03309 15.3164 8.22025 15.4983 8.37151L15.8886 8.69864C16.2168 8.97367 16.4464 9.34807 16.5429 9.76523L16.7591 10.6999C16.8158 10.9439 16.9016 11.1801 17.0148 11.4036L17.2411 11.8489C17.356 12.0762 17.4305 12.3218 17.461 12.5746L17.5463 13.2811C17.5858 13.6117 17.6872 13.9318 17.845 14.2249L17.9916 14.4998C18.1324 14.7608 18.2126 15.0502 18.2262 15.3465L18.25 15.8734C18.2647 16.1851 18.3453 16.4902 18.4864 16.7686L18.8795 17.5411C18.9794 17.7371 19.0607 17.942 19.1223 18.1532L19.3633 18.9723L19.4137 18.035L18.7778 16.7036L18.5652 14.7316L18.0154 13.8089L17.9054 12.1211L17.1128 10.9876L16.9296 9.12472L16.2158 8.40633L15.7246 8.12319L15.0832 7.06943L13.8398 6.07432L12.4012 4.19221L11.4683 4.04743L10.0307 3.14761L9.21147 3.11462L8.51507 3.31255L6.91611 3.20809L6.02545 3.7368L5.22459 3.84951L4.64457 4.55324L3.82447 4.98207L3.59081 5.83149Z" fill="#5FF25F"/>
<path d="M3.48544 6.29692L3.59815 5.57395C3.62578 5.39419 3.70114 5.22513 3.81638 5.08442C3.93162 4.94372 4.08252 4.83652 4.25331 4.77401L4.33395 4.74377C4.49712 4.68427 4.63965 4.57896 4.74446 4.44047L4.92772 4.2004C4.99788 4.10747 5.08574 4.02934 5.18623 3.97053C5.28672 3.91171 5.39786 3.87336 5.51324 3.8577L5.724 3.82929C5.93084 3.80208 6.1222 3.70511 6.26645 3.5544L6.27562 3.54432C6.40589 3.40792 6.56776 3.30572 6.74691 3.24675C6.92606 3.18778 7.11699 3.17385 7.3028 3.2062L7.94422 3.31707C8.2584 3.36952 8.58086 3.33791 8.87886 3.22544L9.09511 3.14481C9.34634 3.05101 9.61974 3.03386 9.88072 3.09551C10.1417 3.15717 10.3785 3.29486 10.5612 3.49117L10.7335 3.67443C10.8573 3.80965 11.0116 3.91342 11.1835 3.97716C11.3555 4.0409 11.5401 4.06277 11.7222 4.04096L11.7909 4.03271C11.9511 4.01272 12.1138 4.03872 12.2598 4.10767C12.4058 4.17663 12.5292 4.2857 12.6156 4.42215L12.9693 4.97926L13.1773 5.30822C13.5003 5.81793 13.9369 6.24601 14.4528 6.55899L14.6113 6.6552C14.9848 6.88217 15.2644 7.2356 15.3993 7.65123L15.4067 7.67414C15.4511 7.81139 15.5235 7.93791 15.6194 8.04565C15.7153 8.15339 15.8326 8.24001 15.9638 8.29998L16.3157 8.46034C16.4999 8.54422 16.6595 8.67409 16.779 8.83745C16.8986 9.00081 16.9741 9.19217 16.9983 9.39315L17.1623 10.7374C17.1786 10.8694 17.2274 10.9954 17.3044 11.1039L17.6507 11.5914C17.8722 11.9022 17.991 12.2745 17.9907 12.6561V13.599C17.991 13.7653 18.0472 13.9266 18.1501 14.0572L18.3499 14.311C18.5411 14.5561 18.6452 14.8578 18.6458 15.1687V15.8348C18.6461 16.2542 18.7649 16.6649 18.9885 17.0196L19.2002 17.355C19.401 17.6731 19.4852 18.0511 19.4385 18.4243L19.3587 19.0603" stroke="#641926" stroke-width="0.4" stroke-miterlimit="10"/>
<path d="M21.9876 19.6916L22.728 18.4674L22.4449 17.9414L21.7879 18.91L21.9876 19.6916Z" fill="#F5C326"/>
<path d="M22.9158 17.7592L22.7656 18.034L22.4082 18.6755L21.7576 19.852L21.6907 19.9739L21.6046 20.0142L21.1785 20.2158L20.1394 20.7051L20.0423 20.7509L19.6822 20.7601L18.7521 20.7839L18.4085 20.7931L16.9424 20.2882L16.1406 20.0133L14.4519 18.702L14.2878 18.5747L13.1773 17.4247L12.0979 16.3086L11.3996 15.8422L10.3404 15.1357L9.7301 14.728L7.23223 13.5798L5.1916 12.9054L3.36447 12.4922L3.09691 12.4317L2.55811 12.3217L2.4674 12.2613L1.36782 11.4787L1.0013 10.1043C1.13701 9.68273 1.309 9.27375 1.51535 8.88191C2.05371 7.81397 2.79436 6.86077 3.69617 6.07524C4.67347 5.23428 5.844 4.6487 7.10303 4.3709C7.19466 4.34982 7.28629 4.33058 7.38434 4.31317C7.38434 4.31317 7.47597 4.31317 7.62899 4.31317C8.51965 4.33883 11.6296 4.56241 13.3899 6.42069C14.1527 7.24188 14.8226 8.14472 15.3874 9.11282V9.11832C15.7989 9.80362 16.1564 10.5199 16.4568 11.2607L16.8233 12.4711L17.0349 13.1767L17.593 15.0386L18.5542 18.297L19.5759 19.1336L21.0915 18.6177L21.6568 17.4467L21.8548 16.5734L21.7182 15.7387L22.0765 14.1278L21.6605 12.9925L21.7521 12.0982L21.7833 11.7967L21.7906 11.7243L21.6413 11.6079L21.2399 11.2973L20.6901 10.8685L20.6709 10.8208L20.5857 10.6027L20.3355 9.97874L21.0841 10.6623L22.0765 12.1321L22.8031 14.9901L22.8242 15.5004L22.8994 17.2909L22.9158 17.7592Z" fill="#F5C326"/>
<path d="M2.94481 6.97773C2.94481 6.97773 11.1476 -0.00640965 17.1165 13.4964C17.1165 13.4964 15.1602 5.1002 9.61832 4.47528C8.38334 4.17107 7.08525 4.24726 5.89433 4.69383C4.70341 5.14041 3.67528 5.93652 2.94481 6.97773Z" fill="#FFCD5C"/>
<path d="M21.1785 20.2158C21.2931 20.2039 21.3847 20.191 21.4534 20.1782L21.3755 20.2616C21.3599 20.2772 21.3412 20.2894 21.3205 20.2973L20.275 20.6849C20.2646 20.6886 20.2539 20.6914 20.243 20.6932L20.1431 20.7051L19.6849 20.7601L19.0243 20.8398C19.0082 20.8426 18.9918 20.8426 18.9757 20.8398L18.7549 20.7866C18.3883 20.695 17.6709 20.5117 16.9442 20.2909C15.9363 19.9766 14.91 19.5789 14.8166 19.2353C14.729 19.0383 14.6064 18.8588 14.4546 18.7057C14.1467 18.3511 13.6785 17.892 13.18 17.4284C12.5487 16.841 11.8688 16.2463 11.4024 15.845C11.1064 15.5902 10.8966 15.4134 10.8398 15.3657C10.8297 15.3569 10.8182 15.3498 10.8058 15.3447L10.3477 15.1385L5.87608 13.1473L5.85318 13.1391L3.36813 12.4977L2.4674 12.2613L1.36782 11.4787L1.0013 10.1043C1.13701 9.68272 1.309 9.27373 1.51535 8.8819C1.41089 9.73407 1.44204 10.7072 2.04223 10.9839C3.08224 11.4641 11.6452 13.5908 14.6452 17.5392C15.4418 18.5023 16.4387 19.2802 17.5664 19.819C18.7315 20.193 19.96 20.3279 21.1785 20.2158Z" fill="#E0AA10"/>
<path d="M22.9507 16.9765L22.8957 17.2908L22.7656 18.0294L22.6932 18.4454C22.6907 18.4599 22.6857 18.4738 22.6785 18.4866L22.2286 19.3461C22.2226 19.3576 22.2149 19.3681 22.2057 19.3773C22.2962 19.1505 22.364 18.9154 22.4082 18.6754C22.7986 16.73 22.4146 13.3058 21.7741 12.406C21.7579 12.3822 21.7493 12.3541 21.7494 12.3253V11.7911C21.7493 11.7756 21.7469 11.7601 21.7421 11.7453L21.7805 11.7966L22.0179 12.11C22.0285 12.1247 22.0366 12.1411 22.0417 12.1586L22.4494 13.6769V13.6861L22.816 15.5004L22.8325 15.5801V15.5966L22.9461 16.9399C22.9495 16.9518 22.951 16.9642 22.9507 16.9765Z" fill="#E0AA10"/>
<path d="M20.4336 10.128L20.702 10.8959L21.1043 10.9838L21.0383 10.6219L20.4336 10.128Z" fill="#E0AA10"/>
<path d="M6.13266 7.8271C6.33205 7.8271 6.49369 7.66546 6.49369 7.46607C6.49369 7.26668 6.33205 7.10504 6.13266 7.10504C5.93327 7.10504 5.77164 7.26668 5.77164 7.46607C5.77164 7.66546 5.93327 7.8271 6.13266 7.8271Z" fill="#E0AA10"/>
<path d="M14.2567 11.8305C14.4561 11.8305 14.6177 11.6689 14.6177 11.4695C14.6177 11.2701 14.4561 11.1085 14.2567 11.1085C14.0573 11.1085 13.8956 11.2701 13.8956 11.4695C13.8956 11.6689 14.0573 11.8305 14.2567 11.8305Z" fill="#E0AA10"/>
<path d="M6.56973 10.237C6.63856 10.237 6.69435 10.1812 6.69435 10.1124C6.69435 10.0436 6.63856 9.98779 6.56973 9.98779C6.50091 9.98779 6.44511 10.0436 6.44511 10.1124C6.44511 10.1812 6.50091 10.237 6.56973 10.237Z" fill="#E0AA10"/>
<path d="M3.32872 10.237C3.39755 10.237 3.45334 10.1812 3.45334 10.1124C3.45334 10.0436 3.39755 9.98779 3.32872 9.98779C3.2599 9.98779 3.2041 10.0436 3.2041 10.1124C3.2041 10.1812 3.2599 10.237 3.32872 10.237Z" fill="#E0AA10"/>
<path d="M15.808 16.0767C15.8768 16.0767 15.9326 16.0209 15.9326 15.9521C15.9326 15.8832 15.8768 15.8275 15.808 15.8275C15.7392 15.8275 15.6834 15.8832 15.6834 15.9521C15.6834 16.0209 15.7392 16.0767 15.808 16.0767Z" fill="#E0AA10"/>
<path d="M8.87976 10.3287C8.99059 10.3287 9.08044 10.2388 9.08044 10.128C9.08044 10.0172 8.99059 9.92731 8.87976 9.92731C8.76894 9.92731 8.67909 10.0172 8.67909 10.128C8.67909 10.2388 8.76894 10.3287 8.87976 10.3287Z" fill="#E0AA10"/>
<path d="M13.6849 14.5061C13.7957 14.5061 13.8856 14.4162 13.8856 14.3054C13.8856 14.1946 13.7957 14.1047 13.6849 14.1047C13.5741 14.1047 13.4842 14.1946 13.4842 14.3054C13.4842 14.4162 13.5741 14.5061 13.6849 14.5061Z" fill="#E0AA10"/>
<path d="M10.6867 12.9924C10.8497 12.9924 10.9818 12.8603 10.9818 12.6973C10.9818 12.5344 10.8497 12.4023 10.6867 12.4023C10.5238 12.4023 10.3917 12.5344 10.3917 12.6973C10.3917 12.8603 10.5238 12.9924 10.6867 12.9924Z" fill="#E0AA10"/>
<path d="M12.266 10.7419C12.3224 10.7419 12.3681 10.6961 12.3681 10.6397C12.3681 10.5833 12.3224 10.5375 12.266 10.5375C12.2096 10.5375 12.1638 10.5833 12.1638 10.6397C12.1638 10.6961 12.2096 10.7419 12.266 10.7419Z" fill="#E0AA10"/>
<path d="M7.00818 12.1558C7.0646 12.1558 7.11034 12.1101 7.11034 12.0536C7.11034 11.9972 7.0646 11.9515 7.00818 11.9515C6.95176 11.9515 6.90602 11.9972 6.90602 12.0536C6.90602 12.1101 6.95176 12.1558 7.00818 12.1558Z" fill="#E0AA10"/>
<path d="M9.49002 7.26908C9.58061 7.26908 9.65404 7.19565 9.65404 7.10506C9.65404 7.01447 9.58061 6.94104 9.49002 6.94104C9.39944 6.94104 9.326 7.01447 9.326 7.10506C9.326 7.19565 9.39944 7.26908 9.49002 7.26908Z" fill="#E0AA10"/>
<path d="M21.6403 11.5264C21.5897 11.4703 21.5314 11.4215 21.4672 11.3817L20.8596 11.0051C20.7351 10.9283 20.6285 10.8258 20.5469 10.7044C20.4654 10.5831 20.4108 10.4456 20.3868 10.3013L20.3355 9.97878C20.3258 9.91606 20.3092 9.8546 20.286 9.79552C20.8369 10.2869 21.2964 10.872 21.6431 11.5237C21.7042 11.6318 21.7653 11.7454 21.8264 11.8646C22.4796 13.2489 22.8687 14.743 22.9736 16.2702C23.4501 21.5445 17.3712 22.469 13.7078 17.9095C10.7976 14.2873 5.231 12.7378 2.89532 12.3969C2.59714 12.3506 2.31207 12.242 2.05873 12.0781C1.7985 11.9157 1.56536 11.7135 1.36782 11.4788C1.1789 11.253 1.05689 10.9789 1.0156 10.6875C0.974308 10.396 1.01538 10.0988 1.13416 9.82942C2.12745 7.58445 5.21634 2.29 11.4024 5.13057C17.9018 8.115 17.1385 18.0359 19.3587 19.0659C19.8095 19.2757 20.3841 19.1172 21.1675 18.4602C21.3278 18.3242 21.4534 18.1521 21.5341 17.958L21.5661 17.8811C21.6253 17.7445 21.6565 17.5974 21.6578 17.4486V17.2827C21.6577 17.1087 21.6981 16.9371 21.776 16.7815L21.8071 16.7183C21.8442 16.6445 21.8643 16.5633 21.8661 16.4807C21.8678 16.3981 21.8511 16.3162 21.8172 16.2409L21.786 16.1721C21.7028 15.9879 21.69 15.7796 21.7503 15.5866L21.7879 15.4675L22.0224 14.7271C22.0843 14.5311 22.1011 14.3237 22.0716 14.1203C22.0421 13.9169 21.967 13.7228 21.852 13.5524L21.7961 13.4699C21.733 13.3771 21.6899 13.2721 21.6697 13.1616C21.6495 13.0512 21.6526 12.9377 21.6788 12.8285L21.8199 12.2375C21.8489 12.113 21.8474 11.9833 21.8155 11.8595C21.7836 11.7357 21.7222 11.6214 21.6367 11.5264" stroke="#641926" stroke-width="0.4" stroke-miterlimit="10"/>
</svg>
